<svg width="42" height="40" viewBox="0 0 42 40" fill="none" xmlns="http://www.w3.org/2000/svg">
<path d="M31.9999 5.50001C21.7738 14.2847 15.1383 17.6787 1.9999 21.5C0.499987 21.9363 0.999883 23.5 2.4999 23C17.0544 20.2643 24.2684 17.0963 35.9999 9.50001L36.9999 10.5C38.5 12 38.5 11 38.9999 9.00001L40.9999 2.50001C41.5 1.5 41 0.999973 39.4999 1.50001L32.4999 3.00001C30.5 3.5 30 3.5 30.9999 4.50001L31.9999 5.50001Z" fill="white" stroke="white"/>
<path d="M9 1C13.4183 1 17 4.58172 17 9C17 13.4183 13.4183 17 9 17C4.58172 17 1 13.4183 1 9C1 4.58172 4.58172 1 9 1ZM9.00586 3C8.78494 3 8.57293 3.07157 8.41602 3.19922C8.25922 3.32687 8.16997 3.50038 8.16797 3.68164V4.85547C7.48128 5.02484 6.89133 5.39093 6.50488 5.88672C6.11853 6.38255 5.96104 6.97582 6.06152 7.55859C6.16215 8.14147 6.51369 8.67619 7.05273 9.06445C7.59182 9.45272 8.28288 9.6697 9 9.67578C9.26177 9.67579 9.51766 9.73906 9.73535 9.8584C9.95312 9.97785 10.1234 10.148 10.2236 10.3467C10.3237 10.5452 10.3499 10.7639 10.2988 10.9746C10.2477 11.1854 10.1217 11.3793 9.93652 11.5312C9.75146 11.6832 9.51545 11.7861 9.25879 11.8281C9.00192 11.8701 8.73513 11.8489 8.49316 11.7666C8.25131 11.6843 8.0449 11.5449 7.89941 11.3662C7.75398 11.1875 7.67585 10.9776 7.67578 10.7627C7.67048 10.5832 7.57941 10.4125 7.42285 10.2871C7.26631 10.1617 7.05662 10.0908 6.83789 10.0908C6.61916 10.0908 6.40948 10.1617 6.25293 10.2871C6.09637 10.4125 6.0053 10.5832 6 10.7627C6.00146 11.2964 6.21375 11.8157 6.60449 12.2422C6.99529 12.6686 7.54382 12.9797 8.16797 13.1289V14.3125C8.16808 14.4948 8.25606 14.6699 8.41309 14.7988C8.57022 14.9278 8.78363 15 9.00586 15C9.22809 15 9.44149 14.9278 9.59863 14.7988C9.75566 14.6699 9.84364 14.4948 9.84375 14.3125V13.1289C10.5302 12.957 11.1189 12.589 11.5039 12.0918C11.8889 11.5945 12.0443 11.0002 11.9424 10.417C11.8404 9.83398 11.4878 9.30039 10.9482 8.91211C10.4085 8.52374 9.71766 8.30639 9 8.2998C8.73927 8.29885 8.4847 8.23396 8.26855 8.11426C8.0525 7.99456 7.88481 7.82501 7.78613 7.62695C7.68748 7.42895 7.66198 7.21159 7.71387 7.00195C7.76587 6.79222 7.89295 6.59989 8.07812 6.44922C8.26332 6.29854 8.49893 6.1961 8.75488 6.15527C9.01069 6.11454 9.27532 6.137 9.51562 6.21973C9.75607 6.30252 9.96157 6.44162 10.1055 6.62012C10.2493 6.79861 10.3254 7.00863 10.3242 7.22266C10.3285 7.40265 10.4186 7.5741 10.5752 7.7002C10.7319 7.82638 10.9426 7.89746 11.1621 7.89746C11.3816 7.89746 11.5923 7.82638 11.749 7.7002C11.9056 7.5741 11.9957 7.40266 12 7.22266C11.9971 6.69057 11.7857 6.17316 11.3975 5.74707C11.0092 5.32098 10.4647 5.00808 9.84375 4.85547V3.68164C9.84175 3.50038 9.7525 3.32687 9.5957 3.19922C9.43879 3.07157 9.22678 3 9.00586 3Z" fill="white"/>
<path d="M4 25.8299C4 25.3487 4.34274 24.9357 4.81571 24.8471L10.8157 23.7221C11.4311 23.6067 12 24.0788 12 24.7049V37H4V25.8299Z" fill="white"/>
<path d="M13 24.2352C13 23.7978 13.2842 23.4112 13.7017 23.2807L19.7017 21.4057C20.3457 21.2045 21 21.6856 21 22.3602V37H13V24.2352Z" fill="white"/>
<path d="M22 21.618C22 21.2393 22.214 20.893 22.5528 20.7236L28.5528 17.7236C29.2177 17.3912 30 17.8747 30 18.618V37H22V21.618Z" fill="white"/>
<path d="M31 17.3579C31 16.9829 31.2098 16.6394 31.5434 16.4682L37.5434 13.3892C38.2089 13.0477 39 13.5309 39 14.2789V36.9999H31V17.3579Z" fill="white"/>
<rect x="2" y="38" width="39" height="1" rx="0.5" fill="white"/>
</svg>
