<svg width="33" height="33" viewBox="0 0 33 33" fill="none" xmlns="http://www.w3.org/2000/svg">
<path d="M11.1863 16.1255C12.0889 16.1255 12.8233 15.3911 12.8233 14.4885C12.8233 13.586 12.0889 12.8516 11.1863 12.8516C10.2837 12.8516 9.55493 13.586 9.55493 14.4885C9.55493 15.3911 10.2893 16.1255 11.1863 16.1255Z" fill="url(#paint0_linear_79_16173)"/>
<path d="M15.8777 22.1958C16.7803 22.1958 17.5147 21.4614 17.5147 20.5588C17.5147 19.6563 16.7803 18.9219 15.8777 18.9219C14.9751 18.9219 14.2463 19.6563 14.2463 20.5588C14.2463 21.4614 14.9807 22.1958 15.8777 22.1958Z" fill="url(#paint1_linear_79_16173)"/>
<path d="M21.8716 28.2739C22.7686 28.2739 23.503 27.5395 23.503 26.637C23.503 25.7344 22.7686 25 21.8716 25C20.969 25 20.2346 25.7344 20.2346 26.637C20.2346 27.5395 20.969 28.2739 21.8716 28.2739Z" fill="url(#paint2_linear_79_16173)"/>
<path d="M0.461182 29.7466C0.461182 31.2827 1.71133 32.5384 3.253 32.5384H29.7528C31.2889 32.5384 32.5447 31.2883 32.5447 29.7466V8.57812H0.461182V29.7466ZM5.77012 13.7862H8.248C8.56194 12.4519 9.75603 11.4484 11.1856 11.4484C12.6151 11.4484 13.8148 12.4463 14.1288 13.7862H27.2301C27.6169 13.7862 27.9253 14.1001 27.9253 14.4813C27.9253 14.8625 27.6113 15.1765 27.2301 15.1765H14.1288C13.8092 16.5107 12.6151 17.5142 11.1856 17.5142C9.75603 17.5142 8.56194 16.5163 8.248 15.1765H5.77012C5.3833 15.1765 5.07497 14.8625 5.07497 14.4813C5.07497 14.1001 5.3833 13.7862 5.77012 13.7862ZM5.77012 19.8631H12.9459C13.2598 18.5289 14.4539 17.5254 15.8835 17.5254C17.313 17.5254 18.5127 18.5233 18.8266 19.8631H27.2357C27.6225 19.8631 27.9309 20.1771 27.9309 20.5583C27.9309 20.9451 27.6169 21.2534 27.2357 21.2534H18.8266C18.5071 22.5877 17.313 23.5912 15.8835 23.5912C14.4539 23.5912 13.2598 22.5933 12.9459 21.2534H5.77012C5.3833 21.2534 5.07497 20.9395 5.07497 20.5583C5.06936 20.1715 5.3833 19.8631 5.77012 19.8631ZM5.77012 25.9345H18.9275C19.2471 24.6002 20.4412 23.5968 21.8707 23.5968C23.3003 23.5968 24.4944 24.5946 24.8083 25.9345H27.2301C27.6169 25.9345 27.9253 26.2484 27.9253 26.6296C27.9253 27.0165 27.6113 27.3248 27.2301 27.3248H24.8083C24.4944 28.659 23.3003 29.6625 21.8707 29.6625C20.4412 29.6625 19.2415 28.6646 18.9275 27.3248H5.77012C5.3833 27.3248 5.07497 27.0109 5.07497 26.6296C5.06936 26.2484 5.3833 25.9345 5.77012 25.9345Z" fill="url(#paint3_linear_79_16173)"/>
<path d="M29.7472 0.460938H3.253C1.71694 0.460938 0.461182 1.71109 0.461182 3.25276V7.1826H32.5391V3.25276C32.5391 1.71109 31.2889 0.460938 29.7472 0.460938ZM4.34058 4.08806C4.30694 4.17776 4.25648 4.25064 4.19482 4.31791C4.12755 4.37957 4.05467 4.43003 3.96497 4.46367C3.88088 4.4973 3.79118 4.51973 3.70148 4.51973C3.52209 4.51973 3.33709 4.44124 3.20815 4.31791C3.14648 4.25064 3.09603 4.17776 3.06239 4.08806C3.02876 4.00397 3.00633 3.91427 3.00633 3.82457C3.00633 3.64518 3.08482 3.46018 3.20815 3.33124C3.26982 3.26397 3.3427 3.21351 3.43239 3.17988C3.60058 3.1126 3.79679 3.1126 3.96497 3.17988C4.05467 3.21351 4.12755 3.26397 4.19482 3.32563C4.31815 3.46018 4.39664 3.63957 4.39664 3.81897C4.39664 3.91427 4.37421 4.00397 4.34058 4.08806ZM7.67058 4.31791C7.54724 4.44124 7.36224 4.51973 7.18285 4.51973C6.99224 4.51973 6.81845 4.44124 6.68952 4.31791C6.55497 4.18336 6.4877 4.00397 6.4877 3.82457C6.4877 3.64518 6.55497 3.46018 6.68952 3.33124C6.94739 3.07336 7.4127 3.07336 7.67058 3.33124C7.70421 3.36488 7.73224 3.39851 7.76027 3.43776C7.7827 3.477 7.79952 3.52185 7.82194 3.56109C7.83315 3.60033 7.84997 3.64518 7.86118 3.68442C7.86679 3.73488 7.87239 3.77973 7.87239 3.82457C7.88361 4.00397 7.80512 4.18336 7.67058 4.31791ZM11.1575 4.31791C11.023 4.44124 10.8436 4.51973 10.6642 4.51973C10.4848 4.51973 10.2998 4.44124 10.1709 4.31791C10.0475 4.18336 9.96906 4.00397 9.96906 3.82457C9.96906 3.64518 10.0475 3.46018 10.1709 3.33124C10.4344 3.07336 10.8941 3.07336 11.1632 3.33124C11.2865 3.46579 11.365 3.64518 11.365 3.82457C11.3594 4.00397 11.2865 4.18336 11.1575 4.31791ZM29.4277 4.51973H17.7559C17.3691 4.51973 17.0607 4.20579 17.0607 3.82457C17.0607 3.44336 17.3747 3.12942 17.7559 3.12942H29.4277C29.8145 3.12942 30.1228 3.44336 30.1228 3.82457C30.1228 4.20579 29.8145 4.51973 29.4277 4.51973Z" fill="url(#paint4_linear_79_16173)"/>
<defs>
<linearGradient id="paint0_linear_79_16173" x1="11.1891" y1="12.8516" x2="11.1891" y2="16.1255" gradientUnits="userSpaceOnUse">
<stop stop-color="#262250"/>
<stop offset="1" stop-color="#E40D25"/>
</linearGradient>
<linearGradient id="paint1_linear_79_16173" x1="15.8805" y1="18.9219" x2="15.8805" y2="22.1958" gradientUnits="userSpaceOnUse">
<stop stop-color="#262250"/>
<stop offset="1" stop-color="#E40D25"/>
</linearGradient>
<linearGradient id="paint2_linear_79_16173" x1="21.8688" y1="25" x2="21.8688" y2="28.2739" gradientUnits="userSpaceOnUse">
<stop stop-color="#262250"/>
<stop offset="1" stop-color="#E40D25"/>
</linearGradient>
<linearGradient id="paint3_linear_79_16173" x1="16.5029" y1="8.57812" x2="16.5029" y2="32.5384" gradientUnits="userSpaceOnUse">
<stop stop-color="#262250"/>
<stop offset="1" stop-color="#E40D25"/>
</linearGradient>
<linearGradient id="paint4_linear_79_16173" x1="16.5001" y1="0.460937" x2="16.5001" y2="7.1826" gradientUnits="userSpaceOnUse">
<stop stop-color="#262250"/>
<stop offset="1" stop-color="#E40D25"/>
</linearGradient>
</defs>
</svg>
