<svg width="37" height="37" viewBox="0 0 37 37" fill="none" xmlns="http://www.w3.org/2000/svg">
<path d="M7.18112 34.9314L14.4539 27.6586L17.7261 30.9308C18.6993 31.9009 20.0173 32.4457 21.3914 32.4457C22.7655 32.4457 24.0836 31.9009 25.0567 30.9308L25.6811 30.3064C25.8965 30.0897 26.0173 29.7967 26.0173 29.4912C26.0173 29.1858 25.8965 28.8927 25.6811 28.6761L8.33737 11.3323C8.12073 11.117 7.82768 10.9961 7.52221 10.9961C7.21675 10.9961 6.9237 11.117 6.70706 11.3323L6.08268 11.9567C5.11254 12.9298 4.56778 14.2479 4.56778 15.622C4.56778 16.9961 5.11254 18.3142 6.08268 19.2873L9.35487 22.5479L2.07049 29.8208C1.4303 30.5041 1.08091 31.4097 1.09618 32.3459C1.11145 33.2822 1.49018 34.1759 2.15232 34.838C2.81445 35.5001 3.7081 35.8789 4.64438 35.8941C5.58066 35.9094 6.48618 35.56 7.16956 34.9198L7.18112 34.9314Z" fill="url(#paint0_linear_79_16180)"/>
<path d="M25.9116 5.78217L17.575 14.1187C17.3538 14.3082 17.0693 14.4071 16.7783 14.3959C16.4873 14.3847 16.2112 14.264 16.0053 14.0581C15.7994 13.8522 15.6788 13.5761 15.6675 13.2851C15.6563 12.9941 15.7553 12.7096 15.9447 12.4884L24.2812 4.15185L21.6334 1.49248C21.4168 1.27713 21.1237 1.15625 20.8183 1.15625C20.5128 1.15625 20.2198 1.27713 20.0031 1.49248L10.4062 11.0894L25.9116 26.5947L35.4969 17.0094C35.7122 16.7927 35.8331 16.4997 35.8331 16.1942C35.8331 15.8887 35.7122 15.5957 35.4969 15.379L25.9116 5.78217Z" fill="url(#paint1_linear_79_16180)"/>
<defs>
<linearGradient id="paint0_linear_79_16180" x1="13.5565" y1="10.9961" x2="13.5565" y2="35.8946" gradientUnits="userSpaceOnUse">
<stop stop-color="#262250"/>
<stop offset="1" stop-color="#E40D25"/>
</linearGradient>
<linearGradient id="paint1_linear_79_16180" x1="23.1197" y1="1.15625" x2="23.1197" y2="26.5947" gradientUnits="userSpaceOnUse">
<stop stop-color="#262250"/>
<stop offset="1" stop-color="#E40D25"/>
</linearGradient>
</defs>
</svg>
