<svg width="37" height="37" viewBox="0 0 37 37" fill="none" xmlns="http://www.w3.org/2000/svg">
<path fill-rule="evenodd" clip-rule="evenodd" d="M17.4035 17.4035L16.494 18.313C16.2257 18.5814 15.7852 18.5814 15.5148 18.313L14.8306 17.6268C14.0891 18.0796 13.2922 18.4053 12.4728 18.6039V19.5729C12.4728 19.9538 12.1614 20.2652 11.7804 20.2652H9.20953C8.82645 20.2652 8.51715 19.9538 8.51715 19.5729V18.6039C7.69571 18.4052 6.89884 18.0795 6.15732 17.6288L5.47311 18.313C5.20269 18.5814 4.76433 18.5814 4.49391 18.313L2.67484 16.494C2.40652 16.2236 2.40652 15.7852 2.67484 15.5148L3.36107 14.8306C2.90833 14.0891 2.58263 13.2922 2.38397 12.4707H1.41503C1.03405 12.4707 0.722656 12.1614 0.722656 11.7804V9.20751C0.722656 8.82652 1.03405 8.51513 1.41503 8.51513H2.38397C2.5827 7.69571 2.9084 6.89891 3.35905 6.15732L2.67484 5.47311C2.40652 5.20269 2.40652 4.7623 2.67484 4.49391L4.49391 2.67484C4.76433 2.40652 5.20269 2.40652 5.47311 2.67484L6.15732 3.35905C6.89884 2.9084 7.69571 2.5827 8.51715 2.38397V1.41503C8.51715 1.03405 8.82645 0.722656 9.20953 0.722656H11.7804C12.1614 0.722656 12.4728 1.03405 12.4728 1.41503V2.38397C13.2922 2.5827 14.089 2.9084 14.8306 3.35905L15.5148 2.67484C15.7852 2.40652 16.2256 2.40652 16.494 2.67484L18.313 4.49391C18.5835 4.76223 18.5835 5.20269 18.313 5.47311L17.6288 6.15732C18.0795 6.89884 18.4052 7.69571 18.6039 8.51513H19.5729C19.9538 8.51513 20.2652 8.82652 20.2652 9.20751V11.7804C20.2652 12.1614 19.9538 12.4707 19.5729 12.4707H18.6039C18.4052 13.2922 18.0795 14.0891 17.6288 14.8306L18.313 15.5148C18.5835 15.7852 18.5835 16.2236 18.313 16.494L17.4035 17.4035ZM10.494 5.45678C13.2758 5.45678 15.5312 7.71212 15.5312 10.494C15.5312 13.2758 13.2758 15.5312 10.494 15.5312C7.71212 15.5312 5.45678 13.2758 5.45678 10.494C5.45678 7.71212 7.71212 5.45678 10.494 5.45678ZM33.4164 33.4144L32.5069 34.3239C32.2365 34.5943 31.7961 34.5943 31.5277 34.3239L30.8435 33.6397C30.102 34.0904 29.3051 34.4161 28.4836 34.6148V35.5858C28.4836 35.9667 28.1722 36.2761 27.7913 36.2761H25.2204C24.8394 36.2761 24.528 35.9667 24.528 35.5858V34.6168C23.7066 34.4161 22.9097 34.0904 22.1702 33.6397L21.484 34.3239C21.2157 34.5943 20.7752 34.5943 20.5069 34.3239L18.6878 32.507C18.4174 32.2365 18.4174 31.7962 18.6878 31.5278L19.372 30.8415C18.9214 30.1 18.5957 29.3052 18.3969 28.4837H17.428C17.0449 28.4837 16.7356 28.1723 16.7356 27.7913V25.2205C16.7356 24.8395 17.0449 24.5281 17.428 24.5281H18.3969C18.5957 23.7067 18.9214 22.9098 19.372 22.1683L18.6878 21.4841C18.4174 21.2157 18.4174 20.7753 18.6878 20.5049L20.5069 18.6879C20.7752 18.4175 21.2157 18.4175 21.484 18.6879L22.1702 19.3721C22.9097 18.9194 23.7066 18.5958 24.528 18.395V17.4261C24.528 17.0451 24.8394 16.7337 25.2204 16.7337H27.7913C28.1722 16.7337 28.4836 17.0451 28.4836 17.4261V18.395C29.3051 18.5958 30.102 18.9215 30.8435 19.3721L31.5277 18.6879C31.796 18.4175 32.2365 18.4175 32.5069 18.6879L34.3239 20.5049C34.5943 20.7753 34.5943 21.2157 34.3239 21.4841L33.6396 22.1683C34.0923 22.9098 34.418 23.7067 34.6168 24.5281H35.5857C35.9667 24.5281 36.2781 24.8395 36.2781 25.2205V27.7913C36.2781 28.1723 35.9667 28.4837 35.5857 28.4837H34.6168C34.416 29.3052 34.0923 30.0999 33.6396 30.8415L34.3239 31.5278C34.5943 31.7961 34.5943 32.2365 34.3239 32.507L33.4164 33.4145V33.4144ZM26.5069 21.4677C29.2887 21.4677 31.5441 23.723 31.5441 26.5049C31.5441 29.2867 29.2887 31.5441 26.5069 31.5441C23.725 31.5441 21.4677 29.2888 21.4677 26.5049C21.4677 23.721 23.7251 21.4677 26.5069 21.4677ZM29.7025 13.3496C29.5324 13.1795 29.5324 12.9051 29.7025 12.737C29.8725 12.567 30.147 12.567 30.315 12.737L31.0033 13.4233V9.91015C31.0033 7.64043 29.1453 5.78046 26.8756 5.78046H22.3137C22.074 5.78046 21.8815 5.58787 21.8815 5.34823C21.8815 5.1086 22.074 4.91399 22.3137 4.91399H26.8756C29.6246 4.91399 31.8698 7.16116 31.8698 9.91022V13.4233L32.558 12.7371C32.7281 12.5671 33.0026 12.5671 33.1726 12.7371C33.3405 12.9051 33.3405 13.1796 33.1726 13.3496C32.978 13.5442 31.7796 14.759 31.6752 14.8327C31.542 14.927 31.3331 14.927 31.1979 14.8327C31.0955 14.761 29.8971 13.5442 29.7025 13.3496V13.3496ZM5.25393 22.2256C5.3973 22.0761 5.63903 22.0515 5.80293 22.1662C5.90533 22.24 7.10371 23.4567 7.29832 23.6493C7.46627 23.8193 7.46627 24.0938 7.29832 24.2638C7.12828 24.4318 6.85382 24.4318 6.6858 24.2638L5.99754 23.5756V27.0908C5.99754 29.3605 7.85549 31.2185 10.1252 31.2185H14.6872C14.9248 31.2185 15.1194 31.4131 15.1194 31.6507C15.1194 31.8903 14.9248 32.0849 14.6872 32.0849H10.1252C7.37615 32.0849 5.12898 29.8378 5.12898 27.0907V23.5755L4.44275 24.2638C4.27271 24.4317 3.99824 24.4317 3.8282 24.2638C3.66025 24.0937 3.66025 23.8193 3.8282 23.6492L5.25393 22.2255V22.2256Z" fill="url(#paint0_linear_79_16184)"/>
<defs>
<linearGradient id="paint0_linear_79_16184" x1="18.5004" y1="0.722656" x2="18.5004" y2="36.2761" gradientUnits="userSpaceOnUse">
<stop stop-color="#262250"/>
<stop offset="1" stop-color="#E40D25"/>
</linearGradient>
</defs>
</svg>
