<svg xmlns="http://www.w3.org/2000/svg" id="Layer_1" data-name="Layer 1" viewBox="0 0 200 200"><defs><style>.cls-1{fill:#74a340;}.cls-2{fill:#7c381a;}.cls-3{fill:#89a33c;}.cls-4{fill:#331c0e;}.cls-5{fill:#502513;}</style></defs><path class="cls-1" d="M27.25,119.13V121c0,10.19,0,20.38,0,30.58,0,1.28-.39,1.64-1.61,1.55a30.57,30.57,0,0,0-4.28,0c-1.08.07-1.39-.38-1.28-1.35,0-.13,0-.26,0-.39q0-37.52,0-75a7.13,7.13,0,0,1,.8-3,3.18,3.18,0,0,1,3.13-1.67H49.86a7.39,7.39,0,0,1,1.54.2C53.27,72.22,54,73.05,54,75v76.45c0,1.66,0,1.66-1.7,1.67-1.34,0-2.68-.09-4,0s-1.42-.39-1.42-1.48c0-9.89,0-19.78,0-29.67a11.26,11.26,0,0,1,0-1.3c.13-1.14-.25-1.58-1.49-1.56-4,.08-8,0-12.06,0Zm.09-41.64v35.8c.47,0,.85.08,1.23.08,5.62,0,11.23,0,16.85,0,1.18,0,1.45-.4,1.44-1.5q0-16.52,0-33c0-1.11-.28-1.49-1.45-1.48-5.61.06-11.23,0-16.85,0C28.18,77.41,27.8,77.46,27.34,77.49Z"></path><path class="cls-2" d="M96.16,100.08c-.52,3.09-1,6-1.5,9-5.26-.56-10.41-1.08-15.55-1.67a36.79,36.79,0,0,1-6.12-1c-3-.87-5.52-2.52-6.32-5.86a9.11,9.11,0,0,1,.53-5.33A29.09,29.09,0,0,1,74,85.06c10.73-11,21.56-21.81,32.35-32.69,1.31-1.32,2.66-2.6,4-3.89,5.51-5.28,13-4.72,17.58,1.37a64.35,64.35,0,0,1,4.25,6.46l-1-.54c-5.88-3.16-11.7-3.07-16.71,2-1,1-2,1.89-3,2.87Q96.38,76.07,81.35,91.55c-1.27,1.31-2.53,2.85-1.79,4.82s2.67,2.19,4.43,2.41c3.47.42,7,.71,10.43,1.06C94.93,99.89,95.43,100,96.16,100.08Z"></path><path class="cls-1" d="M114.32,43.06c2.38-2.3,4.53-4.9,7.18-6.83,5.08-3.69,10.91-2.65,14.58,2,11,13.88,21.69,28,32.43,42a26.38,26.38,0,0,1,5,10.29c1.49,6.71-2.38,10-7.79,10.37-6.62.45-13.29.27-19.94.31-.31,0-.86-.37-.88-.61-.22-2.86-.36-5.74-.52-8.67h6.2a76,76,0,0,0,8.13-.16c2.7-.31,3.59-2.2,2.57-4.71a7.72,7.72,0,0,0-.91-1.7c-9.58-12.67-19.1-25.4-28.82-38-4.31-5.57-9.49-6.73-16.13-4.24-.27.1-.55.18-.82.27Z"></path><path class="cls-2" d="M135.6,153.62h-4.24V132.05L131,132c-2.42,5.91-4.83,11.82-7.35,18-2.44-6.15-4.8-12-7.15-17.95l-.26,0v21.55H112v-38c.12-.06.19-.13.26-.13,3-.16,3-.16,4,2.57l7,18.78c.2.52.41,1,.71,1.82.29-.74.49-1.24.67-1.75,2.35-6.62,4.74-13.23,7-19.88.44-1.29,1-1.8,2.37-1.59a10.84,10.84,0,0,0,1.62,0Z"></path><path class="cls-2" d="M161.94,115.44c2.29-.14,2.29-.14,3.09,1.73,3.08,7.17,9.57,22.23,10,22.52V115.47h4.19v38c-2.05.44-2.11.42-3-1.37-3.06-6.33-9.6-19.81-10.1-20.19v21.66h-4.24Z"></path><path class="cls-1" d="M75.34,133.91c2,6.45,3.89,12.68,5.87,19.17-1.11,0-2.08,0-3,0a1,1,0,0,1-.69-.61q-3.66-10.68-7.27-21.39s0-.08.07-.31c1.48,0,3-.05,4.54,0,1,0,1.39-.2,1.37-1.27q-.09-5.05,0-10.1c0-1-.34-1.34-1.35-1.3-2,.07-4.06.1-6.08,0-1.26-.07-1.52.43-1.52,1.56,0,8.5,0,17,0,25.51,0,2.2,0,4.4,0,6.6,0,.95-.19,1.39-1.28,1.37-2.8,0-2.8,0-2.8-2.79q0-16.71,0-33.42c0-2.28-.18-2,2-2q5.7,0,11.4,0c2.38,0,3.64,1.2,3.65,3.54,0,3.84,0,7.68,0,11.52,0,.52,0,1-.1,1.55a2.36,2.36,0,0,1-2.55,2.36C77,133.93,76.27,133.91,75.34,133.91Z"></path><path class="cls-1" d="M90.84,118.1v31.8c2.68,0,5.3,0,7.92-.05.23,0,.63-.73.63-1.13.06-2.93.16-5.9.08-8.84,0-1.25.18-1.73,1.57-1.66,2.44.12,2.45,0,2.45,2.5v9.46a2.69,2.69,0,0,1-2.77,2.89c-3.89.05-7.78,0-11.67,0-1.59,0-2.27-.83-2.27-2.48V117.81a2.62,2.62,0,0,1,2.76-2.87c3.89,0,7.78,0,11.67,0a2.21,2.21,0,0,1,2.27,2.29c0,2.85,0,5.7,0,8.55,0,.8-.18,1.17-1.08,1.15-3.55-.11-2.93.52-3-2.88,0-1.64,0-3.29-.05-4.92,0-.36-.5-1-.79-1C96.05,118.07,93.51,118.1,90.84,118.1Z"></path><path class="cls-2" d="M156,150.33v3.26H143V115.46h13v3.2h-8.73v13h8.25V135h-8.23v15.35Z"></path><polygon class="cls-3" points="99.68 106.65 121.97 92.91 140.45 109.32 122.03 96.78 99.68 106.65"></polygon><polygon class="cls-4" points="107.3 106.19 130.21 93.53 147.88 110.81 130.09 97.4 107.3 106.19"></polygon><path class="cls-5" d="M26,164.35H24.79l-.49-1.26H22.07l-.46,1.26h-1.2l2.18-5.59h1.19Zm-2.08-2.21-.77-2.08-.75,2.08Z"></path><path class="cls-5" d="M37.36,164.35H36.29v-4h1v.58a1.77,1.77,0,0,1,.46-.54.83.83,0,0,1,.47-.13,1.41,1.41,0,0,1,.7.2l-.33.94a.93.93,0,0,0-.51-.18.57.57,0,0,0-.38.13.86.86,0,0,0-.24.44,6.39,6.39,0,0,0-.09,1.36Z"></path><path class="cls-5" d="M51,160.3v.86h-.74v1.63a5,5,0,0,0,0,.58.26.26,0,0,0,.1.13.27.27,0,0,0,.18.05,1.33,1.33,0,0,0,.43-.1l.09.84a2.24,2.24,0,0,1-.84.16,1.38,1.38,0,0,1-.52-.1.71.71,0,0,1-.34-.25.9.9,0,0,1-.16-.42,6.08,6.08,0,0,1,0-.76v-1.76h-.49v-.86h.49v-.8l1.07-.63v1.43Z"></path><path class="cls-5" d="M73,162.27a2.14,2.14,0,0,1,.27-1,1.74,1.74,0,0,1,.75-.77,2.23,2.23,0,0,1,1.07-.26,2,2,0,0,1,1.51.6,2.25,2.25,0,0,1,0,3,2,2,0,0,1-1.49.61,2.31,2.31,0,0,1-1.06-.26,1.65,1.65,0,0,1-.77-.73A2.43,2.43,0,0,1,73,162.27Zm1.1.06a1.33,1.33,0,0,0,.29.92.91.91,0,0,0,.7.32.93.93,0,0,0,.71-.32,1.62,1.62,0,0,0,0-1.85.93.93,0,0,0-.71-.32.91.91,0,0,0-.7.32A1.38,1.38,0,0,0,74.14,162.33Z"></path><path class="cls-5" d="M87.31,160.3h.6V160a2.07,2.07,0,0,1,.11-.76.92.92,0,0,1,.4-.41,1.59,1.59,0,0,1,.74-.16,3,3,0,0,1,.89.14l-.14.75a2.18,2.18,0,0,0-.49-.06.42.42,0,0,0-.34.11.67.67,0,0,0-.1.42v.28h.8v.85H89v3.2H87.91v-3.2h-.6Z"></path><path class="cls-5" d="M112,164.35v-5.59h1.08v5.59Z"></path><path class="cls-5" d="M123.87,159.75v-1h1.07v1Zm0,4.6v-4h1.07v4Z"></path><path class="cls-5" d="M136.87,164.35l-1.63-4h1.12l.76,2.07.23.69c.06-.18.09-.29.11-.35s.07-.22.11-.34l.78-2.07h1.1l-1.62,4Z"></path><path class="cls-5" d="M149.82,159.75v-1h1.07v1Zm0,4.6v-4h1.07v4Z"></path><path class="cls-5" d="M165.39,164.35h-1.07v-2.06a3,3,0,0,0-.07-.85.63.63,0,0,0-.22-.31.64.64,0,0,0-.37-.1.84.84,0,0,0-.5.15.84.84,0,0,0-.31.41,3.76,3.76,0,0,0-.08.93v1.83H161.7v-4h1v.6a1.6,1.6,0,0,1,1.33-.69,1.54,1.54,0,0,1,.65.13,1.07,1.07,0,0,1,.44.32,1,1,0,0,1,.21.45,3.32,3.32,0,0,1,.06.72Z"></path><path class="cls-5" d="M176.1,164.62l1.22.15a.39.39,0,0,0,.15.29.77.77,0,0,0,.48.12,1.18,1.18,0,0,0,.63-.13.5.5,0,0,0,.21-.27,1.71,1.71,0,0,0,.05-.49v-.59a1.43,1.43,0,0,1-1.21.65,1.5,1.5,0,0,1-1.3-.69,2.31,2.31,0,0,1-.37-1.35,2.21,2.21,0,0,1,.49-1.56,1.57,1.57,0,0,1,1.22-.54,1.49,1.49,0,0,1,1.24.66v-.57h1v3.64a3.52,3.52,0,0,1-.12,1.07,1.2,1.2,0,0,1-.33.56,1.42,1.42,0,0,1-.57.32,3.25,3.25,0,0,1-.9.11,2.37,2.37,0,0,1-1.46-.35,1.12,1.12,0,0,1-.43-.9Zm1-2.38a1.46,1.46,0,0,0,.25.95.76.76,0,0,0,.61.3.87.87,0,0,0,.67-.31,1.35,1.35,0,0,0,.27-.91,1.41,1.41,0,0,0-.26-.93.81.81,0,0,0-.66-.31.77.77,0,0,0-.63.3A1.39,1.39,0,0,0,177.06,162.24Z"></path><rect class="cls-1" x="20.09" y="146.02" width="7.18" height="7.1"></rect><rect class="cls-1" x="46.83" y="146.16" width="7.1" height="7.1"></rect><rect class="cls-1" x="99.43" y="120.88" width="4.06" height="6.09"></rect><polygon class="cls-2" points="117.42 121.22 111.97 121.41 111.97 115.32 115.35 115.32 117.42 121.22"></polygon><polygon class="cls-2" points="130.15 121.22 135.6 121.41 135.6 115.32 132.22 115.32 130.15 121.22"></polygon><polygon class="cls-2" points="179.25 147.5 174.22 147.88 177.06 153.73 179.25 153.73 179.25 147.5"></polygon><polygon class="cls-2" points="166.79 121.27 161.94 121.47 161.94 115.39 164.32 115.39 166.79 121.27"></polygon><rect class="cls-1" x="99.47" y="138.03" width="4.02" height="6.09"></rect><rect class="cls-1" x="63.19" y="146.16" width="4.07" height="7.1"></rect><polygon class="cls-1" points="81.42 153.26 77.71 153.26 75.46 146.53 78.87 145.43 81.42 153.26"></polygon></svg>