<svg width="1240" height="524" viewBox="0 0 1240 524" fill="none" xmlns="http://www.w3.org/2000/svg">
<rect width="1241" height="524" fill="white"/>
<circle cx="618.271" cy="258.608" r="96.0646" fill="#262250"/>
<circle cx="619.187" cy="258.566" r="127.555" stroke="black" stroke-width="0.955466" stroke-linecap="round" stroke-dasharray="4.78 4.78"/>
<line x1="725.44" y1="186.996" x2="774.169" y2="151.644" stroke="white" stroke-width="0.955466"/>
<line x1="724.875" y1="186.226" x2="774.559" y2="149.918" stroke="black" stroke-width="2.8664"/>
<line x1="525.306" y1="172.379" x2="467.978" y2="138.937" stroke="black" stroke-width="2.8664"/>
<path d="M615.512 232.152L611.12 249H606.152L603.464 237.912L600.68 249H595.712L591.44 232.152H595.832L598.256 244.416L601.256 232.152H605.768L608.648 244.416L611.096 232.152H615.512ZM630.194 242.088C630.194 242.472 630.17 242.872 630.122 243.288H620.834C620.898 244.12 621.162 244.76 621.626 245.208C622.106 245.64 622.69 245.856 623.378 245.856C624.402 245.856 625.114 245.424 625.514 244.56H629.882C629.658 245.44 629.25 246.232 628.658 246.936C628.082 247.64 627.354 248.192 626.474 248.592C625.594 248.992 624.61 249.192 623.522 249.192C622.21 249.192 621.042 248.912 620.018 248.352C618.994 247.792 618.194 246.992 617.618 245.952C617.042 244.912 616.754 243.696 616.754 242.304C616.754 240.912 617.034 239.696 617.594 238.656C618.17 237.616 618.97 236.816 619.994 236.256C621.018 235.696 622.194 235.416 623.522 235.416C624.818 235.416 625.97 235.688 626.978 236.232C627.986 236.776 628.77 237.552 629.33 238.56C629.906 239.568 630.194 240.744 630.194 242.088ZM625.994 241.008C625.994 240.304 625.754 239.744 625.274 239.328C624.794 238.912 624.194 238.704 623.474 238.704C622.786 238.704 622.202 238.904 621.722 239.304C621.258 239.704 620.97 240.272 620.858 241.008H625.994ZM636.463 237.504C636.847 236.88 637.399 236.376 638.119 235.992C638.839 235.608 639.663 235.416 640.591 235.416C641.695 235.416 642.695 235.696 643.591 236.256C644.487 236.816 645.191 237.616 645.703 238.656C646.231 239.696 646.495 240.904 646.495 242.28C646.495 243.656 646.231 244.872 645.703 245.928C645.191 246.968 644.487 247.776 643.591 248.352C642.695 248.912 641.695 249.192 640.591 249.192C639.647 249.192 638.823 249.008 638.119 248.64C637.415 248.256 636.863 247.752 636.463 247.128V249H632.359V231.24H636.463V237.504ZM642.319 242.28C642.319 241.256 642.031 240.456 641.455 239.88C640.895 239.288 640.199 238.992 639.367 238.992C638.551 238.992 637.855 239.288 637.279 239.88C636.719 240.472 636.439 241.28 636.439 242.304C636.439 243.328 636.719 244.136 637.279 244.728C637.855 245.32 638.551 245.616 639.367 245.616C640.183 245.616 640.879 245.32 641.455 244.728C642.031 244.12 642.319 243.304 642.319 242.28ZM543.398 268.152C545.174 268.152 546.726 268.504 548.054 269.208C549.382 269.912 550.406 270.904 551.126 272.184C551.862 273.448 552.23 274.912 552.23 276.576C552.23 278.224 551.862 279.688 551.126 280.968C550.406 282.248 549.374 283.24 548.03 283.944C546.702 284.648 545.158 285 543.398 285H537.086V268.152H543.398ZM543.134 281.448C544.686 281.448 545.894 281.024 546.758 280.176C547.622 279.328 548.054 278.128 548.054 276.576C548.054 275.024 547.622 273.816 546.758 272.952C545.894 272.088 544.686 271.656 543.134 271.656H541.19V281.448H543.134ZM567.147 278.088C567.147 278.472 567.123 278.872 567.075 279.288H557.787C557.851 280.12 558.115 280.76 558.579 281.208C559.059 281.64 559.643 281.856 560.331 281.856C561.355 281.856 562.067 281.424 562.467 280.56H566.835C566.611 281.44 566.203 282.232 565.611 282.936C565.035 283.64 564.307 284.192 563.427 284.592C562.547 284.992 561.563 285.192 560.475 285.192C559.163 285.192 557.995 284.912 556.971 284.352C555.947 283.792 555.147 282.992 554.571 281.952C553.995 280.912 553.707 279.696 553.707 278.304C553.707 276.912 553.987 275.696 554.547 274.656C555.123 273.616 555.923 272.816 556.947 272.256C557.971 271.696 559.147 271.416 560.475 271.416C561.771 271.416 562.923 271.688 563.931 272.232C564.939 272.776 565.723 273.552 566.283 274.56C566.859 275.568 567.147 276.744 567.147 278.088ZM562.947 277.008C562.947 276.304 562.707 275.744 562.227 275.328C561.747 274.912 561.147 274.704 560.427 274.704C559.739 274.704 559.155 274.904 558.675 275.304C558.211 275.704 557.923 276.272 557.811 277.008H562.947ZM575.336 281.16L578.24 271.608H582.608L577.856 285H572.792L568.04 271.608H572.432L575.336 281.16ZM596.96 278.088C596.96 278.472 596.936 278.872 596.888 279.288H587.6C587.664 280.12 587.928 280.76 588.392 281.208C588.872 281.64 589.456 281.856 590.144 281.856C591.168 281.856 591.88 281.424 592.28 280.56H596.648C596.424 281.44 596.016 282.232 595.424 282.936C594.848 283.64 594.12 284.192 593.24 284.592C592.36 284.992 591.376 285.192 590.288 285.192C588.976 285.192 587.808 284.912 586.784 284.352C585.76 283.792 584.96 282.992 584.384 281.952C583.808 280.912 583.52 279.696 583.52 278.304C583.52 276.912 583.8 275.696 584.36 274.656C584.936 273.616 585.736 272.816 586.76 272.256C587.784 271.696 588.96 271.416 590.288 271.416C591.584 271.416 592.736 271.688 593.744 272.232C594.752 272.776 595.536 273.552 596.096 274.56C596.672 275.568 596.96 276.744 596.96 278.088ZM592.76 277.008C592.76 276.304 592.52 275.744 592.04 275.328C591.56 274.912 590.96 274.704 590.24 274.704C589.552 274.704 588.968 274.904 588.488 275.304C588.024 275.704 587.736 276.272 587.624 277.008H592.76ZM603.229 267.24V285H599.125V267.24H603.229ZM612.299 285.192C610.987 285.192 609.803 284.912 608.747 284.352C607.707 283.792 606.883 282.992 606.275 281.952C605.683 280.912 605.387 279.696 605.387 278.304C605.387 276.928 605.691 275.72 606.299 274.68C606.907 273.624 607.739 272.816 608.795 272.256C609.851 271.696 611.035 271.416 612.347 271.416C613.659 271.416 614.843 271.696 615.899 272.256C616.955 272.816 617.787 273.624 618.395 274.68C619.003 275.72 619.307 276.928 619.307 278.304C619.307 279.68 618.995 280.896 618.371 281.952C617.763 282.992 616.923 283.792 615.851 284.352C614.795 284.912 613.611 285.192 612.299 285.192ZM612.299 281.64C613.083 281.64 613.747 281.352 614.291 280.776C614.851 280.2 615.131 279.376 615.131 278.304C615.131 277.232 614.859 276.408 614.315 275.832C613.787 275.256 613.131 274.968 612.347 274.968C611.547 274.968 610.883 275.256 610.355 275.832C609.827 276.392 609.563 277.216 609.563 278.304C609.563 279.376 609.819 280.2 610.331 280.776C610.859 281.352 611.515 281.64 612.299 281.64ZM625.588 273.504C625.988 272.88 626.54 272.376 627.244 271.992C627.948 271.608 628.772 271.416 629.716 271.416C630.82 271.416 631.82 271.696 632.716 272.256C633.612 272.816 634.316 273.616 634.828 274.656C635.356 275.696 635.62 276.904 635.62 278.28C635.62 279.656 635.356 280.872 634.828 281.928C634.316 282.968 633.612 283.776 632.716 284.352C631.82 284.912 630.82 285.192 629.716 285.192C628.788 285.192 627.964 285 627.244 284.616C626.54 284.232 625.988 283.736 625.588 283.128V291.384H621.484V271.608H625.588V273.504ZM631.444 278.28C631.444 277.256 631.156 276.456 630.58 275.88C630.02 275.288 629.324 274.992 628.492 274.992C627.676 274.992 626.98 275.288 626.404 275.88C625.844 276.472 625.564 277.28 625.564 278.304C625.564 279.328 625.844 280.136 626.404 280.728C626.98 281.32 627.676 281.616 628.492 281.616C629.308 281.616 630.004 281.32 630.58 280.728C631.156 280.12 631.444 279.304 631.444 278.28ZM654.861 271.464C656.525 271.464 657.845 271.968 658.821 272.976C659.813 273.984 660.309 275.384 660.309 277.176V285H656.229V277.728C656.229 276.864 655.997 276.2 655.533 275.736C655.085 275.256 654.461 275.016 653.661 275.016C652.861 275.016 652.229 275.256 651.765 275.736C651.317 276.2 651.093 276.864 651.093 277.728V285H647.013V277.728C647.013 276.864 646.781 276.2 646.317 275.736C645.869 275.256 645.245 275.016 644.445 275.016C643.645 275.016 643.013 275.256 642.549 275.736C642.101 276.2 641.877 276.864 641.877 277.728V285H637.773V271.608H641.877V273.288C642.293 272.728 642.837 272.288 643.509 271.968C644.181 271.632 644.941 271.464 645.789 271.464C646.797 271.464 647.693 271.68 648.477 272.112C649.277 272.544 649.901 273.16 650.349 273.96C650.813 273.224 651.445 272.624 652.245 272.16C653.045 271.696 653.917 271.464 654.861 271.464ZM675.803 278.088C675.803 278.472 675.779 278.872 675.731 279.288H666.443C666.507 280.12 666.771 280.76 667.235 281.208C667.715 281.64 668.299 281.856 668.987 281.856C670.011 281.856 670.723 281.424 671.123 280.56H675.491C675.267 281.44 674.859 282.232 674.267 282.936C673.691 283.64 672.963 284.192 672.083 284.592C671.203 284.992 670.219 285.192 669.131 285.192C667.819 285.192 666.651 284.912 665.627 284.352C664.603 283.792 663.803 282.992 663.227 281.952C662.651 280.912 662.363 279.696 662.363 278.304C662.363 276.912 662.643 275.696 663.203 274.656C663.779 273.616 664.579 272.816 665.603 272.256C666.627 271.696 667.803 271.416 669.131 271.416C670.427 271.416 671.579 271.688 672.587 272.232C673.595 272.776 674.379 273.552 674.939 274.56C675.515 275.568 675.803 276.744 675.803 278.088ZM671.603 277.008C671.603 276.304 671.363 275.744 670.883 275.328C670.403 274.912 669.803 274.704 669.083 274.704C668.395 274.704 667.811 274.904 667.331 275.304C666.867 275.704 666.579 276.272 666.467 277.008H671.603ZM686.128 271.464C687.696 271.464 688.944 271.976 689.872 273C690.816 274.008 691.288 275.4 691.288 277.176V285H687.208V277.728C687.208 276.832 686.976 276.136 686.512 275.64C686.048 275.144 685.424 274.896 684.64 274.896C683.856 274.896 683.232 275.144 682.768 275.64C682.304 276.136 682.072 276.832 682.072 277.728V285H677.968V271.608H682.072V273.384C682.488 272.792 683.048 272.328 683.752 271.992C684.456 271.64 685.248 271.464 686.128 271.464ZM701.604 281.52V285H699.516C698.028 285 696.868 284.64 696.036 283.92C695.204 283.184 694.788 281.992 694.788 280.344V275.016H693.156V271.608H694.788V268.344H698.892V271.608H701.58V275.016H698.892V280.392C698.892 280.792 698.988 281.08 699.18 281.256C699.372 281.432 699.692 281.52 700.14 281.52H701.604Z" fill="white"/>
<g filter="url(#filter0_d_79_654)">
<path d="M215.024 174.963C264.955 174.963 305.315 212.67 305.315 259.044C305.315 305.418 264.956 343.125 215.024 343.125C165.093 343.125 124.732 305.418 124.732 259.044C124.733 212.67 165.093 174.963 215.024 174.963Z" stroke="black" stroke-width="1.91093"/>
<path d="M225.469 350.466C212.553 351.504 199.558 349.877 187.316 345.689C175.074 341.501 163.854 334.844 154.374 326.144C144.893 317.444 137.361 306.891 132.258 295.162C127.155 283.432 124.594 270.783 124.738 258.024C124.883 245.264 127.729 232.674 133.096 221.06C138.463 209.445 146.232 199.06 155.907 190.57C165.582 182.08 176.95 175.671 189.283 171.752C201.617 167.834 214.645 166.492 227.535 167.813L226.244 180.025C215.08 178.88 203.795 180.042 193.112 183.436C182.43 186.83 172.584 192.382 164.204 199.736C155.824 207.089 149.095 216.084 144.446 226.144C139.797 236.204 137.332 247.109 137.207 258.16C137.082 269.212 139.3 280.168 143.72 290.327C148.14 300.487 154.664 309.627 162.876 317.163C171.087 324.698 180.805 330.464 191.408 334.092C202.012 337.719 213.267 339.128 224.455 338.229L225.469 350.466Z" fill="url(#paint0_linear_79_654)"/>
<g filter="url(#filter1_d_79_654)">
<circle cx="141.454" cy="258.566" r="34.8745" fill="white"/>
<circle cx="141.454" cy="258.566" r="25.3198" fill="url(#paint1_linear_79_654)"/>
<path d="M141 261.672C142.476 261.672 143.672 260.476 143.672 259C143.672 257.524 142.476 256.328 141 256.328C139.524 256.328 138.328 257.524 138.328 259C138.328 260.476 139.524 261.672 141 261.672Z" fill="white"/>
<path d="M151.148 254.594C150.633 254.406 150.094 254.219 149.531 254.055C149.672 253.492 149.789 252.93 149.883 252.391C150.375 249.297 149.836 247.117 148.336 246.273C147.891 246.016 147.398 245.898 146.836 245.898C145.195 245.898 143.109 247.117 141 249.156C138.891 247.117 136.805 245.898 135.164 245.898C134.602 245.898 134.109 246.016 133.664 246.273C132.164 247.141 131.625 249.32 132.117 252.391C132.211 252.93 132.328 253.492 132.469 254.055C131.906 254.219 131.367 254.383 130.852 254.594C127.922 255.719 126.328 257.266 126.328 259C126.328 260.734 127.945 262.281 130.852 263.406C131.367 263.594 131.906 263.781 132.469 263.945C132.328 264.508 132.211 265.07 132.117 265.609C131.625 268.703 132.164 270.883 133.664 271.727C134.109 271.984 134.602 272.102 135.164 272.102C136.828 272.102 138.914 270.883 141 268.844C143.109 270.883 145.195 272.102 146.836 272.102C147.398 272.102 147.891 271.984 148.336 271.727C149.836 270.859 150.375 268.68 149.883 265.609C149.789 265.07 149.672 264.508 149.531 263.945C150.094 263.781 150.633 263.617 151.148 263.406C154.078 262.281 155.672 260.734 155.672 259C155.672 257.266 154.078 255.719 151.148 254.594ZM147.68 247.445C148.641 248.008 148.969 249.742 148.57 252.203C148.5 252.695 148.383 253.211 148.242 253.75C147.023 253.469 145.734 253.281 144.375 253.164C143.578 252.039 142.758 251.031 141.938 250.117C143.672 248.406 145.43 247.234 146.859 247.234C147.164 247.234 147.445 247.305 147.68 247.445ZM145.055 261.344C144.633 262.094 144.141 262.844 143.625 263.594C142.758 263.664 141.891 263.688 141 263.688C140.086 263.688 139.219 263.664 138.375 263.594C137.859 262.844 137.391 262.094 136.969 261.344C136.523 260.57 136.102 259.773 135.727 259C136.102 258.227 136.523 257.43 136.969 256.656C137.391 255.906 137.883 255.156 138.398 254.406C139.266 254.336 140.133 254.312 141.023 254.312C141.937 254.312 142.805 254.336 143.648 254.406C144.164 255.156 144.633 255.906 145.055 256.656C145.5 257.43 145.922 258.227 146.297 259C145.898 259.773 145.5 260.547 145.055 261.344ZM147 260.57C147.352 261.391 147.633 262.188 147.891 262.984C147.094 263.172 146.25 263.312 145.359 263.43C145.641 262.984 145.945 262.516 146.203 262.023C146.484 261.531 146.742 261.039 147 260.57ZM141 266.922C140.438 266.313 139.898 265.656 139.383 264.977C139.922 265 140.461 265.023 141 265.023C141.539 265.023 142.078 265 142.617 264.977C142.102 265.656 141.562 266.313 141 266.922ZM136.641 263.406C135.75 263.289 134.906 263.148 134.109 262.961C134.367 262.188 134.648 261.367 135 260.547C135.258 261.016 135.516 261.508 135.797 261.977C136.078 262.492 136.359 262.938 136.641 263.406ZM135 257.43C134.648 256.609 134.367 255.812 134.109 255.016C134.906 254.828 135.75 254.688 136.641 254.57C136.359 255.016 136.055 255.484 135.797 255.977C135.516 256.469 135.258 256.961 135 257.43ZM141 251.078C141.562 251.688 142.102 252.344 142.617 253.023C142.078 253 141.539 252.977 141 252.977C140.461 252.977 139.922 253 139.383 253.023C139.898 252.344 140.438 251.688 141 251.078ZM146.203 256L145.359 254.594C146.25 254.711 147.094 254.852 147.891 255.039C147.633 255.812 147.352 256.633 147 257.453C146.742 256.961 146.484 256.469 146.203 256ZM133.43 252.203C133.031 249.742 133.359 248.008 134.32 247.445C134.555 247.305 134.836 247.234 135.141 247.234C136.547 247.234 138.305 248.383 140.062 250.117C139.242 251.008 138.422 252.039 137.625 253.164C136.266 253.281 134.977 253.492 133.758 253.75C133.617 253.211 133.523 252.695 133.43 252.203ZM127.641 259C127.641 257.898 128.977 256.727 131.32 255.859C131.789 255.672 132.305 255.508 132.82 255.367C133.195 256.539 133.664 257.781 134.227 259.023C133.664 260.266 133.172 261.484 132.82 262.656C129.586 261.719 127.641 260.312 127.641 259ZM134.32 270.555C133.359 269.992 133.031 268.258 133.43 265.797C133.5 265.305 133.617 264.789 133.758 264.25C134.977 264.531 136.266 264.719 137.625 264.836C138.422 265.961 139.242 266.969 140.062 267.883C138.328 269.594 136.57 270.766 135.141 270.766C134.836 270.766 134.555 270.695 134.32 270.555ZM148.57 265.797C148.969 268.258 148.641 269.992 147.68 270.555C147.445 270.695 147.164 270.766 146.859 270.766C145.453 270.766 143.695 269.617 141.938 267.883C142.758 266.992 143.578 265.961 144.375 264.836C145.734 264.719 147.023 264.508 148.242 264.25C148.383 264.789 148.477 265.305 148.57 265.797ZM150.68 262.141C150.211 262.328 149.695 262.492 149.18 262.633C148.805 261.461 148.336 260.219 147.773 258.977C148.336 257.734 148.828 256.516 149.18 255.344C152.414 256.281 154.359 257.688 154.359 259C154.359 260.102 153 261.273 150.68 262.141Z" fill="white"/>
</g>
<path d="M184.209 267L180.705 260.64H179.721V267H175.617V250.152H182.505C183.833 250.152 184.961 250.384 185.889 250.848C186.833 251.312 187.537 251.952 188.001 252.768C188.465 253.568 188.697 254.464 188.697 255.456C188.697 256.576 188.377 257.576 187.737 258.456C187.113 259.336 186.185 259.96 184.953 260.328L188.841 267H184.209ZM179.721 257.736H182.265C183.017 257.736 183.577 257.552 183.945 257.184C184.329 256.816 184.521 256.296 184.521 255.624C184.521 254.984 184.329 254.48 183.945 254.112C183.577 253.744 183.017 253.56 182.265 253.56H179.721V257.736ZM203.897 260.088C203.897 260.472 203.873 260.872 203.825 261.288H194.537C194.601 262.12 194.865 262.76 195.329 263.208C195.809 263.64 196.393 263.856 197.081 263.856C198.105 263.856 198.817 263.424 199.217 262.56H203.585C203.361 263.44 202.953 264.232 202.361 264.936C201.785 265.64 201.057 266.192 200.177 266.592C199.297 266.992 198.313 267.192 197.225 267.192C195.913 267.192 194.745 266.912 193.721 266.352C192.697 265.792 191.897 264.992 191.321 263.952C190.745 262.912 190.457 261.696 190.457 260.304C190.457 258.912 190.737 257.696 191.297 256.656C191.873 255.616 192.673 254.816 193.697 254.256C194.721 253.696 195.897 253.416 197.225 253.416C198.521 253.416 199.673 253.688 200.681 254.232C201.689 254.776 202.473 255.552 203.033 256.56C203.609 257.568 203.897 258.744 203.897 260.088ZM199.697 259.008C199.697 258.304 199.457 257.744 198.977 257.328C198.497 256.912 197.897 256.704 197.177 256.704C196.489 256.704 195.905 256.904 195.425 257.304C194.961 257.704 194.673 258.272 194.561 259.008H199.697ZM205.246 260.28C205.246 258.904 205.502 257.696 206.014 256.656C206.542 255.616 207.254 254.816 208.15 254.256C209.046 253.696 210.046 253.416 211.15 253.416C212.094 253.416 212.918 253.608 213.622 253.992C214.342 254.376 214.894 254.88 215.278 255.504V253.608H219.382V267H215.278V265.104C214.878 265.728 214.318 266.232 213.598 266.616C212.894 267 212.07 267.192 211.126 267.192C210.038 267.192 209.046 266.912 208.15 266.352C207.254 265.776 206.542 264.968 206.014 263.928C205.502 262.872 205.246 261.656 205.246 260.28ZM215.278 260.304C215.278 259.28 214.99 258.472 214.414 257.88C213.854 257.288 213.166 256.992 212.35 256.992C211.534 256.992 210.838 257.288 210.262 257.88C209.702 258.456 209.422 259.256 209.422 260.28C209.422 261.304 209.702 262.12 210.262 262.728C210.838 263.32 211.534 263.616 212.35 263.616C213.166 263.616 213.854 263.32 214.414 262.728C214.99 262.136 215.278 261.328 215.278 260.304ZM221.535 260.304C221.535 258.912 221.815 257.696 222.375 256.656C222.951 255.616 223.743 254.816 224.751 254.256C225.775 253.696 226.943 253.416 228.255 253.416C229.935 253.416 231.335 253.856 232.455 254.736C233.591 255.616 234.335 256.856 234.687 258.456H230.319C229.951 257.432 229.239 256.92 228.183 256.92C227.431 256.92 226.831 257.216 226.383 257.808C225.935 258.384 225.711 259.216 225.711 260.304C225.711 261.392 225.935 262.232 226.383 262.824C226.831 263.4 227.431 263.688 228.183 263.688C229.239 263.688 229.951 263.176 230.319 262.152H234.687C234.335 263.72 233.591 264.952 232.455 265.848C231.319 266.744 229.919 267.192 228.255 267.192C226.943 267.192 225.775 266.912 224.751 266.352C223.743 265.792 222.951 264.992 222.375 263.952C221.815 262.912 221.535 261.696 221.535 260.304ZM244.347 263.52V267H242.259C240.771 267 239.611 266.64 238.779 265.92C237.947 265.184 237.531 263.992 237.531 262.344V257.016H235.899V253.608H237.531V250.344H241.635V253.608H244.323V257.016H241.635V262.392C241.635 262.792 241.731 263.08 241.923 263.256C242.115 263.432 242.435 263.52 242.883 263.52H244.347ZM262.278 250.152V261.624C262.278 263.4 261.774 264.768 260.766 265.728C259.774 266.688 258.43 267.168 256.734 267.168C254.958 267.168 253.534 266.664 252.462 265.656C251.39 264.648 250.854 263.216 250.854 261.36H254.934C254.934 262.064 255.078 262.6 255.366 262.968C255.654 263.32 256.07 263.496 256.614 263.496C257.11 263.496 257.494 263.336 257.766 263.016C258.038 262.696 258.174 262.232 258.174 261.624V250.152H262.278ZM271.689 267.168C270.457 267.168 269.353 266.968 268.377 266.568C267.401 266.168 266.617 265.576 266.025 264.792C265.449 264.008 265.145 263.064 265.113 261.96H269.481C269.545 262.584 269.761 263.064 270.129 263.4C270.497 263.72 270.977 263.88 271.569 263.88C272.177 263.88 272.657 263.744 273.009 263.472C273.361 263.184 273.537 262.792 273.537 262.296C273.537 261.88 273.393 261.536 273.105 261.264C272.833 260.992 272.489 260.768 272.073 260.592C271.673 260.416 271.097 260.216 270.345 259.992C269.257 259.656 268.369 259.32 267.681 258.984C266.993 258.648 266.401 258.152 265.905 257.496C265.409 256.84 265.161 255.984 265.161 254.928C265.161 253.36 265.729 252.136 266.865 251.256C268.001 250.36 269.481 249.912 271.305 249.912C273.161 249.912 274.657 250.36 275.793 251.256C276.929 252.136 277.537 253.368 277.617 254.952H273.177C273.145 254.408 272.945 253.984 272.577 253.68C272.209 253.36 271.737 253.2 271.161 253.2C270.665 253.2 270.265 253.336 269.961 253.608C269.657 253.864 269.505 254.24 269.505 254.736C269.505 255.28 269.761 255.704 270.273 256.008C270.785 256.312 271.585 256.64 272.673 256.992C273.761 257.36 274.641 257.712 275.313 258.048C276.001 258.384 276.593 258.872 277.089 259.512C277.585 260.152 277.833 260.976 277.833 261.984C277.833 262.944 277.585 263.816 277.089 264.6C276.609 265.384 275.905 266.008 274.977 266.472C274.049 266.936 272.953 267.168 271.689 267.168Z" fill="black"/>
</g>
<g filter="url(#filter2_d_79_654)">
<path d="M382.23 31.6426C432.161 31.6426 472.521 69.3495 472.521 115.724C472.521 162.098 432.162 199.805 382.23 199.805C332.299 199.805 291.938 162.098 291.938 115.724C291.939 69.3494 332.299 31.6426 382.23 31.6426Z" stroke="black" stroke-width="1.91093" shape-rendering="crispEdges"/>
</g>
<path d="M392.676 207.145C379.76 208.183 366.765 206.557 354.523 202.369C342.281 198.181 331.061 191.524 321.581 182.823C312.1 174.123 304.568 163.571 299.465 151.841C294.362 140.112 291.801 127.463 291.945 114.703C292.09 101.944 294.936 89.354 300.303 77.7392C305.67 66.1244 313.439 55.74 323.114 47.2498C332.789 38.7595 344.157 32.3503 356.49 28.4318C368.824 24.5134 381.852 23.1718 394.742 24.4929L393.451 36.7044C382.287 35.5601 371.002 36.7221 360.319 40.1161C349.637 43.5101 339.791 49.0614 331.411 56.4152C323.031 63.769 316.302 72.7635 311.653 82.8236C307.004 92.8838 304.539 103.788 304.414 114.84C304.289 125.892 306.507 136.848 310.927 147.007C315.347 157.167 321.871 166.307 330.083 173.842C338.294 181.378 348.012 187.144 358.615 190.771C369.219 194.399 380.474 195.808 391.662 194.909L392.676 207.145Z" fill="url(#paint2_linear_79_654)"/>
<g filter="url(#filter3_d_79_654)">
<circle cx="308.66" cy="115.246" r="34.8745" fill="white"/>
<g clip-path="url(#clip0_79_654)">
<path d="M308.66 89.9258C294.694 89.9258 283.34 101.28 283.34 115.246C283.34 129.211 294.694 140.566 308.66 140.566C313.091 140.566 317.245 139.418 320.845 137.44L302.488 111.804V126.284H299.798V106.463H302.488L322.467 136.451C329.391 131.941 333.98 124.147 333.98 115.246C333.98 101.28 322.625 89.9258 308.66 89.9258ZM317.403 123.396L314.436 118.925V106.463H317.403V123.396Z" fill="url(#paint3_linear_79_654)"/>
</g>
</g>
<circle cx="468.223" cy="139.135" r="7.16599" fill="url(#paint4_linear_79_654)"/>
<path d="M365.105 124H361.745L354.137 112.504V124H350.777V107.224H354.137L361.745 118.744V107.224H365.105V124ZM380.786 117.064C380.786 117.544 380.754 117.976 380.69 118.36H370.97C371.05 119.32 371.386 120.072 371.978 120.616C372.57 121.16 373.298 121.432 374.162 121.432C375.41 121.432 376.298 120.896 376.826 119.824H380.45C380.066 121.104 379.33 122.16 378.242 122.992C377.154 123.808 375.818 124.216 374.234 124.216C372.954 124.216 371.802 123.936 370.778 123.376C369.77 122.8 368.978 121.992 368.402 120.952C367.842 119.912 367.562 118.712 367.562 117.352C367.562 115.976 367.842 114.768 368.402 113.728C368.962 112.688 369.746 111.888 370.754 111.328C371.762 110.768 372.922 110.488 374.234 110.488C375.498 110.488 376.626 110.76 377.618 111.304C378.626 111.848 379.402 112.624 379.946 113.632C380.506 114.624 380.786 115.768 380.786 117.064ZM377.306 116.104C377.29 115.24 376.978 114.552 376.37 114.04C375.762 113.512 375.018 113.248 374.138 113.248C373.306 113.248 372.602 113.504 372.026 114.016C371.466 114.512 371.122 115.208 370.994 116.104H377.306ZM390.582 124L387.846 119.872L385.422 124H381.822L386.166 117.328L381.774 110.704H385.566L388.278 114.808L390.726 110.704H394.326L389.958 117.328L394.374 124H390.582ZM400.111 113.464V119.896C400.111 120.344 400.215 120.672 400.423 120.88C400.647 121.072 401.015 121.168 401.527 121.168H403.087V124H400.975C398.143 124 396.727 122.624 396.727 119.872V113.464H395.143V110.704H396.727V107.416H400.111V110.704H403.087V113.464H400.111ZM420.99 107.248V119.008C420.99 120.64 420.518 121.912 419.574 122.824C418.63 123.72 417.366 124.168 415.782 124.168C414.182 124.168 412.886 123.704 411.894 122.776C410.918 121.848 410.43 120.552 410.43 118.888H413.79C413.806 119.608 413.974 120.168 414.294 120.568C414.63 120.968 415.11 121.168 415.734 121.168C416.342 121.168 416.806 120.976 417.126 120.592C417.446 120.208 417.606 119.68 417.606 119.008V107.248H420.99ZM430.694 124.168C429.526 124.168 428.47 123.968 427.526 123.568C426.598 123.168 425.862 122.592 425.318 121.84C424.774 121.088 424.494 120.2 424.478 119.176H428.078C428.126 119.864 428.366 120.408 428.798 120.808C429.246 121.208 429.854 121.408 430.622 121.408C431.406 121.408 432.022 121.224 432.47 120.856C432.918 120.472 433.142 119.976 433.142 119.368C433.142 118.872 432.99 118.464 432.686 118.144C432.382 117.824 431.998 117.576 431.534 117.4C431.086 117.208 430.462 117 429.662 116.776C428.574 116.456 427.686 116.144 426.998 115.84C426.326 115.52 425.742 115.048 425.246 114.424C424.766 113.784 424.526 112.936 424.526 111.88C424.526 110.888 424.774 110.024 425.27 109.288C425.766 108.552 426.462 107.992 427.358 107.608C428.254 107.208 429.278 107.008 430.43 107.008C432.158 107.008 433.558 107.432 434.63 108.28C435.718 109.112 436.318 110.28 436.43 111.784H432.734C432.702 111.208 432.454 110.736 431.99 110.368C431.542 109.984 430.942 109.792 430.19 109.792C429.534 109.792 429.006 109.96 428.606 110.296C428.222 110.632 428.03 111.12 428.03 111.76C428.03 112.208 428.174 112.584 428.462 112.888C428.766 113.176 429.134 113.416 429.566 113.608C430.014 113.784 430.638 113.992 431.438 114.232C432.526 114.552 433.414 114.872 434.102 115.192C434.79 115.512 435.382 115.992 435.878 116.632C436.374 117.272 436.622 118.112 436.622 119.152C436.622 120.048 436.39 120.88 435.926 121.648C435.462 122.416 434.782 123.032 433.886 123.496C432.99 123.944 431.926 124.168 430.694 124.168Z" fill="black"/>
<g filter="url(#filter4_d_79_654)">
<path d="M382.23 320.193C432.161 320.193 472.521 357.9 472.521 404.274C472.521 450.649 432.162 488.355 382.23 488.355C332.299 488.355 291.938 450.649 291.938 404.274C291.939 357.9 332.299 320.193 382.23 320.193Z" stroke="black" stroke-width="1.91093" shape-rendering="crispEdges"/>
</g>
<path d="M392.676 495.696C379.76 496.734 366.765 495.107 354.523 490.919C342.281 486.731 331.061 480.074 321.581 471.374C312.1 462.674 304.568 452.122 299.465 440.392C294.362 428.662 291.801 416.013 291.945 403.254C292.09 390.494 294.936 377.905 300.303 366.29C305.67 354.675 313.439 344.291 323.114 335.8C332.789 327.31 344.157 320.901 356.49 316.982C368.824 313.064 381.852 311.722 394.742 313.043L393.451 325.255C382.287 324.111 371.002 325.273 360.319 328.667C349.637 332.061 339.791 337.612 331.411 344.966C323.031 352.32 316.302 361.314 311.653 371.374C307.004 381.434 304.539 392.339 304.414 403.391C304.289 414.442 306.507 425.398 310.927 435.558C315.347 445.717 321.871 454.857 330.083 462.393C338.294 469.928 348.012 475.694 358.615 479.322C369.219 482.949 380.474 484.358 391.662 483.459L392.676 495.696Z" fill="url(#paint5_linear_79_654)"/>
<g filter="url(#filter5_d_79_654)">
<circle cx="308.66" cy="403.796" r="34.8745" fill="white"/>
<circle cx="308.66" cy="403.796" r="25.3198" fill="url(#paint6_linear_79_654)"/>
<path d="M322.814 395.647L310.451 389.295C309.671 388.902 308.656 388.902 307.87 389.295L295.374 395.647C294.569 396.057 294 396.827 294 397.65V410.339C294 411.162 294.584 411.932 295.389 412.344L298.69 414.003C300.268 414.691 300.826 414.691 301.544 414.691C303.88 414.691 305.215 413.441 305.215 411.26V398.734C305.215 398.557 305.111 398.294 304.915 398.294H303.338C303.139 398.294 302.692 398.557 302.692 398.733V411.26C302.692 412.227 301.704 413.189 299.857 412.372L296.446 410.632C296.327 410.575 296.243 410.46 296.243 410.339V397.65C296.243 397.531 296.399 397.411 296.518 397.349L308.974 391.008C309.09 390.949 309.261 390.949 309.377 391.008L321.68 397.348C321.798 397.411 321.757 397.527 321.757 397.65V410.339C321.757 410.46 321.808 410.578 321.692 410.636L309.331 416.981C309.225 417.038 309.094 417.038 308.978 416.981L305.807 415.307C305.712 415.258 305.598 415.24 305.507 415.285C304.624 415.728 304.462 415.787 303.634 416.04C303.431 416.103 303.131 416.212 303.749 416.519L307.898 418.691C308.295 418.893 308.744 419 309.201 419C309.662 419 310.113 418.894 310.51 418.691L322.814 412.344C323.619 411.929 324 411.162 324 410.339V397.65C324 396.827 323.619 396.059 322.814 395.647ZM313.04 408.328C309.753 408.328 309.028 407.525 308.787 406.079C308.759 405.923 308.609 405.737 308.43 405.737H306.823C306.625 405.737 306.465 405.95 306.465 406.125C306.465 407.977 307.603 410.222 313.04 410.222C316.977 410.222 319.233 408.868 319.233 406.473C319.233 404.098 317.42 403.475 313.603 403.028C309.744 402.577 309.352 402.349 309.352 401.549C309.352 400.889 309.684 400.01 312.541 400.01C315.094 400.01 316.035 400.495 316.422 402.017C316.455 402.16 316.603 402.263 316.77 402.263H318.383C318.483 402.263 318.577 402.228 318.647 402.165C318.714 402.097 318.75 402.013 318.741 401.922C318.491 399.3 316.522 398.078 312.541 398.078C309 398.078 306.887 399.402 306.887 401.62C306.887 404.026 308.989 404.691 312.389 404.988C316.455 405.341 316.772 405.867 316.772 406.575C316.772 407.804 315.656 408.328 313.04 408.328Z" fill="white"/>
</g>
<line x1="467.847" y1="376.372" x2="519.442" y2="338.153" stroke="black" stroke-width="2.8664"/>
<circle cx="467.268" cy="376.088" r="7.16599" fill="url(#paint7_linear_79_654)"/>
<path d="M365.994 412H361.89L355.026 401.608V412H350.922V395.152H355.026L361.89 405.592V395.152H365.994V412ZM375.064 412.192C373.752 412.192 372.568 411.912 371.512 411.352C370.472 410.792 369.648 409.992 369.04 408.952C368.448 407.912 368.152 406.696 368.152 405.304C368.152 403.928 368.456 402.72 369.064 401.68C369.672 400.624 370.504 399.816 371.56 399.256C372.616 398.696 373.8 398.416 375.112 398.416C376.424 398.416 377.608 398.696 378.664 399.256C379.72 399.816 380.552 400.624 381.16 401.68C381.768 402.72 382.072 403.928 382.072 405.304C382.072 406.68 381.76 407.896 381.136 408.952C380.528 409.992 379.688 410.792 378.616 411.352C377.56 411.912 376.376 412.192 375.064 412.192ZM375.064 408.64C375.848 408.64 376.512 408.352 377.056 407.776C377.616 407.2 377.896 406.376 377.896 405.304C377.896 404.232 377.624 403.408 377.08 402.832C376.552 402.256 375.896 401.968 375.112 401.968C374.312 401.968 373.648 402.256 373.12 402.832C372.592 403.392 372.328 404.216 372.328 405.304C372.328 406.376 372.584 407.2 373.096 407.776C373.624 408.352 374.28 408.64 375.064 408.64ZM383.434 405.28C383.434 403.904 383.69 402.696 384.202 401.656C384.73 400.616 385.442 399.816 386.338 399.256C387.234 398.696 388.234 398.416 389.338 398.416C390.218 398.416 391.018 398.6 391.738 398.968C392.474 399.336 393.05 399.832 393.466 400.456V394.24H397.57V412H393.466V410.08C393.082 410.72 392.53 411.232 391.81 411.616C391.106 412 390.282 412.192 389.338 412.192C388.234 412.192 387.234 411.912 386.338 411.352C385.442 410.776 384.73 409.968 384.202 408.928C383.69 407.872 383.434 406.656 383.434 405.28ZM393.466 405.304C393.466 404.28 393.178 403.472 392.602 402.88C392.042 402.288 391.354 401.992 390.538 401.992C389.722 401.992 389.026 402.288 388.45 402.88C387.89 403.456 387.61 404.256 387.61 405.28C387.61 406.304 387.89 407.12 388.45 407.728C389.026 408.32 389.722 408.616 390.538 408.616C391.354 408.616 392.042 408.32 392.602 407.728C393.178 407.136 393.466 406.328 393.466 405.304ZM413.163 405.088C413.163 405.472 413.139 405.872 413.091 406.288H403.803C403.867 407.12 404.131 407.76 404.595 408.208C405.075 408.64 405.659 408.856 406.347 408.856C407.371 408.856 408.083 408.424 408.483 407.56H412.851C412.627 408.44 412.219 409.232 411.627 409.936C411.051 410.64 410.323 411.192 409.443 411.592C408.563 411.992 407.579 412.192 406.491 412.192C405.179 412.192 404.011 411.912 402.987 411.352C401.963 410.792 401.163 409.992 400.587 408.952C400.011 407.912 399.723 406.696 399.723 405.304C399.723 403.912 400.003 402.696 400.563 401.656C401.139 400.616 401.939 399.816 402.963 399.256C403.987 398.696 405.163 398.416 406.491 398.416C407.787 398.416 408.939 398.688 409.947 399.232C410.955 399.776 411.739 400.552 412.299 401.56C412.875 402.568 413.163 403.744 413.163 405.088ZM408.963 404.008C408.963 403.304 408.723 402.744 408.243 402.328C407.763 401.912 407.163 401.704 406.443 401.704C405.755 401.704 405.171 401.904 404.691 402.304C404.227 402.704 403.939 403.272 403.827 404.008H408.963ZM430.974 395.152V406.624C430.974 408.4 430.47 409.768 429.462 410.728C428.47 411.688 427.126 412.168 425.43 412.168C423.654 412.168 422.23 411.664 421.158 410.656C420.086 409.648 419.55 408.216 419.55 406.36H423.63C423.63 407.064 423.774 407.6 424.062 407.968C424.35 408.32 424.766 408.496 425.31 408.496C425.806 408.496 426.19 408.336 426.462 408.016C426.734 407.696 426.87 407.232 426.87 406.624V395.152H430.974ZM440.385 412.168C439.153 412.168 438.049 411.968 437.073 411.568C436.097 411.168 435.313 410.576 434.721 409.792C434.145 409.008 433.841 408.064 433.809 406.96H438.177C438.241 407.584 438.457 408.064 438.825 408.4C439.193 408.72 439.673 408.88 440.265 408.88C440.873 408.88 441.353 408.744 441.705 408.472C442.057 408.184 442.233 407.792 442.233 407.296C442.233 406.88 442.089 406.536 441.801 406.264C441.529 405.992 441.185 405.768 440.769 405.592C440.369 405.416 439.793 405.216 439.041 404.992C437.953 404.656 437.065 404.32 436.377 403.984C435.689 403.648 435.097 403.152 434.601 402.496C434.105 401.84 433.857 400.984 433.857 399.928C433.857 398.36 434.425 397.136 435.561 396.256C436.697 395.36 438.177 394.912 440.001 394.912C441.857 394.912 443.353 395.36 444.489 396.256C445.625 397.136 446.233 398.368 446.313 399.952H441.873C441.841 399.408 441.641 398.984 441.273 398.68C440.905 398.36 440.433 398.2 439.857 398.2C439.361 398.2 438.961 398.336 438.657 398.608C438.353 398.864 438.201 399.24 438.201 399.736C438.201 400.28 438.457 400.704 438.969 401.008C439.481 401.312 440.281 401.64 441.369 401.992C442.457 402.36 443.337 402.712 444.009 403.048C444.697 403.384 445.289 403.872 445.785 404.512C446.281 405.152 446.529 405.976 446.529 406.984C446.529 407.944 446.281 408.816 445.785 409.6C445.305 410.384 444.601 411.008 443.673 411.472C442.745 411.936 441.649 412.168 440.385 412.168Z" fill="black"/>
<line x1="776.37" y1="364.269" x2="729.552" y2="323.184" stroke="black" stroke-width="2.8664"/>
<g filter="url(#filter6_d_79_654)">
<path d="M1025.26 174.963C975.328 174.963 934.968 212.67 934.968 259.044C934.968 305.418 975.328 343.125 1025.26 343.125C1075.19 343.125 1115.55 305.418 1115.55 259.044C1115.55 212.67 1075.19 174.963 1025.26 174.963Z" stroke="black" stroke-width="1.91093" shape-rendering="crispEdges"/>
</g>
<path d="M1014.81 350.466C1027.73 351.504 1040.73 349.877 1052.97 345.689C1065.21 341.501 1076.43 334.844 1085.91 326.144C1095.39 317.444 1102.92 306.891 1108.03 295.162C1113.13 283.432 1115.69 270.783 1115.55 258.024C1115.4 245.264 1112.55 232.674 1107.19 221.06C1101.82 209.445 1094.05 199.06 1084.38 190.57C1074.7 182.08 1063.33 175.671 1051 171.752C1038.67 167.834 1025.64 166.492 1012.75 167.813L1014.04 180.025C1025.2 178.88 1036.49 180.042 1047.17 183.436C1057.85 186.83 1067.7 192.382 1076.08 199.736C1084.46 207.089 1091.19 216.084 1095.84 226.144C1100.49 236.204 1102.95 247.109 1103.08 258.16C1103.2 269.212 1100.98 280.168 1096.56 290.327C1092.14 300.487 1085.62 309.627 1077.41 317.163C1069.2 324.698 1059.48 330.464 1048.87 334.092C1038.27 337.719 1027.02 339.128 1015.83 338.229L1014.81 350.466Z" fill="url(#paint8_linear_79_654)"/>
<g filter="url(#filter7_d_79_654)">
<circle cx="34.8745" cy="34.8745" r="34.8745" transform="matrix(-1 0 0 1 1133.7 223.691)" fill="white"/>
<circle cx="25.3198" cy="25.3198" r="25.3198" transform="matrix(-1 0 0 1 1124.15 233.246)" fill="url(#paint9_linear_79_654)"/>
<path fill-rule="evenodd" clip-rule="evenodd" d="M1104.63 254.034C1105.01 255.122 1105.28 256.233 1105.37 257.385C1105.48 258.813 1105.43 260.232 1105.13 261.637C1105.12 261.676 1105.1 261.712 1105.09 261.749C1105 261.75 1104.9 261.738 1104.81 261.752C1104.03 261.875 1103.25 262.002 1102.47 262.128C1101.66 262.259 1100.86 262.384 1100.05 262.523C1099.77 262.573 1099.41 262.514 1099.3 262.908C1099.29 262.919 1099.26 262.921 1099.24 262.927L1099.28 260.571L1099.24 254.887L1099.62 254.823C1100.23 254.722 1100.85 254.62 1101.46 254.522C1102.19 254.406 1102.93 254.293 1103.66 254.179C1103.99 254.129 1104.31 254.082 1104.63 254.034Z" fill="white"/>
<path fill-rule="evenodd" clip-rule="evenodd" d="M1098.47 269.794C1098.07 269.453 1097.66 269.128 1097.28 268.77C1095.24 266.843 1093.74 264.575 1093.01 261.84C1092.81 261.087 1092.67 260.323 1092.63 259.545C1092.6 259.001 1092.55 258.452 1092.59 257.91C1092.69 256.47 1092.9 255.044 1093.32 253.657L1093.35 253.625C1093.39 253.679 1093.45 253.728 1093.47 253.789C1093.88 255.003 1094.29 256.218 1094.7 257.434C1095.98 261.254 1097.25 265.076 1098.53 268.895C1098.56 268.97 1098.62 269.031 1098.67 269.098L1098.47 269.794Z" fill="white"/>
<path fill-rule="evenodd" clip-rule="evenodd" d="M1104.63 254.034C1104.31 254.082 1103.98 254.128 1103.66 254.178C1102.93 254.292 1102.19 254.405 1101.46 254.522C1100.85 254.619 1100.23 254.721 1099.62 254.822L1099.24 254.886L1099.24 254.642C1099.23 254.44 1099.21 254.239 1099.2 254.038C1099.19 252.754 1099.18 251.47 1099.16 250.186C1099.15 249.382 1099.14 248.579 1099.12 247.775C1099.11 247.276 1099.1 246.777 1099.08 246.278C1099.06 246.01 1099.02 245.744 1099 245.476C1098.99 245.322 1099.01 245.167 1099.01 245.012C1099.2 245.383 1099.39 245.757 1099.59 246.125C1099.9 246.707 1100.39 247.136 1100.84 247.604C1102.6 249.454 1103.85 251.605 1104.63 254.034Z" fill="white"/>
<path fill-rule="evenodd" clip-rule="evenodd" d="M1099.24 262.927C1099.26 262.92 1099.3 262.919 1099.3 262.908C1099.41 262.514 1099.77 262.572 1100.05 262.523C1100.86 262.384 1101.66 262.258 1102.47 262.128C1103.25 262.001 1104.03 261.874 1104.81 261.752C1104.9 261.737 1105 261.749 1105.09 261.749C1104.94 262.269 1104.83 262.801 1104.65 263.307C1104.44 263.881 1104.18 264.441 1103.91 264.99C1103.51 265.809 1103.01 266.577 1102.42 267.278C1101.97 267.819 1101.47 268.319 1100.97 268.813C1100.69 269.086 1100.36 269.309 1100.06 269.554L1099.98 269.5L1099.7 269.257L1099.4 268.612C1099.2 267.859 1099.09 267.085 1099.07 266.306L1099.08 266.174L1099.12 265.606C1099.13 265.412 1099.15 265.218 1099.16 265.023C1099.19 264.324 1099.22 263.625 1099.24 262.927Z" fill="white"/>
<path fill-rule="evenodd" clip-rule="evenodd" d="M1099.24 262.926C1099.22 263.625 1099.19 264.324 1099.16 265.023C1099.15 265.218 1099.13 265.412 1099.12 265.606L1098.94 265.674C1098.54 264.501 1098.14 263.341 1097.75 262.178C1097.11 260.254 1096.47 258.327 1095.83 256.403C1095.31 254.85 1094.79 253.297 1094.26 251.747C1094.23 251.674 1094.16 251.617 1094.11 251.553L1095.26 249.443C1095.3 249.512 1095.35 249.576 1095.38 249.649C1095.91 251.22 1096.44 252.792 1096.96 254.364C1097.65 256.41 1098.33 258.458 1099.01 260.504C1099.04 260.586 1099.08 260.662 1099.12 260.753L1099.28 260.571L1099.24 262.926Z" fill="white"/>
<path fill-rule="evenodd" clip-rule="evenodd" d="M1094.11 251.553C1094.16 251.617 1094.23 251.674 1094.26 251.747C1094.79 253.298 1095.31 254.85 1095.83 256.403C1096.47 258.328 1097.11 260.255 1097.75 262.179C1098.14 263.341 1098.54 264.502 1098.94 265.674L1099.12 265.606L1099.08 266.175L1099.04 266.306C1098.98 266.928 1098.93 267.552 1098.85 268.173C1098.81 268.484 1098.73 268.79 1098.67 269.098C1098.63 269.031 1098.56 268.97 1098.54 268.895C1097.25 265.076 1095.98 261.255 1094.7 257.434C1094.29 256.219 1093.88 255.004 1093.47 253.79C1093.45 253.728 1093.39 253.68 1093.35 253.625L1094.11 251.553Z" fill="white"/>
<path fill-rule="evenodd" clip-rule="evenodd" d="M1099.28 260.571L1099.12 260.754C1099.08 260.662 1099.04 260.586 1099.01 260.505C1098.33 258.458 1097.65 256.411 1096.96 254.365C1096.44 252.792 1095.91 251.22 1095.38 249.649C1095.35 249.576 1095.3 249.512 1095.26 249.443L1096.68 247.577C1096.73 247.636 1096.79 247.69 1096.81 247.757C1097.21 248.91 1097.6 250.065 1097.99 251.22C1098.35 252.3 1098.7 253.38 1099.07 254.458C1099.1 254.53 1099.18 254.581 1099.24 254.642L1099.24 254.887C1099.26 256.781 1099.27 258.676 1099.28 260.571Z" fill="white"/>
<path fill-rule="evenodd" clip-rule="evenodd" d="M1099.24 254.642C1099.18 254.581 1099.1 254.53 1099.07 254.457C1098.7 253.38 1098.35 252.299 1097.98 251.22C1097.6 250.065 1097.21 248.91 1096.81 247.756C1096.79 247.689 1096.73 247.636 1096.68 247.576C1097.14 247.124 1097.59 246.656 1098.07 246.225C1098.5 245.842 1098.84 245.432 1098.85 244.827C1098.86 244.801 1098.87 244.776 1098.89 244.706L1099.01 245.012C1099.01 245.167 1098.99 245.322 1099 245.476C1099.02 245.744 1099.06 246.01 1099.08 246.278C1099.1 246.777 1099.11 247.276 1099.12 247.775C1099.14 248.579 1099.15 249.382 1099.16 250.186C1099.18 251.47 1099.19 252.754 1099.2 254.038C1099.21 254.239 1099.23 254.44 1099.24 254.642Z" fill="white"/>
<path fill-rule="evenodd" clip-rule="evenodd" d="M1098.67 269.098C1098.73 268.79 1098.81 268.484 1098.85 268.173C1098.93 267.552 1098.98 266.928 1099.04 266.306L1099.06 266.303L1099.07 266.306C1099.09 267.085 1099.2 267.859 1099.4 268.612C1099.36 268.666 1099.3 268.714 1099.28 268.776C1099.11 269.256 1098.95 269.741 1098.78 270.221C1098.75 270.287 1098.69 270.338 1098.64 270.395L1098.47 269.794L1098.67 269.098Z" fill="white"/>
<path fill-rule="evenodd" clip-rule="evenodd" d="M1098.64 270.396C1098.69 270.338 1098.75 270.287 1098.78 270.221C1098.95 269.741 1099.11 269.257 1099.28 268.776C1099.3 268.715 1099.36 268.666 1099.4 268.612L1099.69 269.257C1099.64 269.34 1099.56 269.414 1099.52 269.506L1098.96 271.16C1098.94 271.227 1098.86 271.274 1098.81 271.33L1098.64 270.396Z" fill="white"/>
<path fill-rule="evenodd" clip-rule="evenodd" d="M1098.81 271.329C1098.86 271.273 1098.94 271.226 1098.96 271.16L1099.52 269.506C1099.56 269.414 1099.64 269.339 1099.7 269.257L1099.98 269.5C1099.84 269.636 1099.77 269.793 1099.81 269.991L1099.73 270.274C1099.69 270.323 1099.63 270.365 1099.61 270.421C1099.41 270.984 1099.23 271.55 1099.03 272.113C1099 272.185 1098.93 272.241 1098.88 272.304C1098.86 271.979 1098.83 271.654 1098.81 271.329Z" fill="white"/>
<path fill-rule="evenodd" clip-rule="evenodd" d="M1098.88 272.304C1098.93 272.241 1099 272.185 1099.03 272.114C1099.23 271.551 1099.41 270.984 1099.61 270.421C1099.63 270.366 1099.69 270.323 1099.73 270.275L1099.61 271.574C1099.57 271.611 1099.53 271.643 1099.51 271.686C1099.38 272.064 1099.25 272.445 1099.12 272.824C1099.09 272.902 1099.03 272.971 1098.99 273.044C1098.96 272.995 1098.89 272.948 1098.89 272.898C1098.87 272.7 1098.88 272.502 1098.88 272.304Z" fill="white"/>
<path fill-rule="evenodd" clip-rule="evenodd" d="M1098.99 273.044C1099.03 272.97 1099.09 272.901 1099.12 272.824C1099.25 272.446 1099.38 272.065 1099.51 271.686C1099.53 271.643 1099.57 271.611 1099.61 271.574L1099.61 272.427L1099.32 273.16L1098.99 273.044Z" fill="white"/>
<path fill-rule="evenodd" clip-rule="evenodd" d="M1099.32 273.16L1099.61 272.427L1099.67 273.294L1099.32 273.16Z" fill="white"/>
<path fill-rule="evenodd" clip-rule="evenodd" d="M1099.81 269.992C1099.77 269.793 1099.84 269.636 1099.98 269.5L1100.06 269.554L1099.81 269.992Z" fill="white"/>
<path fill-rule="evenodd" clip-rule="evenodd" d="M1099.07 266.306L1099.06 266.303L1099.04 266.306L1099.08 266.175L1099.07 266.306Z" fill="#4FAA41"/>
</g>
<path d="M991.041 238.152V255H986.937V244.896L983.169 255H979.857L976.065 244.872V255H971.961V238.152H976.809L981.537 249.816L986.217 238.152H991.041ZM1000.09 255.192C998.776 255.192 997.592 254.912 996.536 254.352C995.496 253.792 994.672 252.992 994.064 251.952C993.472 250.912 993.176 249.696 993.176 248.304C993.176 246.928 993.48 245.72 994.088 244.68C994.696 243.624 995.528 242.816 996.584 242.256C997.64 241.696 998.824 241.416 1000.14 241.416C1001.45 241.416 1002.63 241.696 1003.69 242.256C1004.74 242.816 1005.58 243.624 1006.18 244.68C1006.79 245.72 1007.1 246.928 1007.1 248.304C1007.1 249.68 1006.78 250.896 1006.16 251.952C1005.55 252.992 1004.71 253.792 1003.64 254.352C1002.58 254.912 1001.4 255.192 1000.09 255.192ZM1000.09 251.64C1000.87 251.64 1001.54 251.352 1002.08 250.776C1002.64 250.2 1002.92 249.376 1002.92 248.304C1002.92 247.232 1002.65 246.408 1002.1 245.832C1001.58 245.256 1000.92 244.968 1000.14 244.968C999.336 244.968 998.672 245.256 998.144 245.832C997.616 246.392 997.352 247.216 997.352 248.304C997.352 249.376 997.608 250.2 998.12 250.776C998.648 251.352 999.304 251.64 1000.09 251.64ZM1017.43 241.464C1019 241.464 1020.25 241.976 1021.18 243C1022.12 244.008 1022.59 245.4 1022.59 247.176V255H1018.51V247.728C1018.51 246.832 1018.28 246.136 1017.82 245.64C1017.35 245.144 1016.73 244.896 1015.95 244.896C1015.16 244.896 1014.54 245.144 1014.07 245.64C1013.61 246.136 1013.38 246.832 1013.38 247.728V255H1009.27V241.608H1013.38V243.384C1013.79 242.792 1014.35 242.328 1015.06 241.992C1015.76 241.64 1016.55 241.464 1017.43 241.464ZM1030.53 241.416C1031.48 241.416 1032.3 241.608 1033.01 241.992C1033.73 242.376 1034.28 242.88 1034.66 243.504V241.608H1038.77V254.976C1038.77 256.208 1038.52 257.32 1038.02 258.312C1037.54 259.32 1036.8 260.12 1035.79 260.712C1034.8 261.304 1033.56 261.6 1032.07 261.6C1030.09 261.6 1028.48 261.128 1027.25 260.184C1026.01 259.256 1025.31 257.992 1025.13 256.392H1029.19C1029.32 256.904 1029.62 257.304 1030.1 257.592C1030.58 257.896 1031.17 258.048 1031.88 258.048C1032.73 258.048 1033.4 257.8 1033.89 257.304C1034.41 256.824 1034.66 256.048 1034.66 254.976V253.08C1034.26 253.704 1033.71 254.216 1033.01 254.616C1032.3 255 1031.48 255.192 1030.53 255.192C1029.43 255.192 1028.43 254.912 1027.53 254.352C1026.64 253.776 1025.93 252.968 1025.4 251.928C1024.89 250.872 1024.63 249.656 1024.63 248.28C1024.63 246.904 1024.89 245.696 1025.4 244.656C1025.93 243.616 1026.64 242.816 1027.53 242.256C1028.43 241.696 1029.43 241.416 1030.53 241.416ZM1034.66 248.304C1034.66 247.28 1034.37 246.472 1033.8 245.88C1033.24 245.288 1032.55 244.992 1031.73 244.992C1030.92 244.992 1030.22 245.288 1029.65 245.88C1029.09 246.456 1028.81 247.256 1028.81 248.28C1028.81 249.304 1029.09 250.12 1029.65 250.728C1030.22 251.32 1030.92 251.616 1031.73 251.616C1032.55 251.616 1033.24 251.32 1033.8 250.728C1034.37 250.136 1034.66 249.328 1034.66 248.304ZM1047.83 255.192C1046.52 255.192 1045.33 254.912 1044.28 254.352C1043.24 253.792 1042.41 252.992 1041.81 251.952C1041.21 250.912 1040.92 249.696 1040.92 248.304C1040.92 246.928 1041.22 245.72 1041.83 244.68C1042.44 243.624 1043.27 242.816 1044.33 242.256C1045.38 241.696 1046.57 241.416 1047.88 241.416C1049.19 241.416 1050.37 241.696 1051.43 242.256C1052.49 242.816 1053.32 243.624 1053.93 244.68C1054.53 245.72 1054.84 246.928 1054.84 248.304C1054.84 249.68 1054.53 250.896 1053.9 251.952C1053.29 252.992 1052.45 253.792 1051.38 254.352C1050.33 254.912 1049.14 255.192 1047.83 255.192ZM1047.83 251.64C1048.61 251.64 1049.28 251.352 1049.82 250.776C1050.38 250.2 1050.66 249.376 1050.66 248.304C1050.66 247.232 1050.39 246.408 1049.85 245.832C1049.32 245.256 1048.66 244.968 1047.88 244.968C1047.08 244.968 1046.41 245.256 1045.89 245.832C1045.36 246.392 1045.09 247.216 1045.09 248.304C1045.09 249.376 1045.35 250.2 1045.86 250.776C1046.39 251.352 1047.05 251.64 1047.83 251.64ZM1004.17 263.152C1005.95 263.152 1007.5 263.504 1008.83 264.208C1010.16 264.912 1011.18 265.904 1011.9 267.184C1012.64 268.448 1013 269.912 1013 271.576C1013 273.224 1012.64 274.688 1011.9 275.968C1011.18 277.248 1010.15 278.24 1008.8 278.944C1007.48 279.648 1005.93 280 1004.17 280H997.859V263.152H1004.17ZM1003.91 276.448C1005.46 276.448 1006.67 276.024 1007.53 275.176C1008.4 274.328 1008.83 273.128 1008.83 271.576C1008.83 270.024 1008.4 268.816 1007.53 267.952C1006.67 267.088 1005.46 266.656 1003.91 266.656H1001.96V276.448H1003.91ZM1025.5 271.36C1026.47 271.568 1027.26 272.056 1027.85 272.824C1028.44 273.576 1028.74 274.44 1028.74 275.416C1028.74 276.824 1028.24 277.944 1027.25 278.776C1026.27 279.592 1024.9 280 1023.14 280H1015.3V263.152H1022.88C1024.59 263.152 1025.93 263.544 1026.89 264.328C1027.86 265.112 1028.35 266.176 1028.35 267.52C1028.35 268.512 1028.09 269.336 1027.56 269.992C1027.05 270.648 1026.36 271.104 1025.5 271.36ZM1019.4 269.968H1022.09C1022.76 269.968 1023.27 269.824 1023.62 269.536C1023.99 269.232 1024.18 268.792 1024.18 268.216C1024.18 267.64 1023.99 267.2 1023.62 266.896C1023.27 266.592 1022.76 266.44 1022.09 266.44H1019.4V269.968ZM1022.42 276.688C1023.11 276.688 1023.64 276.536 1024.01 276.232C1024.39 275.912 1024.58 275.456 1024.58 274.864C1024.58 274.272 1024.38 273.808 1023.98 273.472C1023.6 273.136 1023.06 272.968 1022.38 272.968H1019.4V276.688H1022.42Z" fill="black"/>
<g filter="url(#filter8_d_79_654)">
<path d="M856.142 320.193C806.211 320.193 765.851 357.9 765.851 404.274C765.851 450.648 806.21 488.355 856.142 488.355C906.073 488.355 946.434 450.648 946.434 404.274C946.433 357.9 906.073 320.193 856.142 320.193Z" stroke="black" stroke-width="1.91093" shape-rendering="crispEdges"/>
</g>
<path d="M845.697 495.696C858.613 496.734 871.608 495.107 883.85 490.919C896.092 486.731 907.312 480.074 916.792 471.374C926.273 462.674 933.805 452.121 938.908 440.392C944.011 428.662 946.572 416.013 946.428 403.254C946.283 390.494 943.437 377.904 938.07 366.29C932.703 354.675 924.934 344.29 915.259 335.8C905.584 327.31 894.216 320.901 881.883 316.982C869.549 313.064 856.521 311.722 843.631 313.043L844.922 325.255C856.086 324.11 867.371 325.272 878.054 328.666C888.736 332.06 898.582 337.612 906.962 344.966C915.342 352.319 922.071 361.314 926.72 371.374C931.369 381.434 933.834 392.339 933.959 403.39C934.084 414.442 931.866 425.398 927.446 435.557C923.026 445.717 916.502 454.857 908.29 462.393C900.079 469.928 890.361 475.694 879.758 479.322C869.154 482.949 857.899 484.358 846.711 483.459L845.697 495.696Z" fill="url(#paint10_linear_79_654)"/>
<g filter="url(#filter9_d_79_654)">
<circle cx="34.8745" cy="34.8745" r="34.8745" transform="matrix(-1 0 0 1 964.587 368.921)" fill="white"/>
<circle cx="25.3198" cy="25.3198" r="25.3198" transform="matrix(-1 0 0 1 955.032 378.476)" fill="url(#paint11_linear_79_654)"/>
<path d="M918.583 405.509C919.674 405.509 920.488 405.308 921.003 404.911C921.513 404.518 921.865 403.838 922.05 402.89C922.222 402.003 922.156 401.384 921.855 401.05C921.547 400.708 920.881 400.535 919.875 400.535H918.132L917.166 405.509H918.583ZM912.88 411.635C912.84 411.635 912.801 411.626 912.764 411.609C912.728 411.592 912.696 411.567 912.671 411.536C912.646 411.505 912.627 411.469 912.618 411.43C912.608 411.391 912.607 411.351 912.614 411.312L915.176 398.133C915.188 398.071 915.221 398.016 915.269 397.976C915.318 397.936 915.379 397.914 915.441 397.914H920.963C922.698 397.914 923.989 398.385 924.801 399.314C925.617 400.248 925.869 401.554 925.55 403.195C925.42 403.863 925.197 404.484 924.886 405.04C924.563 405.612 924.15 406.129 923.664 406.571C923.066 407.131 922.389 407.537 921.654 407.776C920.93 408.012 920 408.131 918.892 408.131H916.656L916.018 411.416C916.006 411.477 915.972 411.533 915.924 411.573C915.875 411.613 915.814 411.635 915.751 411.635H912.88Z" fill="white"/>
<path d="M918.356 400.807H919.875C921.089 400.807 921.511 401.073 921.654 401.232C921.891 401.495 921.936 402.051 921.783 402.838C921.612 403.72 921.294 404.345 920.838 404.696C920.372 405.055 919.612 405.237 918.583 405.237H917.495L918.356 400.807L918.356 400.807ZM920.963 397.642H915.442C915.316 397.642 915.194 397.686 915.097 397.766C915 397.846 914.933 397.958 914.909 398.081L912.348 411.26C912.333 411.339 912.335 411.42 912.355 411.497C912.374 411.575 912.411 411.647 912.462 411.709C912.513 411.77 912.577 411.82 912.649 411.854C912.721 411.888 912.8 411.906 912.88 411.906H915.751C915.877 411.906 915.999 411.862 916.096 411.782C916.193 411.702 916.26 411.591 916.284 411.467L916.879 408.402H918.891C920.029 408.402 920.987 408.278 921.738 408.033C922.51 407.783 923.221 407.357 923.85 406.769C924.356 406.308 924.786 405.769 925.123 405.173C925.447 404.592 925.681 403.943 925.816 403.246C926.152 401.519 925.879 400.135 925.005 399.135C924.139 398.144 922.779 397.642 920.963 397.642V397.642ZM916.836 405.78H918.583C919.74 405.78 920.602 405.562 921.169 405.125C921.736 404.689 922.117 403.961 922.316 402.941C922.506 401.962 922.42 401.271 922.057 400.868C921.693 400.466 920.966 400.264 919.875 400.264H917.908L916.836 405.78ZM920.963 398.184C922.624 398.184 923.835 398.62 924.597 399.492C925.359 400.364 925.588 401.58 925.284 403.142C925.159 403.786 924.947 404.375 924.65 404.907C924.351 405.441 923.962 405.928 923.481 406.371C922.908 406.907 922.272 407.29 921.57 407.517C920.87 407.746 919.977 407.859 918.892 407.859H916.432L915.752 411.363H912.881L915.442 398.184H920.963Z" fill="black"/>
<path d="M932.133 408.131C932.093 408.131 932.053 408.122 932.017 408.105C931.981 408.088 931.949 408.063 931.923 408.033C931.898 408.002 931.88 407.966 931.87 407.927C931.86 407.888 931.859 407.847 931.866 407.808L932.999 401.977C933.107 401.422 933.081 401.025 932.925 400.856C932.829 400.753 932.543 400.581 931.695 400.581H929.641L928.217 407.912C928.205 407.974 928.172 408.029 928.123 408.069C928.074 408.109 928.013 408.131 927.95 408.131H925.103C925.063 408.131 925.023 408.122 924.987 408.105C924.951 408.088 924.919 408.063 924.893 408.032C924.868 408.001 924.849 407.965 924.84 407.927C924.83 407.888 924.828 407.847 924.836 407.808L927.398 394.629C927.41 394.567 927.443 394.511 927.492 394.471C927.54 394.432 927.601 394.41 927.664 394.41H930.512C930.552 394.41 930.591 394.418 930.627 394.435C930.664 394.453 930.696 394.477 930.721 394.508C930.747 394.539 930.765 394.575 930.775 394.614C930.785 394.653 930.786 394.693 930.778 394.732L930.161 397.914H932.369C934.051 397.914 935.192 398.21 935.856 398.82C936.533 399.442 936.745 400.437 936.484 401.778L935.293 407.912C935.28 407.974 935.247 408.029 935.199 408.069C935.15 408.109 935.089 408.131 935.026 408.131H932.133V408.131Z" fill="white"/>
<path d="M930.512 394.138H927.664C927.538 394.138 927.416 394.182 927.318 394.262C927.221 394.342 927.155 394.454 927.131 394.577L924.569 407.756C924.554 407.835 924.557 407.916 924.576 407.993C924.596 408.071 924.633 408.143 924.684 408.205C924.734 408.266 924.798 408.316 924.871 408.35C924.943 408.384 925.022 408.402 925.102 408.402H927.95C928.076 408.402 928.198 408.358 928.295 408.278C928.392 408.198 928.459 408.087 928.483 407.963L929.864 400.852H931.693C932.54 400.852 932.718 401.033 932.725 401.041C932.776 401.096 932.844 401.351 932.732 401.925L931.6 407.756C931.584 407.835 931.587 407.916 931.606 407.993C931.626 408.071 931.663 408.143 931.714 408.205C931.765 408.266 931.829 408.316 931.901 408.35C931.973 408.384 932.052 408.402 932.132 408.402H935.026C935.152 408.402 935.274 408.358 935.371 408.278C935.468 408.198 935.534 408.087 935.559 407.963L936.75 401.83C937.03 400.391 936.791 399.311 936.039 398.621C935.322 397.962 934.121 397.642 932.368 397.642H930.489L931.044 394.785C931.06 394.706 931.057 394.625 931.038 394.547C931.018 394.47 930.981 394.398 930.93 394.336C930.88 394.274 930.816 394.224 930.743 394.19C930.671 394.156 930.592 394.138 930.512 394.138ZM930.512 394.681L929.831 398.184H932.368C933.965 398.184 935.066 398.463 935.672 399.02C936.278 399.577 936.46 400.479 936.218 401.727L935.026 407.86H932.132L933.266 402.028C933.394 401.365 933.347 400.913 933.123 400.671C932.899 400.43 932.423 400.31 931.694 400.31H929.417L927.95 407.859H925.101L927.663 394.68H930.512V394.681Z" fill="black"/>
<path d="M940.991 405.509C942.082 405.509 942.896 405.308 943.412 404.911C943.921 404.518 944.273 403.838 944.458 402.89C944.63 402.003 944.565 401.384 944.263 401.05C943.955 400.708 943.289 400.535 942.284 400.535H940.54L939.573 405.509H940.991ZM935.289 411.635C935.249 411.635 935.209 411.626 935.173 411.609C935.137 411.592 935.105 411.567 935.079 411.536C935.054 411.505 935.036 411.469 935.026 411.43C935.016 411.391 935.015 411.351 935.023 411.312L937.584 398.133C937.596 398.071 937.629 398.015 937.678 397.975C937.727 397.935 937.787 397.914 937.85 397.914H943.371C945.106 397.914 946.398 398.385 947.209 399.314C948.025 400.248 948.277 401.554 947.958 403.195C947.836 403.841 947.612 404.464 947.295 405.04C946.971 405.612 946.559 406.129 946.073 406.571C945.475 407.131 944.797 407.537 944.062 407.776C943.339 408.012 942.409 408.131 941.3 408.131H939.064L938.427 411.416C938.415 411.477 938.381 411.533 938.333 411.573C938.284 411.613 938.223 411.635 938.16 411.635H935.289Z" fill="white"/>
<path d="M940.764 400.807H942.284C943.497 400.807 943.919 401.073 944.062 401.232C944.3 401.495 944.345 402.051 944.192 402.838C944.02 403.72 943.702 404.345 943.246 404.696C942.779 405.055 942.02 405.237 940.991 405.237H939.903L940.764 400.807ZM943.371 397.642H937.85C937.724 397.643 937.602 397.686 937.505 397.766C937.408 397.846 937.342 397.958 937.318 398.081L934.756 411.26C934.741 411.339 934.743 411.42 934.763 411.497C934.783 411.575 934.819 411.647 934.87 411.709C934.921 411.77 934.985 411.82 935.057 411.854C935.13 411.888 935.209 411.906 935.289 411.906H938.16C938.286 411.906 938.408 411.862 938.505 411.782C938.602 411.702 938.668 411.591 938.692 411.467L939.288 408.402H941.3C942.437 408.402 943.395 408.278 944.146 408.033C944.918 407.783 945.629 407.357 946.258 406.769C946.764 406.308 947.194 405.769 947.531 405.173C947.856 404.592 948.089 403.943 948.224 403.246C948.56 401.519 948.288 400.135 947.413 399.135C946.548 398.144 945.188 397.642 943.37 397.642L943.371 397.642ZM939.245 405.78H940.991C942.148 405.78 943.01 405.562 943.577 405.125C944.144 404.689 944.526 403.961 944.724 402.941C944.914 401.962 944.828 401.271 944.464 400.868C944.101 400.466 943.374 400.264 942.284 400.264H940.317L939.245 405.78ZM943.371 398.184C945.031 398.184 946.243 398.62 947.005 399.492C947.766 400.364 947.996 401.58 947.692 403.142C947.567 403.786 947.355 404.375 947.057 404.907C946.759 405.441 946.37 405.928 945.889 406.371C945.316 406.907 944.679 407.29 943.978 407.517C943.277 407.746 942.385 407.859 941.3 407.859H938.841L938.159 411.363H935.288L937.85 398.184H943.371Z" fill="black"/>
</g>
<circle cx="776.838" cy="364.623" r="7.16599" fill="url(#paint12_linear_79_654)"/>
<path d="M836.574 400.576C836.574 401.552 836.35 402.448 835.902 403.264C835.454 404.064 834.766 404.712 833.838 405.208C832.91 405.704 831.758 405.952 830.382 405.952H827.838V412H823.734V395.152H830.382C831.726 395.152 832.862 395.384 833.79 395.848C834.718 396.312 835.414 396.952 835.878 397.768C836.342 398.584 836.574 399.52 836.574 400.576ZM830.07 402.688C830.854 402.688 831.438 402.504 831.822 402.136C832.206 401.768 832.398 401.248 832.398 400.576C832.398 399.904 832.206 399.384 831.822 399.016C831.438 398.648 830.854 398.464 830.07 398.464H827.838V402.688H830.07ZM853.303 395.152V412H849.199V405.064H842.815V412H838.711V395.152H842.815V401.752H849.199V395.152H853.303ZM869.105 400.576C869.105 401.552 868.881 402.448 868.433 403.264C867.985 404.064 867.297 404.712 866.369 405.208C865.441 405.704 864.289 405.952 862.913 405.952H860.369V412H856.265V395.152H862.913C864.257 395.152 865.393 395.384 866.321 395.848C867.249 396.312 867.945 396.952 868.409 397.768C868.873 398.584 869.105 399.52 869.105 400.576ZM862.601 402.688C863.385 402.688 863.969 402.504 864.353 402.136C864.737 401.768 864.929 401.248 864.929 400.576C864.929 399.904 864.737 399.384 864.353 399.016C863.969 398.648 863.385 398.464 862.601 398.464H860.369V402.688H862.601Z" fill="black"/>
<g filter="url(#filter10_d_79_654)">
<path d="M856.142 31.6426C806.211 31.6426 765.851 69.3495 765.851 115.724C765.851 162.098 806.21 199.805 856.142 199.805C906.073 199.805 946.434 162.098 946.434 115.724C946.433 69.3494 906.073 31.6426 856.142 31.6426Z" stroke="black" stroke-width="1.91093" shape-rendering="crispEdges"/>
</g>
<path d="M845.697 207.145C858.613 208.183 871.608 206.557 883.85 202.369C896.092 198.181 907.312 191.524 916.792 182.823C926.273 174.123 933.805 163.571 938.908 151.841C944.011 140.112 946.572 127.463 946.428 114.703C946.283 101.944 943.437 89.354 938.07 77.7392C932.703 66.1244 924.934 55.74 915.259 47.2498C905.584 38.7595 894.216 32.3503 881.883 28.4318C869.549 24.5134 856.521 23.1718 843.631 24.4929L844.922 36.7044C856.086 35.5601 867.371 36.7221 878.054 40.1161C888.736 43.5101 898.582 49.0614 906.962 56.4152C915.342 63.769 922.071 72.7635 926.72 82.8236C931.369 92.8838 933.834 103.788 933.959 114.84C934.084 125.892 931.866 136.848 927.446 147.007C923.026 157.167 916.502 166.307 908.29 173.842C900.079 181.378 890.361 187.144 879.758 190.771C869.154 194.399 857.899 195.808 846.711 194.909L845.697 207.145Z" fill="url(#paint13_linear_79_654)"/>
<g filter="url(#filter11_d_79_654)">
<circle cx="34.8745" cy="34.8745" r="34.8745" transform="matrix(-1 0 0 1 964.587 80.3711)" fill="white"/>
<circle cx="25.3198" cy="25.3198" r="25.3198" transform="matrix(-1 0 0 1 955.032 89.9258)" fill="url(#paint14_linear_79_654)"/>
<path fill-rule="evenodd" clip-rule="evenodd" d="M930.697 100.336C922.328 100.186 915.335 106.977 915.333 115.212C915.331 123.684 922.001 130.443 930.357 130.431C938.635 130.418 945.336 123.685 945.336 115.378C945.336 107.207 938.666 100.478 930.697 100.336ZM930.338 129.675C922.424 129.677 916.059 123.26 916.059 115.279C916.06 107.504 922.523 101.067 930.332 101.064C938.28 101.062 944.612 107.518 944.61 115.623C944.607 123.273 938.107 129.674 930.338 129.675ZM937.962 111.129C937.651 110.618 937.269 110.121 937.094 109.563C936.894 108.928 936.728 108.205 936.834 107.568C937.014 106.489 937.841 105.953 938.962 105.851C932.83 100.159 923.193 102.196 919.642 108.38C921.009 108.317 922.314 108.234 923.62 108.217C923.867 108.213 924.276 108.422 924.334 108.616C924.464 109.048 924.101 109.199 923.714 109.229C923.307 109.261 922.9 109.291 922.428 109.327L927.095 123.232C927.207 123.048 927.253 122.997 927.274 122.936C928.137 120.357 929.005 117.778 929.846 115.191C929.923 114.955 929.885 114.643 929.801 114.4C929.356 113.116 928.822 111.859 928.432 110.558C928.165 109.668 927.811 109.092 926.759 109.195C926.579 109.213 926.361 108.827 926.16 108.628C926.403 108.483 926.644 108.217 926.889 108.213C929.031 108.18 931.175 108.181 933.317 108.215C933.563 108.219 933.804 108.493 934.047 108.641C933.834 108.835 933.651 109.127 933.402 109.202C933.004 109.322 932.561 109.299 932.084 109.342L936.757 123.243C937.465 120.892 938.124 118.732 938.764 116.568C939.336 114.636 938.995 112.831 937.962 111.129ZM926.778 127.446C926.749 127.53 926.747 127.622 926.725 127.761C929.368 128.493 931.96 128.441 934.613 127.547L930.56 116.447C929.263 120.217 928.019 123.831 926.778 127.446ZM924.736 126.944L918.63 110.196C915.876 115.576 917.971 123.785 924.736 126.944ZM941.752 109.631C941.667 110.567 941.726 111.608 941.458 112.557C940.826 114.792 940.053 116.988 939.309 119.191C938.5 121.584 937.659 123.968 936.831 126.355C940.718 124.052 942.854 120.651 943.194 116.182C943.387 113.638 942.51 110.116 941.752 109.631Z" fill="white"/>
</g>
<circle cx="773.972" cy="149.643" r="7.16599" fill="url(#paint15_linear_79_654)"/>
<path d="M837.133 95.152L832.741 112H827.773L825.085 100.912L822.301 112H817.333L813.061 95.152H817.453L819.877 107.416L822.877 95.152H827.389L830.269 107.416L832.717 95.152H837.133ZM845.287 112.192C843.975 112.192 842.791 111.912 841.735 111.352C840.695 110.792 839.871 109.992 839.263 108.952C838.671 107.912 838.375 106.696 838.375 105.304C838.375 103.928 838.679 102.72 839.287 101.68C839.895 100.624 840.727 99.816 841.783 99.256C842.839 98.696 844.023 98.416 845.335 98.416C846.647 98.416 847.831 98.696 848.887 99.256C849.943 99.816 850.775 100.624 851.383 101.68C851.991 102.72 852.295 103.928 852.295 105.304C852.295 106.68 851.983 107.896 851.359 108.952C850.751 109.992 849.911 110.792 848.839 111.352C847.783 111.912 846.599 112.192 845.287 112.192ZM845.287 108.64C846.071 108.64 846.735 108.352 847.279 107.776C847.839 107.2 848.119 106.376 848.119 105.304C848.119 104.232 847.847 103.408 847.303 102.832C846.775 102.256 846.119 101.968 845.335 101.968C844.535 101.968 843.871 102.256 843.343 102.832C842.815 103.392 842.551 104.216 842.551 105.304C842.551 106.376 842.807 107.2 843.319 107.776C843.847 108.352 844.503 108.64 845.287 108.64ZM858.576 100.84C859.056 100.104 859.656 99.528 860.376 99.112C861.096 98.68 861.896 98.464 862.776 98.464V102.808H861.648C860.624 102.808 859.856 103.032 859.344 103.48C858.832 103.912 858.576 104.68 858.576 105.784V112H854.472V98.608H858.576V100.84ZM863.922 105.28C863.922 103.904 864.178 102.696 864.69 101.656C865.218 100.616 865.93 99.816 866.826 99.256C867.722 98.696 868.722 98.416 869.826 98.416C870.706 98.416 871.506 98.6 872.226 98.968C872.962 99.336 873.538 99.832 873.954 100.456V94.24H878.058V112H873.954V110.08C873.57 110.72 873.018 111.232 872.298 111.616C871.594 112 870.77 112.192 869.826 112.192C868.722 112.192 867.722 111.912 866.826 111.352C865.93 110.776 865.218 109.968 864.69 108.928C864.178 107.872 863.922 106.656 863.922 105.28ZM873.954 105.304C873.954 104.28 873.666 103.472 873.09 102.88C872.53 102.288 871.842 101.992 871.026 101.992C870.21 101.992 869.514 102.288 868.938 102.88C868.378 103.456 868.098 104.256 868.098 105.28C868.098 106.304 868.378 107.12 868.938 107.728C869.514 108.32 870.21 108.616 871.026 108.616C871.842 108.616 872.53 108.32 873.09 107.728C873.666 107.136 873.954 106.328 873.954 105.304ZM817.537 125.504C817.937 124.88 818.489 124.376 819.193 123.992C819.897 123.608 820.721 123.416 821.665 123.416C822.769 123.416 823.769 123.696 824.665 124.256C825.561 124.816 826.265 125.616 826.777 126.656C827.305 127.696 827.569 128.904 827.569 130.28C827.569 131.656 827.305 132.872 826.777 133.928C826.265 134.968 825.561 135.776 824.665 136.352C823.769 136.912 822.769 137.192 821.665 137.192C820.737 137.192 819.913 137 819.193 136.616C818.489 136.232 817.937 135.736 817.537 135.128V143.384H813.433V123.608H817.537V125.504ZM823.393 130.28C823.393 129.256 823.105 128.456 822.529 127.88C821.969 127.288 821.273 126.992 820.441 126.992C819.625 126.992 818.929 127.288 818.353 127.88C817.793 128.472 817.513 129.28 817.513 130.304C817.513 131.328 817.793 132.136 818.353 132.728C818.929 133.32 819.625 133.616 820.441 133.616C821.257 133.616 821.953 133.32 822.529 132.728C823.105 132.12 823.393 131.304 823.393 130.28ZM833.826 125.84C834.306 125.104 834.906 124.528 835.626 124.112C836.346 123.68 837.146 123.464 838.026 123.464V127.808H836.898C835.874 127.808 835.106 128.032 834.594 128.48C834.082 128.912 833.826 129.68 833.826 130.784V137H829.722V123.608H833.826V125.84ZM852.612 130.088C852.612 130.472 852.588 130.872 852.54 131.288H843.252C843.316 132.12 843.58 132.76 844.044 133.208C844.524 133.64 845.108 133.856 845.796 133.856C846.82 133.856 847.532 133.424 847.932 132.56H852.3C852.076 133.44 851.668 134.232 851.076 134.936C850.5 135.64 849.772 136.192 848.892 136.592C848.012 136.992 847.028 137.192 845.94 137.192C844.628 137.192 843.46 136.912 842.436 136.352C841.412 135.792 840.612 134.992 840.036 133.952C839.46 132.912 839.172 131.696 839.172 130.304C839.172 128.912 839.452 127.696 840.012 126.656C840.588 125.616 841.388 124.816 842.412 124.256C843.436 123.696 844.612 123.416 845.94 123.416C847.236 123.416 848.388 123.688 849.396 124.232C850.404 124.776 851.188 125.552 851.748 126.56C852.324 127.568 852.612 128.744 852.612 130.088ZM848.412 129.008C848.412 128.304 848.172 127.744 847.692 127.328C847.212 126.912 846.612 126.704 845.892 126.704C845.204 126.704 844.62 126.904 844.14 127.304C843.676 127.704 843.388 128.272 843.276 129.008H848.412ZM860.225 137.192C859.057 137.192 858.017 136.992 857.105 136.592C856.193 136.192 855.473 135.648 854.945 134.96C854.417 134.256 854.121 133.472 854.057 132.608H858.113C858.161 133.072 858.377 133.448 858.761 133.736C859.145 134.024 859.617 134.168 860.177 134.168C860.689 134.168 861.081 134.072 861.353 133.88C861.641 133.672 861.785 133.408 861.785 133.088C861.785 132.704 861.585 132.424 861.185 132.248C860.785 132.056 860.137 131.848 859.241 131.624C858.281 131.4 857.481 131.168 856.841 130.928C856.201 130.672 855.649 130.28 855.185 129.752C854.721 129.208 854.489 128.48 854.489 127.568C854.489 126.8 854.697 126.104 855.113 125.48C855.545 124.84 856.169 124.336 856.985 123.968C857.817 123.6 858.801 123.416 859.937 123.416C861.617 123.416 862.937 123.832 863.897 124.664C864.873 125.496 865.433 126.6 865.577 127.976H861.785C861.721 127.512 861.513 127.144 861.161 126.872C860.825 126.6 860.377 126.464 859.817 126.464C859.337 126.464 858.969 126.56 858.713 126.752C858.457 126.928 858.329 127.176 858.329 127.496C858.329 127.88 858.529 128.168 858.929 128.36C859.345 128.552 859.985 128.744 860.849 128.936C861.841 129.192 862.649 129.448 863.273 129.704C863.897 129.944 864.441 130.344 864.905 130.904C865.385 131.448 865.633 132.184 865.649 133.112C865.649 133.896 865.425 134.6 864.977 135.224C864.545 135.832 863.913 136.312 863.081 136.664C862.265 137.016 861.313 137.192 860.225 137.192ZM873.608 137.192C872.44 137.192 871.4 136.992 870.488 136.592C869.576 136.192 868.856 135.648 868.328 134.96C867.8 134.256 867.504 133.472 867.44 132.608H871.496C871.544 133.072 871.76 133.448 872.144 133.736C872.528 134.024 873 134.168 873.56 134.168C874.072 134.168 874.464 134.072 874.736 133.88C875.024 133.672 875.168 133.408 875.168 133.088C875.168 132.704 874.968 132.424 874.568 132.248C874.168 132.056 873.52 131.848 872.624 131.624C871.664 131.4 870.864 131.168 870.224 130.928C869.584 130.672 869.032 130.28 868.568 129.752C868.104 129.208 867.872 128.48 867.872 127.568C867.872 126.8 868.08 126.104 868.496 125.48C868.928 124.84 869.552 124.336 870.368 123.968C871.2 123.6 872.184 123.416 873.32 123.416C875 123.416 876.32 123.832 877.28 124.664C878.256 125.496 878.816 126.6 878.96 127.976H875.168C875.104 127.512 874.896 127.144 874.544 126.872C874.208 126.6 873.76 126.464 873.2 126.464C872.72 126.464 872.352 126.56 872.096 126.752C871.84 126.928 871.712 127.176 871.712 127.496C871.712 127.88 871.912 128.168 872.312 128.36C872.728 128.552 873.368 128.744 874.232 128.936C875.224 129.192 876.032 129.448 876.656 129.704C877.28 129.944 877.824 130.344 878.288 130.904C878.768 131.448 879.016 132.184 879.032 133.112C879.032 133.896 878.808 134.6 878.36 135.224C877.928 135.832 877.296 136.312 876.464 136.664C875.648 137.016 874.696 137.192 873.608 137.192Z" fill="black"/>
<line x1="746.741" y1="258.567" x2="931.146" y2="258.567" stroke="black" stroke-width="2.8664"/>
<line x1="312.004" y1="258.567" x2="492.587" y2="258.567" stroke="black" stroke-width="2.8664"/>
<circle cx="305.794" cy="258.568" r="7.16599" fill="url(#paint16_linear_79_654)"/>
<circle cx="935.445" cy="258.568" r="7.16599" fill="url(#paint17_linear_79_654)"/>
<defs>
<filter id="filter0_d_79_654" x="102.757" y="166.365" width="208.291" height="191.093" filterUnits="userSpaceOnUse" color-interpolation-filters="sRGB">
<feFlood flood-opacity="0" result="BackgroundImageFix"/>
<feColorMatrix in="SourceAlpha" type="matrix" values="0 0 0 0 0 0 0 0 0 0 0 0 0 0 0 0 0 0 127 0" result="hardAlpha"/>
<feOffset dy="2.8664"/>
<feGaussianBlur stdDeviation="1.91093"/>
<feComposite in2="hardAlpha" operator="out"/>
<feColorMatrix type="matrix" values="0 0 0 0 0 0 0 0 0 0 0 0 0 0 0 0 0 0 0.3 0"/>
<feBlend mode="normal" in2="BackgroundImageFix" result="effect1_dropShadow_79_654"/>
<feBlend mode="normal" in="SourceGraphic" in2="effect1_dropShadow_79_654" result="shape"/>
</filter>
<filter id="filter1_d_79_654" x="99.8908" y="223.691" width="76.4373" height="77.3927" filterUnits="userSpaceOnUse" color-interpolation-filters="sRGB">
<feFlood flood-opacity="0" result="BackgroundImageFix"/>
<feColorMatrix in="SourceAlpha" type="matrix" values="0 0 0 0 0 0 0 0 0 0 0 0 0 0 0 0 0 0 127 0" result="hardAlpha"/>
<feOffset dx="-4.77733" dy="5.73279"/>
<feGaussianBlur stdDeviation="0.955466"/>
<feComposite in2="hardAlpha" operator="out"/>
<feColorMatrix type="matrix" values="0 0 0 0 0 0 0 0 0 0 0 0 0 0 0 0 0 0 0.32 0"/>
<feBlend mode="normal" in2="BackgroundImageFix" result="effect1_dropShadow_79_654"/>
<feBlend mode="normal" in="SourceGraphic" in2="effect1_dropShadow_79_654" result="shape"/>
</filter>
<filter id="filter2_d_79_654" x="287.162" y="29.732" width="190.138" height="177.716" filterUnits="userSpaceOnUse" color-interpolation-filters="sRGB">
<feFlood flood-opacity="0" result="BackgroundImageFix"/>
<feColorMatrix in="SourceAlpha" type="matrix" values="0 0 0 0 0 0 0 0 0 0 0 0 0 0 0 0 0 0 127 0" result="hardAlpha"/>
<feOffset dy="2.8664"/>
<feGaussianBlur stdDeviation="1.91093"/>
<feComposite in2="hardAlpha" operator="out"/>
<feColorMatrix type="matrix" values="0 0 0 0 0 0 0 0 0 0 0 0 0 0 0 0 0 0 0.3 0"/>
<feBlend mode="normal" in2="BackgroundImageFix" result="effect1_dropShadow_79_654"/>
<feBlend mode="normal" in="SourceGraphic" in2="effect1_dropShadow_79_654" result="shape"/>
</filter>
<filter id="filter3_d_79_654" x="267.097" y="80.3711" width="76.4373" height="77.3927" filterUnits="userSpaceOnUse" color-interpolation-filters="sRGB">
<feFlood flood-opacity="0" result="BackgroundImageFix"/>
<feColorMatrix in="SourceAlpha" type="matrix" values="0 0 0 0 0 0 0 0 0 0 0 0 0 0 0 0 0 0 127 0" result="hardAlpha"/>
<feOffset dx="-4.77733" dy="5.73279"/>
<feGaussianBlur stdDeviation="0.955466"/>
<feComposite in2="hardAlpha" operator="out"/>
<feColorMatrix type="matrix" values="0 0 0 0 0 0 0 0 0 0 0 0 0 0 0 0 0 0 0.32 0"/>
<feBlend mode="normal" in2="BackgroundImageFix" result="effect1_dropShadow_79_654"/>
<feBlend mode="normal" in="SourceGraphic" in2="effect1_dropShadow_79_654" result="shape"/>
</filter>
<filter id="filter4_d_79_654" x="287.162" y="318.283" width="190.138" height="177.716" filterUnits="userSpaceOnUse" color-interpolation-filters="sRGB">
<feFlood flood-opacity="0" result="BackgroundImageFix"/>
<feColorMatrix in="SourceAlpha" type="matrix" values="0 0 0 0 0 0 0 0 0 0 0 0 0 0 0 0 0 0 127 0" result="hardAlpha"/>
<feOffset dy="2.8664"/>
<feGaussianBlur stdDeviation="1.91093"/>
<feComposite in2="hardAlpha" operator="out"/>
<feColorMatrix type="matrix" values="0 0 0 0 0 0 0 0 0 0 0 0 0 0 0 0 0 0 0.3 0"/>
<feBlend mode="normal" in2="BackgroundImageFix" result="effect1_dropShadow_79_654"/>
<feBlend mode="normal" in="SourceGraphic" in2="effect1_dropShadow_79_654" result="shape"/>
</filter>
<filter id="filter5_d_79_654" x="267.097" y="368.922" width="76.4373" height="77.3927" filterUnits="userSpaceOnUse" color-interpolation-filters="sRGB">
<feFlood flood-opacity="0" result="BackgroundImageFix"/>
<feColorMatrix in="SourceAlpha" type="matrix" values="0 0 0 0 0 0 0 0 0 0 0 0 0 0 0 0 0 0 127 0" result="hardAlpha"/>
<feOffset dx="-4.77733" dy="5.73279"/>
<feGaussianBlur stdDeviation="0.955466"/>
<feComposite in2="hardAlpha" operator="out"/>
<feColorMatrix type="matrix" values="0 0 0 0 0 0 0 0 0 0 0 0 0 0 0 0 0 0 0.32 0"/>
<feBlend mode="normal" in2="BackgroundImageFix" result="effect1_dropShadow_79_654"/>
<feBlend mode="normal" in="SourceGraphic" in2="effect1_dropShadow_79_654" result="shape"/>
</filter>
<filter id="filter6_d_79_654" x="930.19" y="173.052" width="190.138" height="177.716" filterUnits="userSpaceOnUse" color-interpolation-filters="sRGB">
<feFlood flood-opacity="0" result="BackgroundImageFix"/>
<feColorMatrix in="SourceAlpha" type="matrix" values="0 0 0 0 0 0 0 0 0 0 0 0 0 0 0 0 0 0 127 0" result="hardAlpha"/>
<feOffset dy="2.8664"/>
<feGaussianBlur stdDeviation="1.91093"/>
<feComposite in2="hardAlpha" operator="out"/>
<feColorMatrix type="matrix" values="0 0 0 0 0 0 0 0 0 0 0 0 0 0 0 0 0 0 0.3 0"/>
<feBlend mode="normal" in2="BackgroundImageFix" result="effect1_dropShadow_79_654"/>
<feBlend mode="normal" in="SourceGraphic" in2="effect1_dropShadow_79_654" result="shape"/>
</filter>
<filter id="filter7_d_79_654" x="1057.27" y="223.691" width="76.4373" height="77.3927" filterUnits="userSpaceOnUse" color-interpolation-filters="sRGB">
<feFlood flood-opacity="0" result="BackgroundImageFix"/>
<feColorMatrix in="SourceAlpha" type="matrix" values="0 0 0 0 0 0 0 0 0 0 0 0 0 0 0 0 0 0 127 0" result="hardAlpha"/>
<feOffset dx="-4.77733" dy="5.73279"/>
<feGaussianBlur stdDeviation="0.955466"/>
<feComposite in2="hardAlpha" operator="out"/>
<feColorMatrix type="matrix" values="0 0 0 0 0 0 0 0 0 0 0 0 0 0 0 0 0 0 0.32 0"/>
<feBlend mode="normal" in2="BackgroundImageFix" result="effect1_dropShadow_79_654"/>
<feBlend mode="normal" in="SourceGraphic" in2="effect1_dropShadow_79_654" result="shape"/>
</filter>
<filter id="filter8_d_79_654" x="761.073" y="318.283" width="190.138" height="177.717" filterUnits="userSpaceOnUse" color-interpolation-filters="sRGB">
<feFlood flood-opacity="0" result="BackgroundImageFix"/>
<feColorMatrix in="SourceAlpha" type="matrix" values="0 0 0 0 0 0 0 0 0 0 0 0 0 0 0 0 0 0 127 0" result="hardAlpha"/>
<feOffset dy="2.8664"/>
<feGaussianBlur stdDeviation="1.91093"/>
<feComposite in2="hardAlpha" operator="out"/>
<feColorMatrix type="matrix" values="0 0 0 0 0 0 0 0 0 0 0 0 0 0 0 0 0 0 0.3 0"/>
<feBlend mode="normal" in2="BackgroundImageFix" result="effect1_dropShadow_79_654"/>
<feBlend mode="normal" in="SourceGraphic" in2="effect1_dropShadow_79_654" result="shape"/>
</filter>
<filter id="filter9_d_79_654" x="888.15" y="368.921" width="76.4373" height="77.3927" filterUnits="userSpaceOnUse" color-interpolation-filters="sRGB">
<feFlood flood-opacity="0" result="BackgroundImageFix"/>
<feColorMatrix in="SourceAlpha" type="matrix" values="0 0 0 0 0 0 0 0 0 0 0 0 0 0 0 0 0 0 127 0" result="hardAlpha"/>
<feOffset dx="-4.77733" dy="5.73279"/>
<feGaussianBlur stdDeviation="0.955466"/>
<feComposite in2="hardAlpha" operator="out"/>
<feColorMatrix type="matrix" values="0 0 0 0 0 0 0 0 0 0 0 0 0 0 0 0 0 0 0.32 0"/>
<feBlend mode="normal" in2="BackgroundImageFix" result="effect1_dropShadow_79_654"/>
<feBlend mode="normal" in="SourceGraphic" in2="effect1_dropShadow_79_654" result="shape"/>
</filter>
<filter id="filter10_d_79_654" x="761.073" y="29.732" width="190.138" height="177.716" filterUnits="userSpaceOnUse" color-interpolation-filters="sRGB">
<feFlood flood-opacity="0" result="BackgroundImageFix"/>
<feColorMatrix in="SourceAlpha" type="matrix" values="0 0 0 0 0 0 0 0 0 0 0 0 0 0 0 0 0 0 127 0" result="hardAlpha"/>
<feOffset dy="2.8664"/>
<feGaussianBlur stdDeviation="1.91093"/>
<feComposite in2="hardAlpha" operator="out"/>
<feColorMatrix type="matrix" values="0 0 0 0 0 0 0 0 0 0 0 0 0 0 0 0 0 0 0.3 0"/>
<feBlend mode="normal" in2="BackgroundImageFix" result="effect1_dropShadow_79_654"/>
<feBlend mode="normal" in="SourceGraphic" in2="effect1_dropShadow_79_654" result="shape"/>
</filter>
<filter id="filter11_d_79_654" x="888.15" y="80.3711" width="76.4373" height="77.3927" filterUnits="userSpaceOnUse" color-interpolation-filters="sRGB">
<feFlood flood-opacity="0" result="BackgroundImageFix"/>
<feColorMatrix in="SourceAlpha" type="matrix" values="0 0 0 0 0 0 0 0 0 0 0 0 0 0 0 0 0 0 127 0" result="hardAlpha"/>
<feOffset dx="-4.77733" dy="5.73279"/>
<feGaussianBlur stdDeviation="0.955466"/>
<feComposite in2="hardAlpha" operator="out"/>
<feColorMatrix type="matrix" values="0 0 0 0 0 0 0 0 0 0 0 0 0 0 0 0 0 0 0.32 0"/>
<feBlend mode="normal" in2="BackgroundImageFix" result="effect1_dropShadow_79_654"/>
<feBlend mode="normal" in="SourceGraphic" in2="effect1_dropShadow_79_654" result="shape"/>
</filter>
<linearGradient id="paint0_linear_79_654" x1="217.89" y1="167.32" x2="217.89" y2="350.77" gradientUnits="userSpaceOnUse">
<stop stop-color="#E40D25"/>
<stop offset="0.73" stop-color="#262250"/>
</linearGradient>
<linearGradient id="paint1_linear_79_654" x1="141.454" y1="233.246" x2="141.454" y2="283.886" gradientUnits="userSpaceOnUse">
<stop stop-color="#E40D25"/>
<stop offset="0.73" stop-color="#262250"/>
</linearGradient>
<linearGradient id="paint2_linear_79_654" x1="385.097" y1="24" x2="385.097" y2="207.449" gradientUnits="userSpaceOnUse">
<stop stop-color="#E40D25"/>
<stop offset="0.73" stop-color="#262250"/>
</linearGradient>
<linearGradient id="paint3_linear_79_654" x1="308.66" y1="89.9258" x2="308.66" y2="140.566" gradientUnits="userSpaceOnUse">
<stop stop-color="#E40D25"/>
<stop offset="0.73" stop-color="#262250"/>
</linearGradient>
<linearGradient id="paint4_linear_79_654" x1="468.223" y1="131.969" x2="468.223" y2="146.301" gradientUnits="userSpaceOnUse">
<stop stop-color="#E40D25"/>
<stop offset="0.73" stop-color="#262250"/>
</linearGradient>
<linearGradient id="paint5_linear_79_654" x1="385.097" y1="312.551" x2="385.097" y2="496" gradientUnits="userSpaceOnUse">
<stop stop-color="#E40D25"/>
<stop offset="0.73" stop-color="#262250"/>
</linearGradient>
<linearGradient id="paint6_linear_79_654" x1="308.66" y1="378.477" x2="308.66" y2="429.116" gradientUnits="userSpaceOnUse">
<stop stop-color="#E40D25"/>
<stop offset="0.73" stop-color="#262250"/>
</linearGradient>
<linearGradient id="paint7_linear_79_654" x1="467.268" y1="368.922" x2="467.268" y2="383.254" gradientUnits="userSpaceOnUse">
<stop stop-color="#E40D25"/>
<stop offset="0.73" stop-color="#262250"/>
</linearGradient>
<linearGradient id="paint8_linear_79_654" x1="1022.39" y1="167.32" x2="1022.39" y2="350.77" gradientUnits="userSpaceOnUse">
<stop stop-color="#E40D25"/>
<stop offset="0.73" stop-color="#262250"/>
</linearGradient>
<linearGradient id="paint9_linear_79_654" x1="25.3198" y1="50.6397" x2="25.3198" y2="0" gradientUnits="userSpaceOnUse">
<stop stop-color="#E40D25"/>
<stop offset="0.73" stop-color="#262250"/>
</linearGradient>
<linearGradient id="paint10_linear_79_654" x1="853.276" y1="312.55" x2="853.276" y2="496" gradientUnits="userSpaceOnUse">
<stop stop-color="#E40D25"/>
<stop offset="0.73" stop-color="#262250"/>
</linearGradient>
<linearGradient id="paint11_linear_79_654" x1="25.3198" y1="50.6397" x2="25.3198" y2="0" gradientUnits="userSpaceOnUse">
<stop stop-color="#E40D25"/>
<stop offset="0.73" stop-color="#262250"/>
</linearGradient>
<linearGradient id="paint12_linear_79_654" x1="776.838" y1="371.789" x2="776.838" y2="357.457" gradientUnits="userSpaceOnUse">
<stop stop-color="#E40D25"/>
<stop offset="0.73" stop-color="#262250"/>
</linearGradient>
<linearGradient id="paint13_linear_79_654" x1="853.276" y1="24" x2="853.276" y2="207.449" gradientUnits="userSpaceOnUse">
<stop stop-color="#E40D25"/>
<stop offset="0.73" stop-color="#262250"/>
</linearGradient>
<linearGradient id="paint14_linear_79_654" x1="25.3198" y1="50.6397" x2="25.3198" y2="0" gradientUnits="userSpaceOnUse">
<stop stop-color="#E40D25"/>
<stop offset="0.73" stop-color="#262250"/>
</linearGradient>
<linearGradient id="paint15_linear_79_654" x1="773.972" y1="156.809" x2="773.972" y2="142.477" gradientUnits="userSpaceOnUse">
<stop stop-color="#E40D25"/>
<stop offset="0.73" stop-color="#262250"/>
</linearGradient>
<linearGradient id="paint16_linear_79_654" x1="305.794" y1="251.402" x2="305.794" y2="265.734" gradientUnits="userSpaceOnUse">
<stop stop-color="#E40D25"/>
<stop offset="0.73" stop-color="#262250"/>
</linearGradient>
<linearGradient id="paint17_linear_79_654" x1="935.445" y1="265.734" x2="935.445" y2="251.402" gradientUnits="userSpaceOnUse">
<stop stop-color="#E40D25"/>
<stop offset="0.73" stop-color="#262250"/>
</linearGradient>
<clipPath id="clip0_79_654">
<rect width="50.64" height="50.64" fill="white" transform="translate(283.34 89.9258)"/>
</clipPath>
</defs>
</svg>
