<?xml version="1.0" encoding="UTF-8"?>
<!-- Generator: Adobe Illustrator 26.0.1, SVG Export Plug-In . SVG Version: 6.00 Build 0)  -->
<svg xmlns="http://www.w3.org/2000/svg" xmlns:xlink="http://www.w3.org/1999/xlink" version="1.1" id="Layer_1" x="0px" y="0px" viewBox="0 0 178.7 43.6" style="enable-background:new 0 0 178.7 43.6;" xml:space="preserve">
<style type="text/css">
	.st0{fill:url(#SVGID_1_);}
	.st1{fill:url(#SVGID_00000039112427794000898400000014920039921713690014_);}
	.st2{fill:url(#SVGID_00000078745435160579565930000002389943783080746682_);}
	.st3{fill:url(#SVGID_00000067231153441186393090000013658406640873324475_);}
	.st4{fill:url(#SVGID_00000156564635455294951140000017452192947055123873_);}
	.st5{fill:url(#SVGID_00000038385963458011738370000004249921413673242760_);}
	.st6{fill:url(#SVGID_00000154408256291993573000000011170691635098868901_);}
	.st7{fill:url(#SVGID_00000022559493667069861380000009448978233185191845_);}
	.st8{fill:url(#SVGID_00000106131171221570394200000009974157864242129549_);}
	.st9{fill:#E40D25;}
	.st10{fill:#91192C;}
</style>
<linearGradient id="SVGID_1_" gradientUnits="userSpaceOnUse" x1="145.76" y1="24.0425" x2="176.69" y2="24.0425" gradientTransform="matrix(1 0 0 -1 0 44)">
	<stop offset="0" style="stop-color:#262250"></stop>
	<stop offset="0.9793" style="stop-color:#262250"></stop>
</linearGradient>
<path className="st0" d="M148.7,7.2c-0.9,0.8-1.6,1.8-2.4,2.7c0.1,0.1,0.1,0.2,0.2,0.3c0.4,0,0.8,0,1.1,0c2.1,0,4.3,0,6.4,0  c3.3,0.1,5.8,2.6,5.7,5.7s-2.5,5.4-5.9,5.4c-1.8,0-3.5,0-5.3,0c-1.2,0-2,0.7-2.3,1.8c-0.3,1.1,0.1,2.2,1.1,2.7  c0.5,0.2,1.1,0.4,1.7,0.4c2.9,0,5.7,0,8.6,0c1,0,1.7,0.7,1.7,1.5c0,0.8-0.7,1.6-1.6,1.5c-3.9-0.1-7.8,0.5-11.8-0.5  c4.4,4.7,9.8,6.3,16,5.4c-3.9,1.5-7.8,1.2-11.8-0.4c3.7,3.3,10.6,4.9,16.8,2.6c5.7-2.2,9.6-7.6,9.9-10.2c-0.4,0.3-0.8,0.7-1.2,1  c-2.8,2-5.8,2.5-9,1.1c-3.2-1.4-5.1-3.9-5.3-7.3c-0.2-3-0.1-6-0.1-9c0-0.9,0.6-1.5,1.5-1.6c0.9,0,1.5,0.5,1.6,1.4c0.1,0.3,0,0.6,0,1  c0,2.5,0,4.9,0,7.4c0.1,3.3,2.8,5.8,5.9,5.7c3.3-0.1,5.7-2.6,5.7-6c0-2.5,0-5,0-7.5c0-0.5-0.2-1.1-0.6-1.4  c-3.8-4.1-8.5-5.9-14.1-5.4c-0.3,0-0.6,0.1-1,0.1c-0.3,0-0.6,0.1-0.8,0.1c3.6-1.5,7.2-1.3,10.9-0.3c-1.6-0.9-3.3-1.6-5-2.3  c-0.9-0.3-1.9-0.5-2.8-0.7h-3.9c-0.2,0.1-0.5,0.2-0.7,0.2C154.4,3.3,151.3,4.8,148.7,7.2z"></path>
<linearGradient id="SVGID_00000103952455518237658690000012347126457502962357_" gradientUnits="userSpaceOnUse" x1="90.875" y1="27.7048" x2="140.4132" y2="27.7048" gradientTransform="matrix(1 0 0 -1 0 44)">
	<stop offset="0" style="stop-color:#262250"></stop>
	<stop offset="0.4922" style="stop-color:#262250"></stop>
</linearGradient>
<path style="fill:url(#SVGID_00000103952455518237658690000012347126457502962357_);" d="M123.7,4.6c0,2.9,0,5.7,0,8.6  c0,0.4,0,0.7-0.1,1.3c-0.4-0.3-0.6-0.4-0.9-0.6c-4-2.8-9.3-1.8-12.2,2.2c-2.2,3-4.6,6.1-6.9,9c-2.4,3-7,3-9.3-0.1  c-0.7-0.9-1-2.1-1.6-3.3c-0.6,0.7-1.2,1.4-1.8,2.2c-0.2,0.2-0.2,0.6-0.1,0.8c1.3,3,3.6,4.8,6.8,5.3c3,0.4,5.8-0.4,7.8-2.9  c2.6-3.2,5.1-6.5,7.7-9.8c1.7-2.1,4.5-2.8,6.9-1.7c2.5,1.1,3.9,3.6,3.5,6.3c-0.3,2.5-2.4,4.6-5,5.1c-2.5,0.4-5.1-0.9-6.3-3.3  c-0.3-0.7-0.5-1.4-0.8-2.2c-0.6,0.8-1.2,1.4-1.7,2.2c-0.2,0.3-0.3,0.9-0.1,1.2c1.6,3.6,5.9,5.8,9.7,4.8c1.7-0.4,3.2-1.4,4.9-2.2  c0.9,1.3,2.2,2.3,4.1,2.4c2.3,0,4.6,0,6.9,0c2.7-0.1,4.8-2.2,4.8-4.9c0.1-2.7-1.8-4.9-4.4-5.3c-0.8-0.1-1.6,0-2.4,0  c-1.6,0-2.6-0.9-2.6-2.2c0-1.4,1-2.3,2.6-2.4c1.4,0,2.8,0,4.2,0c0.9,0,1.4-0.5,1.4-1.4c0-0.9-0.6-1.4-1.4-1.4c-1.7,0-3.3-0.1-5,0  c-2.7,0.2-4.6,2.3-4.7,4.9c-0.1,2.7,1.8,4.9,4.5,5.2c0.8,0.1,1.7,0.1,2.5,0.1c1.5,0,2.5,0.9,2.5,2.2c0,1.5-1.1,2.4-2.9,2.3  c-1.8-0.1-3.5,0-5.2,0.1c-1.7,0.1-2.8-0.8-2.9-2.5c-0.1-1.2,0.1-2.4,0.1-3.6c0-5.4,0-10.9,0-16.3c0-0.9-0.2-1.6-1-2.1h-0.9  C124,3,123.7,3.7,123.7,4.6z"></path>
<linearGradient id="SVGID_00000001636703095737942020000015635373592149892752_" gradientUnits="userSpaceOnUse" x1="2.18" y1="23.1106" x2="32.5915" y2="23.1106" gradientTransform="matrix(1 0 0 -1 0 44)">
	<stop offset="1.438503e-07" style="stop-color:#E40D25"></stop>
	<stop offset="1" style="stop-color:#D3162C"></stop>
</linearGradient>
<path style="fill:url(#SVGID_00000001636703095737942020000015635373592149892752_);" d="M13.1,29c1.6-0.6,3-1.8,4.5-2.8  c-0.1-0.1,0,0,0.1,0.1c2.5,2.9,6,3.9,9.4,2.6c3.4-1.2,5.4-4.2,5.4-8c0-2.3,0-4.6,0-6.9c0-1.2-0.4-1.8-1.4-1.8  c-0.9,0-1.4,0.6-1.4,1.8c0,2.3,0,4.6,0,6.9c0,3.2-2.3,5.6-5.4,5.6s-5.5-2.4-5.5-5.6c0-2.4,0-4.7,0-7.1c0-1.1-0.5-1.7-1.4-1.7  c-1,0-1.5,0.5-1.5,1.7c0,2.2,0,4.3,0,6.5c0,0.7,0,1.5-0.2,2.1c-0.7,2.7-3.2,4.3-6,4C7.1,26.3,5.1,24,5,21.1c-0.1-2.3,0-4.5,0-6.8  c0-0.8,0-1.6-0.9-1.9c-0.8-0.3-1.5,0.1-1.9,0.8v9.3c0,0.4,0.1,0.6,0.2,0.9C3.6,28.1,8.6,30.7,13.1,29z"></path>
<linearGradient id="SVGID_00000127008708247279252210000008541975942616605322_" gradientUnits="userSpaceOnUse" x1="63.6494" y1="27.7991" x2="99.2532" y2="27.7991" gradientTransform="matrix(1 0 0 -1 0 44)">
	<stop offset="0" style="stop-color:#872342"></stop>
	<stop offset="1" style="stop-color:#262250"></stop>
</linearGradient>
<path style="fill:url(#SVGID_00000127008708247279252210000008541975942616605322_);" d="M86.1,13.2c0,0.4,0,0.7-0.1,1.2  c-0.3-0.2-0.4-0.2-0.5-0.3C81,11,76,11.9,72.8,16.2c-2.2,2.9-4.4,5.8-6.6,8.6c-1.5,1.9-3.5,2.6-5.9,2.1c-2.4-0.5-4-2.1-4.6-4.5  c-0.1-0.3-0.2-0.6-0.3-1.1c-0.6,0.8-1.1,1.4-1.6,2s-0.5,1-0.2,1.7c2.8,5.9,11,6.6,15,1.4c2.3-3.1,4.7-6.1,7.1-9.1  c1.5-1.9,3.5-2.6,5.9-2c2.3,0.6,3.8,2.1,4.4,4.4c0.1,0.3,0.2,0.7,0.3,1.2c0.7-0.8,1.2-1.6,1.9-2.3c0.6-0.7,0.9-1.4,0.8-2.3  c-0.1-3.9-0.1-7.7,0-11.6c0-0.9-0.2-1.6-0.9-2.2H87c-0.7,0.5-0.9,1.2-0.9,2.1C86.2,7.5,86.2,10.4,86.1,13.2z"></path>
<linearGradient id="SVGID_00000039822060064858053330000007084253649789182385_" gradientUnits="userSpaceOnUse" x1="52.711" y1="34.875" x2="55.5461" y2="34.875" gradientTransform="matrix(1 0 0 -1 0 44)">
	<stop offset="0" style="stop-color:#872342"></stop>
	<stop offset="0.1491" style="stop-color:#7E2444"></stop>
	<stop offset="0.4199" style="stop-color:#662549"></stop>
	<stop offset="0.7792" style="stop-color:#40244E"></stop>
	<stop offset="1" style="stop-color:#262250"></stop>
</linearGradient>
<path style="fill:url(#SVGID_00000039822060064858053330000007084253649789182385_);" d="M52.7,14.7c0,0.3,0,0.6,0.1,1.1  c0.7-0.9,1.3-1.6,1.9-2.2s0.8-1.3,0.8-2.2c-0.1-2.2-0.1-4.4,0-6.6c0-0.9-0.2-1.6-0.9-2.2h-1.1c-0.7,0.5-0.9,1.2-0.9,2.1  C52.8,7.9,52.7,11.3,52.7,14.7z"></path>
<linearGradient id="SVGID_00000100383081772734175400000002359870152012719526_" gradientUnits="userSpaceOnUse" x1="33.7717" y1="23.1228" x2="69.5271" y2="23.1228" gradientTransform="matrix(1 0 0 -1 0 44)">
	<stop offset="5.327789e-09" style="stop-color:#E40D25"></stop>
	<stop offset="1" style="stop-color:#262250"></stop>
</linearGradient>
<path style="fill:url(#SVGID_00000100383081772734175400000002359870152012719526_);" d="M62.4,15.2c2.3,0.4,3.9,1.7,4.8,3.9  c0.2,0.5,0.3,0.9,0.4,1.6c0.7-0.9,1.3-1.6,1.8-2.4c0.2-0.2,0.1-0.7,0-1C67,11.7,59,10.5,55.1,15.2c-2.6,3.1-5.2,6.3-7.9,9.4  c-1.6,1.9-3.8,2.7-6.2,2c-2.3-0.6-3.8-2.2-4.3-4.6c-0.5-2.4,0.4-4.5,2.4-6c2.2-1.6,5.5-1.4,7.1,0.3c-1.2,1.4-2.4,2.8-3.6,4.1  c-0.9,1.1-1,1.8-0.3,2.4c0.7,0.6,1.5,0.5,2.4-0.5c1-1.1,2.1-2.3,3.2-3.4c0.8-0.9,1.6-1.8,2.5-2.7c-0.5-0.6-0.9-1.1-1.4-1.6  c-2.7-2.8-7.1-3.5-10.6-1.5c-3.5,1.9-5.2,6-4.2,9.8c0.9,3.5,3.1,5.7,6.6,6.4c3.5,0.8,6.4-0.3,8.7-3c2.5-3,5-6.1,7.5-9.1  C58.3,15.6,60.2,14.8,62.4,15.2z"></path>
<linearGradient id="SVGID_00000041285041247846432420000003067366189326430341_" gradientUnits="userSpaceOnUse" x1="72.0829" y1="22.8178" x2="107.0917" y2="22.8178" gradientTransform="matrix(1 0 0 -1 0 44)">
	<stop offset="0.1927" style="stop-color:#7B2445"></stop>
	<stop offset="1" style="stop-color:#262250"></stop>
</linearGradient>
<path style="fill:url(#SVGID_00000041285041247846432420000003067366189326430341_);" d="M100.2,15.4c2.4,0.5,3.9,2,4.6,4.3  c0.1,0.3,0.2,0.7,0.3,1.2c0.6-0.7,1-1.4,1.6-2c0.6-0.6,0.5-1.1,0.2-1.8c-2.9-5.5-10.6-6.3-14.5-1.5c-2.5,3.1-5,6.2-7.6,9.2  c-1.5,1.8-3.4,2.5-5.7,2.1c-2.3-0.5-3.9-1.9-4.6-4.2c-0.1-0.4-0.2-0.7-0.3-1.3c-0.6,0.7-1,1.4-1.6,2c-0.6,0.6-0.5,1.1-0.2,1.8  c2.9,5.6,10.8,6.3,14.8,1.3c2.4-3.1,4.9-6.1,7.4-9.1C96,15.6,98,14.9,100.2,15.4z"></path>
<linearGradient id="SVGID_00000036223118380349346680000016681488703784952454_" gradientUnits="userSpaceOnUse" x1="143.0944" y1="26.4927" x2="156.5401" y2="26.4927" gradientTransform="matrix(1 0 0 -1 0 44)">
	<stop offset="0" style="stop-color:#262250"></stop>
	<stop offset="0.9793" style="stop-color:#262250"></stop>
</linearGradient>
<path style="fill:url(#SVGID_00000036223118380349346680000016681488703784952454_);" d="M154.2,18.1c1.3,0,2.3-1.1,2.3-2.4  c0-1.3-0.9-2.4-2.3-2.4c-3.1,0-6.1,0-9.2,0c-0.3,0-0.7,0.3-0.9,0.6c-0.9,2.4-1.3,4.9-1,7.7c2-3,3.1-3.6,6.6-3.6  C151.2,18.1,152.7,18.1,154.2,18.1z"></path>
<linearGradient id="SVGID_00000116952987574344046520000007228082802072866460_" gradientUnits="userSpaceOnUse" x1="105.2936" y1="15.613" x2="107.8414" y2="15.613" gradientTransform="matrix(1 0 0 -1 0 44)">
	<stop offset="0" style="stop-color:#E40D25"></stop>
	<stop offset="0.1701" style="stop-color:#262250"></stop>
</linearGradient>
<path style="fill:url(#SVGID_00000116952987574344046520000007228082802072866460_);" d="M105.3,29.6c0.7,0.6,1.4,0.7,1.9,0.3  c1.1-0.9,0.4-2.1,0.3-3.2C106.8,27.6,106.1,28.6,105.3,29.6z"></path>
<g>
	<g>
		<path className="st9" d="M5.6,40H4.9c-0.3,0-0.6-0.1-0.7-0.2S3.9,39.3,3.9,39v-1.9c0-0.3,0.1-0.6,0.3-0.7s0.4-0.2,0.7-0.2h0.7    c0.3,0,0.6,0.1,0.7,0.2s0.3,0.4,0.3,0.7v0.3c0,0.1,0,0.1-0.1,0.1H5.9c-0.1,0-0.1,0-0.1-0.1v-0.2c0-0.1,0-0.2-0.1-0.3    c-0.1,0-0.2-0.1-0.3-0.1H5c-0.1,0-0.2,0-0.3,0.1c-0.1,0-0.1,0.2-0.1,0.3V39c0,0.1,0,0.2,0.1,0.3c0.1,0,0.1,0.1,0.3,0.1h0.4    c0.1,0,0.2,0,0.3-0.1c0.1,0,0.1-0.1,0.1-0.3v-0.2c0-0.1,0-0.1,0.1-0.1h0.5c0.1,0,0.1,0,0.1,0.1V39c0,0.3-0.1,0.5-0.3,0.7    S5.9,40,5.6,40z"></path>
		<path className="st9" d="M11.5,40h-0.5c-0.1,0-0.1,0-0.1-0.1v-3.6c0-0.1,0-0.1,0.1-0.1h1.4c0.3,0,0.6,0.1,0.7,0.3s0.3,0.4,0.3,0.7v0.5    c0,0.5-0.2,0.8-0.5,0.9v0l0.6,1.3c0,0.1,0,0.1-0.1,0.1h-0.5c-0.1,0-0.1,0-0.2,0c0,0-0.1,0-0.1-0.1l-0.6-1.3h-0.4    c-0.1,0-0.1,0-0.1,0.1v1.2C11.6,40,11.5,40,11.5,40z M11.6,38h0.6c0.1,0,0.2,0,0.3-0.1c0.1,0,0.1-0.1,0.1-0.3v-0.5    c0-0.1,0-0.2-0.1-0.3s-0.1-0.1-0.3-0.1h-0.6c0,0-0.1,0-0.1,0.1L11.6,38C11.6,37.9,11.6,38,11.6,38z"></path>
		<path className="st9" d="M19.8,40h-2c-0.1,0-0.1,0-0.1-0.1v-3.6c0-0.1,0-0.1,0.1-0.1h2c0.1,0,0.1,0,0.1,0.1v0.4c0,0.1,0,0.1-0.1,0.1    h-1.2c0,0-0.1,0-0.1,0.1v0.8c0,0,0,0.1,0.1,0.1h1c0.1,0,0.1,0,0.1,0.1v0.4c0,0.1,0,0.1-0.1,0.1h-1c0,0-0.1,0-0.1,0.1v0.8    c0,0,0,0.1,0.1,0.1h1.2c0.1,0,0.1,0,0.1,0.1v0.4C19.9,40,19.9,40,19.8,40z"></path>
		<path className="st9" d="M24.6,40H24c-0.1,0-0.1,0-0.1-0.1l1-3.6c0-0.1,0.1-0.1,0.2-0.1h0.8c0.1,0,0.2,0,0.2,0.1l1,3.6    c0,0.1,0,0.1-0.1,0.1h-0.6c0,0-0.1,0-0.1,0s0,0,0-0.1L26,39.2h-1.2l-0.2,0.7C24.7,39.9,24.7,39.9,24.6,40C24.6,40,24.6,40,24.6,40    z M25.5,36.9L25,38.6h0.9L25.5,36.9L25.5,36.9z"></path>
		<path className="st9" d="M32.3,40h-0.5c-0.1,0-0.1,0-0.1-0.1v-3c0,0,0-0.1-0.1-0.1h-0.7c-0.1,0-0.1,0-0.1-0.1v-0.4    c0-0.1,0-0.1,0.1-0.1h2.3c0.1,0,0.1,0,0.1,0.1v0.4c0,0.1,0,0.1-0.1,0.1h-0.7c0,0-0.1,0-0.1,0.1v3C32.4,40,32.4,40,32.3,40z"></path>
		<path className="st9" d="M39.5,40h-2c-0.1,0-0.1,0-0.1-0.1v-3.6c0-0.1,0-0.1,0.1-0.1h2c0.1,0,0.1,0,0.1,0.1v0.4c0,0.1,0,0.1-0.1,0.1    h-1.2c0,0-0.1,0-0.1,0.1v0.8c0,0,0,0.1,0.1,0.1h1c0.1,0,0.1,0,0.1,0.1v0.4c0,0.1,0,0.1-0.1,0.1h-1c0,0-0.1,0-0.1,0.1v0.8    c0,0,0,0.1,0.1,0.1h1.2c0.1,0,0.1,0,0.1,0.1v0.4C39.6,40,39.5,40,39.5,40z"></path>
	</g>
	<g>
		<g>
			<path className="st10" d="M80.7,40H80c-0.3,0-0.6-0.1-0.7-0.2S79,39.3,79,39v-1.9c0-0.3,0.1-0.6,0.3-0.7s0.4-0.2,0.7-0.2h0.7     c0.3,0,0.6,0.1,0.7,0.2s0.3,0.4,0.3,0.7V39c0,0.3-0.1,0.6-0.3,0.7S81,40,80.7,40z M80.1,39.3h0.4c0.1,0,0.2,0,0.3-0.1     c0.1,0,0.1-0.1,0.1-0.3v-1.8c0-0.1,0-0.2-0.1-0.3s-0.1-0.1-0.3-0.1h-0.4c-0.1,0-0.2,0-0.3,0.1s-0.1,0.2-0.1,0.3V39     c0,0.1,0,0.2,0.1,0.3C79.9,39.3,80,39.3,80.1,39.3z"></path>
			<path className="st10" d="M87.3,40h-0.8c-0.1,0-0.1,0-0.2-0.1l-0.6-3.6c0-0.1,0-0.1,0.1-0.1h0.6c0.1,0,0.1,0,0.1,0.1l0.3,3h0l0.6-3     c0-0.1,0.1-0.1,0.1-0.1h0.7c0.1,0,0.1,0,0.1,0.1l0.6,3h0.1l0.3-3c0-0.1,0.1-0.1,0.1-0.1h0.6c0.1,0,0.1,0,0.1,0.1l-0.7,3.6     c0,0.1-0.1,0.1-0.1,0.1h-0.8c-0.1,0-0.1,0-0.1-0.1L88,37h0l-0.6,2.8C87.4,40,87.4,40,87.3,40z"></path>
			<path className="st10" d="M95.1,40h-0.5c-0.1,0-0.1,0-0.1-0.1v-3.6c0-0.1,0-0.1,0.1-0.1H95c0.1,0,0.1,0,0.2,0.1l1.2,2.3h0v-2.2     c0-0.1,0-0.1,0.1-0.1H97c0.1,0,0.1,0,0.1,0.1v3.6c0,0.1,0,0.1-0.1,0.1h-0.4c-0.1,0-0.2,0-0.2-0.1l-1.2-2.2h0v2.2     C95.2,40,95.1,40,95.1,40z"></path>
		</g>
	</g>
	<g>
		<path className="st10" d="M49.9,40h-0.5c-0.1,0-0.1,0-0.1-0.1v-1.3l-1.1-2.3c0,0,0-0.1,0-0.1c0,0,0,0,0.1,0h0.6c0.1,0,0.1,0,0.1,0.1    l0.6,1.5h0l0.6-1.5c0-0.1,0.1-0.1,0.1-0.1H51c0,0,0.1,0,0.1,0c0,0,0,0.1,0,0.1L50,38.6v1.3C50,40,50,40,49.9,40z"></path>
		<path className="st10" d="M56.8,40h-0.7c-0.3,0-0.6-0.1-0.7-0.2s-0.3-0.4-0.3-0.7v-1.9c0-0.3,0.1-0.6,0.3-0.7s0.4-0.2,0.7-0.2h0.7    c0.3,0,0.6,0.1,0.7,0.2s0.3,0.4,0.3,0.7V39c0,0.3-0.1,0.6-0.3,0.7S57.1,40,56.8,40z M56.2,39.3h0.4c0.1,0,0.2,0,0.3-0.1    c0,0,0.1-0.1,0.1-0.3v-1.8c0-0.1,0-0.2-0.1-0.3c0,0-0.1-0.1-0.3-0.1h-0.4c-0.1,0-0.2,0-0.3,0.1s-0.1,0.2-0.1,0.3V39    c0,0.1,0,0.2,0.1,0.3C56,39.3,56.1,39.3,56.2,39.3z"></path>
		<path className="st10" d="M64.1,36.1h0.5c0.1,0,0.1,0,0.1,0.1V39c0,0.3-0.1,0.5-0.3,0.7S64,40,63.7,40h-0.7c-0.3,0-0.6-0.1-0.7-0.2    s-0.3-0.4-0.3-0.7v-2.8c0-0.1,0-0.1,0.1-0.1h0.5c0.1,0,0.1,0,0.1,0.1V39c0,0.1,0,0.2,0.1,0.3c0,0,0.1,0.1,0.3,0.1h0.4    c0.1,0,0.2,0,0.3-0.1c0,0,0.1-0.1,0.1-0.3v-2.7C64,36.2,64,36.1,64.1,36.1z"></path>
		<path className="st10" d="M69.7,40h-0.5c-0.1,0-0.1,0-0.1-0.1v-3.6c0-0.1,0-0.1,0.1-0.1h1.4c0.3,0,0.6,0.1,0.7,0.3s0.3,0.4,0.3,0.7    v0.5c0,0.5-0.2,0.8-0.5,0.9v0l0.6,1.3c0,0.1,0,0.1-0.1,0.1h-0.5c-0.1,0-0.1,0-0.2,0c0,0-0.1,0-0.1-0.1l-0.6-1.3h-0.4    c-0.1,0-0.1,0-0.1,0.1v1.2C69.8,40,69.8,40,69.7,40z M69.9,38h0.6c0.1,0,0.2,0,0.3-0.1c0.1,0,0.1-0.1,0.1-0.3v-0.5    c0-0.1,0-0.2-0.1-0.3s-0.2-0.1-0.3-0.1h-0.6c0,0-0.1,0-0.1,0.1L69.9,38C69.8,37.9,69.8,38,69.9,38z"></path>
	</g>
	<g>
		<path d="M106.2,39.9v-3.6c0-0.1,0-0.1,0.1-0.1h1.4c0.3,0,0.6,0.1,0.7,0.2c0.2,0.2,0.3,0.4,0.3,0.7v0.2c0,0.3-0.2,0.6-0.5,0.7    c0.2,0,0.3,0.1,0.4,0.2c0.1,0.1,0.1,0.3,0.1,0.5V39c0,0.3-0.1,0.5-0.3,0.7s-0.4,0.2-0.7,0.2h-1.5C106.2,40,106.2,40,106.2,39.9z     M107,37.7h0.6c0.1,0,0.2,0,0.3-0.1c0.1,0,0.1-0.1,0.1-0.3v-0.2c0-0.1,0-0.2-0.1-0.3c-0.1,0-0.2-0.1-0.3-0.1H107    c0,0-0.1,0-0.1,0.1L107,37.7C106.9,37.7,107,37.7,107,37.7z M107,39.3h0.7c0.1,0,0.2,0,0.3-0.1c0.1,0,0.1-0.1,0.1-0.3v-0.3    c0-0.1,0-0.2-0.1-0.3s-0.2-0.1-0.3-0.1H107c0,0-0.1,0-0.1,0.1L107,39.3C106.9,39.3,107,39.3,107,39.3z"></path>
		<path d="M113.8,40h-0.5c-0.1,0-0.1,0-0.1-0.1v-3.6c0-0.1,0-0.1,0.1-0.1h1.4c0.3,0,0.6,0.1,0.7,0.3s0.3,0.4,0.3,0.7v0.5    c0,0.5-0.2,0.8-0.5,0.9v0l0.6,1.3c0,0.1,0,0.1-0.1,0.1h-0.5c-0.1,0-0.1,0-0.2,0c0,0-0.1,0-0.1-0.1l-0.6-1.3H114    c-0.1,0-0.1,0-0.1,0.1v1.2C113.9,40,113.8,40,113.8,40z M113.9,38h0.6c0.1,0,0.2,0,0.3-0.1c0.1,0,0.1-0.1,0.1-0.3v-0.5    c0-0.1,0-0.2-0.1-0.3s-0.2-0.1-0.3-0.1h-0.6c0,0-0.1,0-0.1,0.1L113.9,38C113.9,37.9,113.9,38,113.9,38z"></path>
		<path d="M120.4,40h-0.6c-0.1,0-0.1,0-0.1-0.1l0.9-3.6c0-0.1,0.1-0.1,0.2-0.1h0.8c0.1,0,0.2,0,0.2,0.1l0.9,3.6c0,0.1,0,0.1-0.1,0.1    h-0.6c0,0-0.1,0-0.1,0s0,0,0-0.1l-0.2-0.7h-1.2l-0.2,0.7C120.5,39.9,120.5,39.9,120.4,40C120.5,40,120.4,40,120.4,40z M121.3,36.9    l-0.4,1.7h0.9L121.3,36.9L121.3,36.9z"></path>
		<path d="M127.6,40h-0.5c-0.1,0-0.1,0-0.1-0.1v-3.6c0-0.1,0-0.1,0.1-0.1h0.4c0.1,0,0.1,0,0.2,0.1l1.2,2.3h0v-2.2    c0-0.1,0-0.1,0.1-0.1h0.5c0.1,0,0.1,0,0.1,0.1v3.6c0,0.1,0,0.1-0.1,0.1h-0.4c-0.1,0-0.1,0-0.2-0.1l-1.2-2.2h0v2.2    C127.7,40,127.7,40,127.6,40z"></path>
		<path d="M134.1,39.9v-3.6c0-0.1,0-0.1,0.1-0.1h1.5c0.3,0,0.6,0.1,0.7,0.3c0.2,0.2,0.3,0.4,0.3,0.7V39c0,0.3-0.1,0.5-0.3,0.7    c-0.2,0.2-0.4,0.2-0.7,0.2h-1.5C134.1,40,134.1,40,134.1,39.9z M134.9,39.3h0.6c0.1,0,0.2,0,0.3-0.1c0.1,0,0.1-0.1,0.1-0.3v-1.8    c0-0.1,0-0.2-0.1-0.3s-0.1-0.1-0.3-0.1h-0.6c0,0-0.1,0-0.1,0.1L134.9,39.3C134.8,39.3,134.8,39.3,134.9,39.3z"></path>
	</g>
</g>
</svg>
