<svg width="583" height="583" viewBox="0 0 583 583" fill="none" xmlns="http://www.w3.org/2000/svg">
<path d="M169.414 302.097C162.041 304.041 151.912 289.051 146.354 267.97C140.796 246.889 142.219 228.855 149.593 226.911C156.967 224.967 167.097 239.956 172.654 261.036C178.211 282.117 176.789 300.152 169.414 302.097ZM149.942 228.238C143.534 229.927 142.498 247.963 147.68 267.62C152.863 287.279 162.655 302.459 169.064 300.77C175.474 299.08 176.51 281.045 171.327 261.386C166.145 241.729 156.352 226.548 149.942 228.238Z" fill="#CFCFCF"/>
<path d="M188.859 286.946C181.627 288.852 167.477 284.883 152.66 276.249C143.783 271.078 136.112 265.038 131.061 259.244C125.849 253.268 124.022 248.185 125.918 244.933C127.811 241.68 133.135 240.764 140.904 242.351C148.435 243.89 157.472 247.587 166.347 252.76C175.224 257.931 182.894 263.971 187.947 269.765C193.158 275.741 194.984 280.823 193.089 284.075C192.271 285.48 190.819 286.429 188.859 286.946ZM130.5 243.37C128.878 243.797 127.716 244.551 127.094 245.617C125.539 248.286 127.359 252.927 132.087 258.349C137.043 264.034 144.593 269.973 153.344 275.073C170.913 285.31 188.574 289.117 191.913 283.39C193.468 280.722 191.647 276.082 186.92 270.659C181.963 264.974 174.413 259.035 165.662 253.935C156.911 248.835 148.022 245.195 140.632 243.685C136.403 242.821 132.934 242.728 130.5 243.37Z" fill="#A6A6A6"/>
<path d="M162.97 277.653C141.89 283.211 123.855 281.788 121.911 274.414C119.967 267.04 134.956 256.911 156.036 251.353C177.117 245.796 195.152 247.218 197.096 254.593C199.04 261.967 184.051 272.096 162.97 277.653ZM156.386 252.68C136.728 257.863 121.547 267.656 123.237 274.064C124.926 280.473 142.962 281.509 162.62 276.326C182.278 271.144 197.459 261.351 195.769 254.942C194.08 248.534 176.044 247.498 156.386 252.68Z" fill="#CFCFCF"/>
<path d="M145.033 298.506C143.047 299.029 141.322 298.9 139.933 298.089C136.68 296.194 135.762 290.872 137.351 283.103C138.89 275.572 142.586 266.536 147.76 257.66C158.734 238.827 172.493 227.078 179.076 230.918C185.662 234.757 182.225 252.516 171.249 271.349C166.077 280.225 160.038 287.896 154.243 292.947C150.822 295.93 147.693 297.805 145.033 298.506ZM174.319 231.798C167.611 233.567 157.211 244.144 148.935 258.346C143.836 267.097 140.195 275.987 138.685 283.376C137.245 290.424 137.949 295.358 140.618 296.914C143.287 298.467 147.928 296.649 153.348 291.922C159.033 286.965 164.973 279.415 170.073 270.663C180.31 253.096 184.119 235.435 178.391 232.095C177.293 231.455 175.909 231.379 174.319 231.798Z" fill="#A6A6A6"/>
<path d="M164.249 267.611C165.906 264.768 164.945 261.119 162.101 259.462C159.258 257.805 155.609 258.767 153.952 261.611C152.295 264.454 153.257 268.103 156.1 269.76C158.944 271.417 162.592 270.455 164.249 267.611Z" fill="#707070"/>
<path d="M153.753 210.229C184.025 206.546 205.579 179.019 201.895 148.746C198.212 118.474 170.685 96.9198 140.412 100.604C110.14 104.287 88.5859 131.814 92.2697 162.087C95.9535 192.359 123.48 213.913 153.753 210.229Z" fill="#EBEBEB"/>
<path d="M176.878 185.213C193.336 168.755 193.336 142.07 176.878 125.612C160.419 109.153 133.735 109.153 117.276 125.612C100.818 142.07 100.818 168.755 117.276 185.213C133.735 201.672 160.419 201.672 176.878 185.213Z" fill="white"/>
<path d="M147.079 185.53C163.713 185.53 177.197 172.046 177.197 155.413C177.197 138.779 163.713 125.295 147.079 125.295C130.446 125.295 116.961 138.779 116.961 155.413C116.961 172.046 130.446 185.53 147.079 185.53Z" fill="#EBEBEB"/>
<path d="M150.932 171.605C159.879 169.479 165.408 160.502 163.282 151.556C161.156 142.609 152.18 137.08 143.233 139.206C134.286 141.332 128.757 150.308 130.883 159.255C133.009 168.202 141.986 173.731 150.932 171.605Z" fill="white"/>
<path d="M139.553 155.413C139.553 159.569 142.922 162.939 147.079 162.939C151.236 162.939 154.606 159.569 154.606 155.413C154.606 151.256 151.236 147.886 147.079 147.886C142.922 147.886 139.553 151.256 139.553 155.413Z" fill="#EBEBEB"/>
<path d="M71.6686 78.2923L69.957 80.0039L141.307 151.354L143.019 149.643L71.6686 78.2923Z" fill="#A6A6A6"/>
<path d="M137.752 152.914L147.079 155.413L144.581 146.086L137.752 152.914Z" fill="#A6A6A6"/>
<path d="M58.8784 74.5039L72.2571 87.8826L82.7499 91.0833L79.5493 80.5904L66.1706 67.2117L69.3724 77.7057L58.8784 74.5039Z" fill="#A6A6A6"/>
<path d="M394.194 64.5859L398.067 70.3541L404.748 72.2524L400.458 77.7162L400.717 84.6574L394.194 82.2671L387.673 84.6574L387.932 77.7162L383.642 72.2524L390.323 70.3541L394.194 64.5859Z" fill="#EBEBEB"/>
<path d="M424.038 64.5859L427.909 70.3541L434.59 72.2524L430.301 77.7162L430.561 84.6574L424.038 82.2671L417.517 84.6574L417.776 77.7162L413.486 72.2524L420.167 70.3541L424.038 64.5859Z" fill="#EBEBEB"/>
<path d="M453.882 64.5859L457.753 70.3541L464.434 72.2524L460.145 77.7162L460.403 84.6574L453.882 82.2671L447.36 84.6574L447.619 77.7162L443.33 72.2524L450.011 70.3541L453.882 64.5859Z" fill="#EBEBEB"/>
<path d="M483.726 64.5859L487.597 70.3541L494.278 72.2524L489.988 77.7162L490.247 84.6574L483.726 82.2671L477.203 84.6574L477.462 77.7162L473.172 72.2524L479.855 70.3541L483.726 64.5859Z" fill="#EBEBEB"/>
<path d="M513.569 64.5859L517.439 70.3541L524.121 72.2524L519.832 77.7162L520.091 84.6574L513.569 82.2671L507.046 84.6574L507.305 77.7162L503.016 72.2524L509.698 70.3541L513.569 64.5859Z" stroke="#EBEBEB" stroke-width="1.166" stroke-miterlimit="10"/>
<path d="M513.569 82.2671V64.5859L509.698 70.3541L503.016 72.2524L507.305 77.7162L507.046 84.6574L513.569 82.2671Z" fill="#EBEBEB"/>
<path fill-rule="evenodd" clip-rule="evenodd" d="M476.295 308.281C474.818 307.36 473.53 306.019 471.554 306.214C470.797 306.291 470.962 305.663 470.956 305.252C470.921 297.822 470.898 290.399 470.867 282.975C470.865 282.436 470.896 281.991 471.484 281.692C477.145 278.813 479.587 273.177 483.045 268.357C486.744 263.213 487.999 257.646 487.103 251.495C486.86 249.825 487.637 249.073 489.142 248.725C490.954 248.306 492.76 248.801 493.385 250.044C494.922 253.128 496.246 256.333 496.657 259.765C496.993 262.581 495.993 265.327 495.651 268.114C495.399 270.154 494.93 272.17 494.551 274.236C495.049 274.597 495.627 274.406 496.161 274.412C502.434 274.401 508.708 274.377 514.981 274.356C517.625 274.347 518.922 275.101 519.294 276.855C519.753 279.04 518.605 281.266 516.58 282.303C516.113 282.54 515.264 282.329 515.208 283.064C515.155 283.813 516.028 283.733 516.461 284.034C518.737 285.585 518.327 288.798 515.705 290.665C515.075 291.111 513.848 290.91 513.82 291.837C513.809 292.576 514.956 292.563 515.476 293.082C517.315 294.887 516.416 298.273 513.682 299.648C513.331 299.823 512.896 299.857 512.581 300.077C512.271 300.288 511.965 300.523 512.57 300.949C515.294 302.881 515.245 305.583 512.516 307.563C512.247 307.758 511.975 307.956 511.701 308.152C510.71 308.884 509.535 308.878 508.4 308.885C498.562 308.938 488.725 308.964 478.888 308.99C477.966 308.996 477.033 308.97 476.295 308.281Z" fill="#EBEBEB"/>
<path fill-rule="evenodd" clip-rule="evenodd" d="M448.279 295.278C448.263 290.561 448.269 285.839 448.215 281.125C448.205 280.164 448.301 279.694 449.478 279.702C455.236 279.754 460.984 279.734 466.738 279.65C467.867 279.635 468.044 280.022 468.041 281.026C468.041 290.521 468.064 300.015 468.142 309.51C468.154 310.718 467.825 311.061 466.612 311.044C461.029 311 455.448 311.005 449.87 311.112C448.481 311.139 448.287 310.653 448.298 309.437C448.354 304.717 448.294 300 448.279 295.278Z" fill="#EBEBEB"/>
<path d="M230.529 521.131H77.8277C76.1439 521.131 74.7774 519.764 74.7774 518.081V500.008C74.7774 499.964 74.7774 499.92 74.7797 499.877C74.7797 499.876 74.7797 499.874 74.7797 499.871V499.869C74.7821 499.812 74.7856 499.752 74.7914 499.694C74.8007 499.586 74.817 499.476 74.8392 499.369L93.2923 431.579L69.3637 283.365L61.3824 280.589C59.7663 280.116 58.8405 278.422 59.3127 276.804C59.7873 275.188 61.4768 274.268 63.0976 274.734L72.9456 278.056C74.0836 278.389 74.9278 279.353 75.1039 280.528L99.4021 431.179C99.4535 431.518 99.4453 431.864 99.3823 432.204L81.4667 497.164L223.711 507.278C224.501 507.331 225.239 507.689 225.772 508.275L232.79 516.031C233.598 516.926 233.805 518.214 233.316 519.315C232.829 520.42 231.735 521.131 230.529 521.131ZM80.8779 515.03H223.656L222.077 513.287L80.8779 503.241V515.03Z" fill="#C7C7C7"/>
<path d="M286.443 331.508H80.5908C78.9071 331.508 77.5405 330.141 77.5405 328.458C77.5405 326.774 78.9071 325.407 80.5908 325.407H286.443C288.127 325.407 289.494 326.774 289.494 328.458C289.494 330.141 288.127 331.508 286.443 331.508Z" fill="#C7C7C7"/>
<path d="M96.3869 432.651C95.8482 432.651 95.4005 432.23 95.3725 431.688C95.3433 431.129 95.7713 430.649 96.3333 430.62L250.968 422.347L281.414 328.146C281.586 327.612 282.159 327.318 282.693 327.491C283.229 327.663 283.521 328.236 283.348 328.77L252.688 423.637C252.559 424.038 252.196 424.318 251.775 424.34L96.4406 432.649C96.4231 432.651 96.4044 432.651 96.3869 432.651Z" fill="#C7C7C7"/>
<path d="M254.377 415.843H93.5568C92.9948 415.843 92.54 415.389 92.54 414.827C92.54 414.265 92.9948 413.81 93.5568 413.81H254.377C254.939 413.81 255.394 414.265 255.394 414.827C255.394 415.389 254.939 415.843 254.377 415.843Z" fill="#C7C7C7"/>
<path d="M258.463 403.474H91.6642C91.1022 403.474 90.6475 403.02 90.6475 402.458C90.6475 401.896 91.1022 401.441 91.6642 401.441H258.463C259.025 401.441 259.48 401.896 259.48 402.458C259.48 403.02 259.025 403.474 258.463 403.474Z" fill="#C7C7C7"/>
<path d="M262.249 391.107H89.7692C89.2072 391.107 88.7524 390.652 88.7524 390.09C88.7524 389.528 89.2072 389.073 89.7692 389.073H262.249C262.811 389.073 263.265 389.528 263.265 390.09C263.265 390.652 262.811 391.107 262.249 391.107Z" fill="#C7C7C7"/>
<path d="M266.344 378.737H87.8771C87.3151 378.737 86.8604 378.282 86.8604 377.72C86.8604 377.158 87.3151 376.703 87.8771 376.703H266.344C266.906 376.703 267.361 377.158 267.361 377.72C267.361 378.282 266.906 378.737 266.344 378.737Z" fill="#C7C7C7"/>
<path d="M270.26 366.369H85.9845C85.4225 366.369 84.9678 365.914 84.9678 365.352C84.9678 364.79 85.4225 364.335 85.9845 364.335H270.26C270.822 364.335 271.277 364.79 271.277 365.352C271.277 365.914 270.822 366.369 270.26 366.369Z" fill="#C7C7C7"/>
<path d="M274.452 353.999H84.0895C83.5275 353.999 83.0728 353.544 83.0728 352.982C83.0728 352.42 83.5275 351.965 84.0895 351.965H274.452C275.014 351.965 275.469 352.42 275.469 352.982C275.469 353.545 275.014 353.999 274.452 353.999Z" fill="#C7C7C7"/>
<path d="M278.452 341.631H82.1974C81.6354 341.631 81.1807 341.176 81.1807 340.614C81.1807 340.052 81.6354 339.598 82.1974 339.598H278.452C279.014 339.598 279.468 340.052 279.468 340.614C279.468 341.176 279.014 341.631 278.452 341.631Z" fill="#C7C7C7"/>
<path d="M110.265 431.357C109.74 431.357 109.294 430.952 109.253 430.417L101.467 328.534C101.425 327.975 101.845 327.486 102.404 327.442C102.91 327.386 103.451 327.817 103.497 328.379L111.283 430.262C111.324 430.822 110.906 431.31 110.346 431.355C110.319 431.357 110.293 431.357 110.265 431.357Z" fill="#C7C7C7"/>
<path d="M236.354 424.712C236.267 424.712 236.177 424.7 236.088 424.676C235.546 424.529 235.227 423.972 235.374 423.429L261.269 328.192C261.416 327.652 261.97 327.332 262.517 327.477C263.059 327.624 263.379 328.182 263.232 328.723L237.336 423.961C237.211 424.414 236.802 424.712 236.354 424.712Z" fill="#C7C7C7"/>
<path d="M126.513 430.598C125.963 430.598 125.511 430.158 125.497 429.607L122.98 328.483C122.966 327.921 123.411 327.455 123.971 327.441C123.982 327.441 123.989 327.441 123.997 327.441C124.547 327.441 125 327.879 125.014 328.432L127.53 429.556C127.544 430.118 127.1 430.584 126.539 430.598C126.53 430.598 126.521 430.598 126.513 430.598Z" fill="#C7C7C7"/>
<path d="M143.185 429.697C143.179 429.697 143.173 429.697 143.165 429.697C142.605 429.687 142.159 429.222 142.168 428.66L144.037 328.438C144.047 327.884 144.5 327.441 145.054 327.441C145.06 327.441 145.066 327.441 145.074 327.441C145.633 327.451 146.08 327.915 146.071 328.477L144.202 428.7C144.192 429.254 143.739 429.697 143.185 429.697Z" fill="#C7C7C7"/>
<path d="M218.606 425.508C218.537 425.508 218.47 425.503 218.4 425.489C217.85 425.375 217.496 424.837 217.607 424.288L237.285 328.253C237.398 327.701 237.942 327.35 238.487 327.461C239.037 327.574 239.39 328.112 239.28 328.662L219.601 424.696C219.502 425.176 219.079 425.508 218.606 425.508Z" fill="#C7C7C7"/>
<path d="M198.388 426.718C198.332 426.718 198.278 426.714 198.222 426.704C197.668 426.614 197.292 426.09 197.383 425.536L213.313 328.293C213.405 327.739 213.932 327.356 214.481 327.455C215.035 327.545 215.411 328.068 215.32 328.622L199.39 425.865C199.307 426.364 198.877 426.718 198.388 426.718Z" fill="#C7C7C7"/>
<path d="M160.255 428.731C160.229 428.731 160.204 428.731 160.177 428.729C159.617 428.685 159.196 428.198 159.237 427.639L166.665 328.382C166.708 327.822 167.201 327.399 167.755 327.443C168.314 327.486 168.735 327.974 168.695 328.533L161.267 427.79C161.226 428.324 160.782 428.731 160.255 428.731Z" fill="#C7C7C7"/>
<path d="M180.247 427.435C180.21 427.435 180.171 427.432 180.132 427.429C179.573 427.367 179.172 426.862 179.234 426.305L190.127 328.344C190.188 327.788 190.675 327.378 191.251 327.447C191.809 327.508 192.21 328.012 192.148 328.571L181.256 426.531C181.199 427.049 180.758 427.435 180.247 427.435Z" fill="#C7C7C7"/>
<path d="M97.61 537.014C103.903 537.014 109.004 531.913 109.004 525.62C109.004 519.327 103.903 514.226 97.61 514.226C91.3172 514.226 86.2158 519.327 86.2158 525.62C86.2158 531.913 91.3172 537.014 97.61 537.014Z" fill="#263238"/>
<path d="M102.788 525.62C102.788 528.479 100.47 530.797 97.6111 530.797C94.7521 530.797 92.4341 528.479 92.4341 525.62C92.4341 522.761 94.7521 520.443 97.6111 520.443C100.47 520.443 102.788 522.76 102.788 525.62Z" fill="#EBEBEB"/>
<path d="M199.548 537.014C205.841 537.014 210.943 531.913 210.943 525.62C210.943 519.327 205.841 514.226 199.548 514.226C193.256 514.226 188.154 519.327 188.154 525.62C188.154 531.913 193.256 537.014 199.548 537.014Z" fill="#263238"/>
<path d="M204.725 525.62C204.725 528.479 202.407 530.797 199.548 530.797C196.689 530.797 194.371 528.479 194.371 525.62C194.371 522.761 196.689 520.443 199.548 520.443C202.407 520.443 204.725 522.76 204.725 525.62Z" fill="#EBEBEB"/>
<path d="M69.8366 280.463L53.7959 274.376" stroke="#E40D25" stroke-width="6.996" stroke-miterlimit="10" stroke-linecap="round" stroke-linejoin="round"/>
<path d="M56.6479 537.014C207.109 536.301 375.892 536.295 526.352 537.014C375.892 537.734 207.109 537.728 56.6479 537.014Z" fill="#263238"/>
<path d="M390.05 90.611H192.926C181.919 90.611 172.988 99.6942 172.988 110.923V516.702C172.988 527.908 181.919 537.014 192.926 537.014H390.05C401.057 537.014 410.012 527.908 410.012 516.702V110.923C410.012 99.6942 401.057 90.611 390.05 90.611ZM397.536 504.156C397.536 514.837 389.537 523.477 379.673 523.477H203.327C193.439 523.477 185.441 514.837 185.441 504.156V126.302C185.441 104.545 193.439 103.484 203.327 103.484H238.657C240.709 103.484 242.388 105.816 242.388 108.707V109.955C242.388 116.729 246.096 116.753 250.643 116.753H332.333C336.927 116.753 340.612 116.729 340.612 109.955V108.707C340.612 105.816 342.268 103.484 344.355 103.484H379.673C389.537 103.484 397.536 106.375 397.536 126.302V504.156Z" fill="#263238"/>
<path d="M397.548 126.635V504.489C397.548 515.169 389.549 523.809 379.684 523.809H203.339C193.451 523.809 185.452 515.169 185.452 504.489V126.635C185.452 104.877 193.451 103.816 203.339 103.816H238.668C240.721 103.816 242.4 106.148 242.4 109.04V110.287C242.4 117.062 246.107 117.085 250.655 117.085H332.345C336.939 117.085 340.623 117.062 340.623 110.287V109.04C340.623 106.148 342.279 103.816 344.366 103.816H379.684C389.549 103.816 397.548 106.708 397.548 126.635Z" fill="white"/>
<path d="M302.636 108.291H280.354C279.594 108.291 278.978 107.675 278.978 106.915C278.978 106.155 279.594 105.539 280.354 105.539H302.636C303.396 105.539 304.012 106.155 304.012 106.915C304.013 107.675 303.396 108.291 302.636 108.291Z" fill="white"/>
<path d="M232.556 111.971C232.442 112.084 232.329 112.197 232.214 112.31C232.15 112.374 232.086 112.44 232.021 112.505C231.104 111.615 230.012 111.141 228.734 111.141C227.456 111.141 226.363 111.614 225.44 112.51C225.379 112.447 225.319 112.381 225.256 112.317C225.144 112.204 225.032 112.091 224.919 111.978C224.916 111.976 224.912 111.974 224.908 111.972C224.908 111.97 224.908 111.966 224.908 111.964C224.916 111.957 224.926 111.951 224.933 111.943C225.076 111.816 225.216 111.683 225.364 111.561C225.67 111.308 226.007 111.099 226.362 110.924C226.783 110.718 227.224 110.564 227.686 110.48C227.904 110.44 228.126 110.419 228.347 110.392C228.421 110.383 228.911 110.382 228.925 110.383C229.075 110.395 229.226 110.4 229.376 110.417C229.793 110.462 230.197 110.562 230.59 110.706C230.875 110.81 231.149 110.939 231.411 111.089C231.688 111.249 231.951 111.43 232.195 111.639C232.317 111.744 232.435 111.854 232.555 111.963C232.556 111.965 232.556 111.967 232.556 111.971Z" fill="#A6A6A6"/>
<path d="M226.524 113.577C226.344 113.397 226.167 113.222 225.984 113.041C226.599 112.439 227.325 112.055 228.179 111.94C229.454 111.767 230.55 112.155 231.479 113.033C231.296 113.216 231.117 113.394 230.938 113.572C230.327 112.98 229.592 112.659 228.731 112.66C227.872 112.661 227.139 112.981 226.524 113.577Z" fill="#A6A6A6"/>
<path d="M230.399 114.114C230.221 114.291 230.043 114.47 229.863 114.65C229.551 114.348 229.175 114.182 228.732 114.182C228.29 114.183 227.914 114.348 227.601 114.653C227.421 114.473 227.243 114.295 227.065 114.118C227.919 113.223 229.455 113.152 230.399 114.114Z" fill="#A6A6A6"/>
<path d="M229.216 115.138C229.216 115.406 228.999 115.623 228.731 115.623C228.463 115.623 228.246 115.406 228.246 115.138C228.246 114.871 228.463 114.653 228.731 114.653C228.999 114.654 229.216 114.871 229.216 115.138Z" fill="#A6A6A6"/>
<path d="M199.275 113.002C199.275 112.225 199.905 111.597 200.68 111.597C201.456 111.597 202.085 112.226 202.085 113.002C202.085 113.778 201.455 114.407 200.68 114.407C199.903 114.408 199.275 113.778 199.275 113.002Z" fill="#A6A6A6"/>
<path d="M203.702 113.002C203.702 112.225 204.332 111.597 205.108 111.597C205.885 111.597 206.513 112.226 206.513 113.002C206.513 113.778 205.884 114.407 205.108 114.407C204.331 114.408 203.702 113.778 203.702 113.002Z" fill="#A6A6A6"/>
<path d="M208.13 113.002C208.13 112.225 208.76 111.597 209.536 111.597C210.313 111.597 210.941 112.226 210.941 113.002C210.941 113.778 210.311 114.407 209.536 114.407C208.758 114.408 208.13 113.778 208.13 113.002Z" fill="#A6A6A6"/>
<path d="M212.557 113.002C212.557 112.225 213.187 111.597 213.962 111.597C214.739 111.597 215.367 112.226 215.367 113.002C215.367 113.778 214.738 114.407 213.962 114.407C213.187 114.408 212.557 113.778 212.557 113.002Z" fill="#A6A6A6"/>
<path d="M216.984 113.002C216.984 112.225 217.614 111.597 218.389 111.597C219.166 111.597 219.796 112.226 219.796 113.002C219.796 113.778 219.166 114.407 218.389 114.407C217.614 114.408 216.984 113.778 216.984 113.002Z" fill="#A6A6A6"/>
<path d="M381.629 116.071H370.186V110.77H381.629V116.071ZM370.769 115.488H381.046V111.353H370.769V115.488Z" fill="#A6A6A6"/>
<path d="M378.511 111.67H371.135V115.17H378.511V111.67Z" fill="#A6A6A6"/>
<path d="M382.654 112.002H381.636V114.838H382.654V112.002Z" fill="#A6A6A6"/>
<path d="M303.682 87.5888H279.322V144.896H303.682V87.5888Z" fill="#E40D25"/>
<path d="M303.677 144.892C303.677 144.892 301.361 156.547 291.499 156.547C281.637 156.547 279.322 144.892 279.322 144.892H303.677Z" fill="#E40D25"/>
<path opacity="0.1" d="M303.677 144.892C303.677 144.892 301.361 156.547 291.499 156.547C281.637 156.547 279.322 144.892 279.322 144.892H303.677Z" fill="black"/>
<path d="M279.317 144.896H254.958L257.444 87.5888H279.317V144.896Z" fill="white"/>
<path d="M279.317 144.896L254.957 145.052L254.796 145.053C254.76 145.014 257.178 87.6587 257.155 87.5759L257.167 87.2984L257.444 87.2996L279.317 87.3532L279.554 87.3544C279.648 87.5748 279.402 116.071 279.471 116.306L279.317 144.896ZM279.317 144.896L279.165 116.179L279.082 87.5888L279.317 87.8243L257.444 87.8779L257.733 87.6016C257.651 87.5759 255.329 145.573 254.958 144.743L279.317 144.896Z" fill="#263238"/>
<path d="M279.322 144.892C279.322 144.892 276.992 156.547 267.13 156.547C257.283 156.547 254.954 144.892 254.954 144.892H279.322Z" fill="#EBEBEB"/>
<path d="M254.955 144.896H230.595L235.568 87.5888H257.441L254.955 144.896Z" fill="#E40D25"/>
<path d="M254.954 144.892C254.954 144.892 252.638 156.547 242.777 156.547C232.915 156.547 230.6 144.892 230.6 144.892H254.954Z" fill="#E40D25"/>
<path opacity="0.1" d="M254.954 144.892C254.954 144.892 252.638 156.547 242.777 156.547C232.915 156.547 230.6 144.892 230.6 144.892H254.954Z" fill="black"/>
<path d="M230.591 144.896H206.231L213.69 87.5888H235.563L230.591 144.896Z" fill="white"/>
<path d="M230.591 144.896L206.231 145.05L206.055 145.052C206.023 145.007 213.42 87.6424 213.403 87.5503L213.436 87.2984L213.69 87.2996L235.563 87.3532L235.821 87.3544L235.798 87.6097L233.225 116.317L230.591 144.896ZM230.591 144.896L232.929 116.17L235.33 87.5689L235.564 87.8243L213.691 87.8779L213.977 87.6261C213.886 87.5911 206.564 145.622 206.233 144.743C206.231 144.743 230.591 144.896 230.591 144.896Z" fill="#263238"/>
<path d="M230.585 144.892C230.585 144.892 228.27 156.547 218.409 156.547C208.547 156.547 206.231 144.892 206.231 144.892H230.585Z" fill="#EBEBEB"/>
<path d="M206.228 144.896H181.868L191.814 87.5888H213.687L206.228 144.896Z" fill="#E40D25"/>
<path d="M206.232 144.892C206.232 144.892 203.902 156.547 194.055 156.547C184.193 156.547 181.864 144.892 181.864 144.892H206.232Z" fill="#E40D25"/>
<path opacity="0.1" d="M206.232 144.892C206.232 144.892 203.902 156.547 194.055 156.547C184.193 156.547 181.864 144.892 181.864 144.892H206.232Z" fill="black"/>
<path d="M181.864 144.896H157.504L168.383 94.7468C169.281 90.6052 173.683 87.5888 178.824 87.5888H191.809L181.864 144.896Z" fill="white"/>
<path d="M181.864 144.896L157.504 145.052L157.312 145.053L157.353 144.864C158.877 137.738 166.211 103.559 167.566 97.2281C167.907 95.823 168.167 93.7406 168.949 92.4918C171.526 87.8301 177.247 87.0011 182.066 87.3276L191.81 87.3509L192.094 87.3521L192.045 87.6307L186.982 116.327L181.864 144.896ZM181.864 144.896L186.693 116.159L191.576 87.5479L191.81 87.8266L182.066 87.8499C177.389 87.5713 171.963 88.314 169.447 92.7716C168.653 94.1184 168.489 95.7589 168.101 97.3435L166.013 106.86L157.657 144.929L157.506 144.741L181.864 144.896Z" fill="#263238"/>
<path d="M181.863 144.892C181.863 144.892 179.548 156.547 169.687 156.547C159.825 156.547 157.51 144.892 157.51 144.892H181.863Z" fill="#EBEBEB"/>
<path d="M303.682 144.896H328.042L325.556 87.5888H303.682V144.896Z" fill="white"/>
<path d="M303.682 144.896L328.042 144.741L327.888 144.902L325.267 87.6004L325.556 87.8768L303.683 87.8231L303.918 87.5876L303.835 116.178L303.682 144.896ZM303.682 144.896L303.529 116.306L303.446 87.5888L303.445 87.3532L303.682 87.3521L325.555 87.2984L325.832 87.2973L325.844 87.5748C325.832 87.7846 328.21 144.866 328.203 145.05L328.042 145.049L303.682 144.896Z" fill="#263238"/>
<path d="M328.045 144.892C328.045 144.892 325.715 156.547 315.868 156.547C306.006 156.547 303.677 144.892 303.677 144.892H328.045Z" fill="#EBEBEB"/>
<path d="M328.045 144.896H352.405L347.432 87.5888H325.559L328.045 144.896Z" fill="#E40D25"/>
<path d="M352.399 144.892C352.399 144.892 350.083 156.547 340.222 156.547C330.36 156.547 328.044 144.892 328.044 144.892H352.399Z" fill="#E40D25"/>
<path opacity="0.1" d="M352.399 144.892C352.399 144.892 350.083 156.547 340.222 156.547C330.36 156.547 328.044 144.892 328.044 144.892H352.399Z" fill="black"/>
<path d="M352.408 144.896H376.768L369.31 87.5888H347.437L352.408 144.896Z" fill="white"/>
<path d="M352.408 144.896L376.768 144.743C376.433 145.795 369.14 87.3917 369.023 87.6261L369.31 87.8768L347.437 87.8231L347.671 87.5678C348.891 101.851 351.259 130.609 352.408 144.896ZM352.408 144.896L349.773 116.315L347.201 87.6086L347.178 87.3532L347.435 87.3521L369.308 87.2984L369.563 87.2973C369.642 87.7217 376.868 144.6 376.943 145.05L376.767 145.049L352.408 144.896Z" fill="#263238"/>
<path d="M376.769 144.892C376.769 144.892 374.453 156.547 364.592 156.547C354.73 156.547 352.416 144.892 352.416 144.892H376.769Z" fill="#EBEBEB"/>
<path d="M376.772 144.896H401.132L391.186 87.5888H369.313L376.772 144.896Z" fill="#E40D25"/>
<path d="M401.136 144.892C401.136 144.892 398.807 156.547 388.945 156.547C379.098 156.547 376.768 144.892 376.768 144.892H401.136Z" fill="#E40D25"/>
<path opacity="0.1" d="M401.136 144.892C401.136 144.892 398.807 156.547 388.945 156.547C379.098 156.547 376.768 144.892 376.768 144.892H401.136Z" fill="black"/>
<path d="M401.136 144.896H425.496L414.617 94.7468C413.718 90.6052 409.318 87.5888 404.177 87.5888H391.191L401.136 144.896Z" fill="white"/>
<path d="M401.136 144.896L425.496 144.741L425.344 144.929L416.988 106.86L414.899 97.3435C414.511 95.7589 414.348 94.1184 413.553 92.7716C411.035 88.3163 405.612 87.5701 400.934 87.8511L391.19 87.8266L391.424 87.5479C393.885 101.83 398.748 130.602 401.136 144.896ZM401.136 144.896L396.018 116.326L390.955 87.6296L390.906 87.3509L391.19 87.3497L400.934 87.3264C406.612 86.8612 413.517 88.4341 414.924 94.8459L415.434 97.2269C416.752 103.383 424.168 137.954 425.647 144.863L425.688 145.052L425.496 145.05L401.136 144.896Z" fill="#263238"/>
<path d="M425.491 144.892C425.491 144.892 423.175 156.547 413.314 156.547C403.453 156.547 401.138 144.892 401.138 144.892H425.491Z" fill="#EBEBEB"/>
<path d="M348.171 257.14H234.828V370.484H348.171V257.14Z" fill="#262250"/>
<path d="M328.747 311.388H254.253V300.826H328.747V311.388Z" fill="white"/>
<path d="M324.591 309.153L322.131 348.343H260.881L258.409 309.153H324.591Z" fill="white"/>
<path d="M299.422 304.922C299.422 309.298 295.875 312.845 291.5 312.845C287.124 312.845 283.577 309.298 283.577 304.922C283.577 300.546 287.124 296.999 291.5 296.999C295.875 296.999 299.422 300.546 299.422 304.922Z" fill="white"/>
<path d="M281.076 317.635V340.185C281.076 341.3 280.185 342.211 279.071 342.211H278.747C277.835 342.211 277.085 341.461 277.085 340.529V317.634C277.085 316.722 277.835 315.973 278.747 315.973H279.395C280.347 315.974 281.076 316.724 281.076 317.635Z" fill="#262250"/>
<path d="M293.484 317.635V340.185C293.484 341.3 292.593 342.211 291.478 342.211H291.154C290.242 342.211 289.493 341.461 289.493 340.529V317.634C289.493 316.722 290.242 315.973 291.154 315.973H291.803C292.755 315.974 293.484 316.724 293.484 317.635Z" fill="#262250"/>
<path d="M305.892 317.635V340.185C305.892 341.3 305.001 342.211 303.886 342.211H303.562C302.65 342.211 301.9 341.461 301.9 340.529V317.634C301.9 316.722 302.65 315.973 303.562 315.973H304.21C305.162 315.974 305.892 316.724 305.892 317.635Z" fill="#262250"/>
<path d="M313.218 304.277H309.72V283.344H273.28V304.277H269.782V279.846H313.218V304.277Z" fill="white"/>
<path d="M361.863 269.582C368.746 262.014 368.19 250.299 360.622 243.417C353.054 236.534 341.339 237.09 334.456 244.658C327.574 252.226 328.129 263.941 335.698 270.823C343.266 277.706 354.98 277.151 361.863 269.582Z" fill="#455A64"/>
<path d="M352.016 255.208C353.297 256.462 353.922 258.133 353.922 259.777C353.922 261.422 353.297 263.093 352.016 264.372C350.762 265.625 349.091 266.278 347.42 266.278C345.776 266.278 344.105 265.625 342.852 264.372C342.278 263.798 342.278 262.858 342.852 262.284C343.425 261.71 344.365 261.71 344.941 262.284C345.62 262.962 346.508 263.301 347.42 263.301C348.334 263.301 349.223 262.962 349.927 262.284C350.632 261.578 350.973 260.691 350.973 259.777C350.973 258.864 350.632 257.976 349.927 257.297C349.248 256.592 348.36 256.279 347.448 256.252C347.029 256.279 346.638 256.096 346.376 255.782C346.351 255.782 346.351 255.782 346.351 255.756C345.749 255.181 345.749 254.268 346.297 253.668L348.962 250.952H344.731C343.923 250.952 343.27 250.299 343.27 249.465C343.27 248.655 343.923 248.002 344.731 248.002H352.434C353.27 248.002 353.922 248.655 353.922 249.465C353.922 249.726 353.845 249.961 353.739 250.169C353.662 250.299 353.584 250.43 353.48 250.535L350.188 253.929C350.869 254.243 351.494 254.66 352.016 255.208Z" fill="white"/>
<path d="M431.191 189.818C440.371 196.426 469.745 223.024 471.605 227.448C473.821 232.72 462.44 251.462 457.729 251.05C445.553 249.987 424.235 211.656 417.401 194.098C414.06 185.519 415.818 178.751 431.191 189.818Z" fill="#D3766A"/>
<path d="M456.077 187.44C458.713 184.553 479.575 200.082 479.161 205.819C477.635 226.925 471.161 244.846 467.31 248.561C462.871 252.842 454.065 252.483 450.57 245.181C445.951 235.535 445.861 198.627 456.077 187.44Z" fill="#D3766A"/>
<path d="M448.312 233.262C445.964 221.563 448.997 205.11 448.996 205.083C448.99 204.858 449.299 204.776 449.304 204.904C449.383 207.237 447.796 224.509 448.627 233.167C448.635 233.249 448.328 233.341 448.312 233.262Z" fill="#263238"/>
<path d="M483.6 190.372C483.248 196.488 477.636 208.717 475.146 211.146C472.658 213.575 451.551 204.725 450.629 201.277C449.706 197.831 452.486 177.326 456.667 172.679C460.85 168.031 483.964 184.034 483.6 190.372Z" fill="#D3766A"/>
<path d="M450.488 197.702C450.488 197.702 448.052 190.114 443.799 184.529C440.221 179.832 434.379 173.263 436.832 171.245C441.869 167.101 456.433 183.49 456.433 183.49C456.433 183.49 461.698 191.752 457.071 196.3C454.169 199.15 450.488 197.702 450.488 197.702Z" fill="#D3766A"/>
<path d="M456.784 185.333L462.238 181.968L452.494 166.172L445.591 170.431L456.784 185.333Z" fill="#E40D25"/>
<path d="M445.594 170.431L449.86 176.116L456.787 185.335L462.242 181.969L452.496 166.171L445.594 170.431Z" fill="#E40D25"/>
<path opacity="0.1" d="M445.594 170.431L449.86 176.116L456.214 172.197L452.496 166.171L445.594 170.431Z" fill="black"/>
<path d="M446.388 173.15L454.976 167.852L450.952 161.328L442.364 166.626L446.388 173.15Z" fill="#E40D25"/>
<path d="M435.143 167.799L442.225 164.35L435.713 153.793L429.454 158.575L435.143 167.799Z" fill="#E40D25"/>
<path d="M437.855 149.586L447.466 165.166L459.487 159.601L491.42 153.12L468.339 115.706L448.222 141.34L437.855 149.586Z" fill="#E40D25"/>
<path d="M474.443 137.769C480.848 148.152 488.747 154.9 492.084 152.842C495.421 150.782 492.934 140.697 486.529 130.313C480.124 119.93 472.226 113.182 468.889 115.24C465.552 117.298 468.039 127.386 474.443 137.769Z" fill="#E40D25"/>
<path opacity="0.2" d="M475.652 136.576C481.339 145.793 488.163 151.899 490.895 150.213C493.627 148.527 491.233 139.689 485.547 130.472C479.86 121.255 473.036 115.148 470.304 116.834C467.572 118.52 469.967 127.359 475.652 136.576Z" fill="black"/>
<path d="M476.459 136.08C477.216 137.308 477.993 138.479 478.78 139.582C479.746 139.71 480.758 139.515 481.65 138.965C483.709 137.694 484.35 134.991 483.077 132.927L481.988 131.162C480.715 129.098 478.012 128.458 475.953 129.729C475.077 130.27 474.455 131.077 474.13 131.98C474.826 133.324 475.607 134.699 476.459 136.08Z" fill="#E40D25"/>
<path d="M441.96 169.753L455.657 163.084L443.063 142.668L430.956 151.916L441.96 169.753Z" fill="#E40D25"/>
<path opacity="0.2" d="M441.96 169.753L455.657 163.084L443.063 142.668L430.956 151.916L441.96 169.753Z" fill="black"/>
<path opacity="0.2" d="M468.168 119.349C467.895 120.989 468.154 122.666 468.48 124.282C468.843 125.899 469.331 127.49 469.946 129.03C470.231 129.81 470.585 130.559 470.913 131.321C471.282 132.062 471.629 132.817 472.015 133.549C472.414 134.275 472.786 135.016 473.205 135.729C473.629 136.441 474.034 137.164 474.472 137.867C476.232 140.669 478.159 143.384 480.407 145.827C481.538 147.038 482.736 148.196 484.066 149.193C485.403 150.157 486.852 151.063 488.484 151.395C486.884 150.96 485.487 150.026 484.208 149.009C482.923 147.986 481.765 146.811 480.677 145.582C478.507 143.114 476.594 140.423 474.874 137.617C473.132 134.827 471.537 131.935 470.283 128.894C469.632 127.384 469.112 125.821 468.705 124.229C468.308 122.642 468.003 120.996 468.168 119.349Z" fill="black"/>
<path d="M481.457 110.023C480.884 111.016 480.36 112.034 479.846 113.055C479.326 114.074 478.842 115.11 478.359 116.145C477.887 117.187 477.417 118.228 476.982 119.286L476.333 120.875C476.134 121.412 475.918 121.941 475.732 122.486C476.024 121.992 476.286 121.482 476.564 120.981L477.345 119.453C477.865 118.434 478.348 117.399 478.83 116.362C479.302 115.321 479.773 114.28 480.206 113.221C480.646 112.166 481.077 111.106 481.457 110.023Z" fill="#263238"/>
<path d="M487.884 143.468C489.168 143.308 490.439 143.094 491.71 142.87C492.981 142.652 494.244 142.394 495.508 142.137C496.768 141.867 498.028 141.596 499.28 141.285L501.157 140.818C501.778 140.644 502.404 140.487 503.024 140.297C502.381 140.371 501.745 140.479 501.106 140.568L499.198 140.894C497.927 141.112 496.663 141.369 495.4 141.628C494.14 141.899 492.881 142.169 491.628 142.481C490.376 142.786 489.124 143.1 487.884 143.468Z" fill="#263238"/>
<path d="M508.292 130.522C506.479 131.082 504.685 131.696 502.894 132.318C501.102 132.933 499.323 133.587 497.545 134.243C495.771 134.909 493.997 135.575 492.237 136.28L489.599 137.338C488.725 137.709 487.846 138.063 486.979 138.449C487.887 138.173 488.783 137.867 489.687 137.578L492.376 136.655C494.168 136.038 495.947 135.384 497.726 134.73C499.499 134.063 501.273 133.397 503.032 132.692C504.794 131.99 506.553 131.283 508.292 130.522Z" fill="#263238"/>
<path d="M491.431 106.466C490.31 108.031 489.236 109.626 488.17 111.226C487.1 112.822 486.064 114.441 485.027 116.059C484.001 117.684 482.976 119.31 481.985 120.956L480.499 123.428C480.02 124.262 479.526 125.086 479.061 125.929C479.626 125.15 480.162 124.353 480.714 123.565L482.321 121.171C483.391 119.574 484.428 117.956 485.463 116.338C486.488 114.712 487.513 113.087 488.504 111.439C489.502 109.794 490.491 108.145 491.431 106.466Z" fill="#263238"/>
<path d="M483.574 131.938C485.507 130.844 487.412 129.701 489.31 128.551C491.209 127.403 493.083 126.215 494.971 125.049C496.836 123.847 498.714 122.664 500.569 121.445L503.345 119.607C504.26 118.979 505.185 118.364 506.092 117.723C505.122 118.265 504.17 118.836 503.21 119.393L500.356 121.108C498.458 122.257 496.582 123.444 494.696 124.612C492.831 125.815 490.952 126.996 489.099 128.217C487.244 129.435 485.394 130.662 483.574 131.938Z" fill="#263238"/>
<path d="M451.671 181.121C453.189 183.99 455.702 180.56 455.702 180.56C455.702 180.56 453.274 186.37 455.983 188.724C458.599 190.985 461.49 186.734 461.701 186.432C461.575 186.741 459.484 192.138 462.449 194.223C465.533 196.387 467.701 191.62 467.84 191.311C467.813 191.64 467.525 195.991 470.138 197.062C474.629 198.901 475.669 187.797 478.798 185.418C478.798 185.418 483.433 190.26 483.597 190.373C483.597 190.373 484.803 179.829 481.359 175.788C479.544 173.658 477.202 174.93 477.202 174.93C477.202 174.93 477.966 171.573 475.683 169.858C474.509 168.981 472.061 170.079 472.061 170.079C472.061 170.079 472.561 167.365 470.434 165.966C468.741 164.844 466.549 166.12 466.549 166.12C466.549 166.12 465.82 163.292 463.718 162.708C459.485 161.52 448.427 174.972 451.671 181.121Z" fill="#D3766A"/>
<path d="M466.175 166.268C466.215 166.226 466.165 166.162 466.116 166.197C461.4 169.733 457.303 175.064 455.547 180.729C455.488 180.914 455.766 181.089 455.868 180.897C458.794 175.405 461.829 170.764 466.175 166.268Z" fill="#263238"/>
<path d="M472.091 169.989C472.139 169.94 472.058 169.862 472 169.905C467.16 173.575 462.709 179.707 461.456 186.475C461.413 186.707 461.606 186.959 461.676 186.695C462.852 182.257 468.158 174.016 472.091 169.989Z" fill="#263238"/>
<path d="M467.917 191.813C469.371 185.371 472.743 180.042 476.994 175.067C477.049 175.001 476.952 174.93 476.892 174.972C474.149 176.839 471.769 180.293 470.146 183.137C468.591 185.86 467.735 188.631 467.692 191.763C467.69 191.884 467.885 191.95 467.917 191.813Z" fill="#263238"/>
<path d="M455.597 180.594C455.528 180.817 455.93 180.672 455.868 180.897C455.608 181.845 454.532 187.679 456.407 188.663C457.911 189.448 460.009 187.972 460.592 187.088L462.059 184.867L461.454 187.464C461.189 188.597 461.07 189.831 461.188 190.981C461.303 192.13 461.723 193.245 462.58 193.845C463.463 194.491 464.54 194.539 465.381 193.863C466.239 193.228 466.905 192.161 467.348 191.123L468.586 188.222L468.366 191.353C468.306 192.202 468.349 193.116 468.513 193.961C468.68 194.802 468.991 195.627 469.543 196.164C470.083 196.694 470.92 196.934 471.594 196.67C472.308 196.403 472.912 195.706 473.418 194.99C474.435 193.515 475.148 191.801 475.939 190.138C476.329 189.302 476.72 188.461 477.151 187.639C477.592 186.833 478.05 185.978 478.799 185.415C478.117 186.048 477.766 186.925 477.381 187.749C477.017 188.594 476.694 189.455 476.369 190.319C475.718 192.047 475.044 193.78 474.052 195.41C473.533 196.198 472.942 197.037 471.929 197.495C470.879 197.96 469.645 197.61 468.874 196.865C468.085 196.108 467.731 195.111 467.521 194.165C467.323 193.199 467.261 192.256 467.315 191.264L468.333 191.496C467.819 192.726 467.163 193.87 466.041 194.755C465.487 195.187 464.735 195.482 463.971 195.45C463.204 195.42 462.525 195.128 461.947 194.706C460.75 193.822 460.29 192.364 460.183 191.081C460.074 189.76 460.219 188.491 460.535 187.215L461.395 187.591C460.615 188.688 458.451 190.594 455.965 189.67C452.908 187.984 455.113 181.712 455.597 180.594Z" fill="#263238"/>
<path d="M455.702 180.559C455.169 181.025 454.607 181.43 454.047 181.669C453.488 181.912 452.926 181.866 452.523 181.565C452.11 181.273 451.835 180.682 451.622 180.072C451.425 179.449 451.249 178.784 451.095 178.089C450.895 178.777 450.831 179.502 450.93 180.23C451.032 180.946 451.277 181.742 451.988 182.298C452.36 182.548 452.784 182.687 453.223 182.68C453.659 182.66 454.061 182.51 454.383 182.289C455.037 181.859 455.453 181.227 455.702 180.559Z" fill="#263238"/>
<path d="M402.613 522.884C400.303 521.449 353.335 464.538 352.926 461.236C352.862 460.782 360.013 454.346 369.09 446.259C369.555 445.847 403.533 412.967 403.533 412.967L432.705 448.161L400.82 480.69C400.82 480.69 409.054 510.515 409.123 514.195C409.185 517.851 404.916 524.328 402.613 522.884Z" fill="#D3766A"/>
<path d="M404.197 492.483C404.117 492.3 404.093 492.186 404.129 492.142C404.129 492.142 404.16 492.264 404.197 492.483Z" fill="#E40D25"/>
<path d="M409.12 514.194C409.179 517.855 404.911 524.327 402.614 522.881C400.305 521.447 353.339 464.534 352.931 461.234C352.861 460.78 360.008 454.343 369.091 446.263C369.231 446.135 372.216 443.255 376.391 439.22L406.438 474.958L400.818 480.695C400.818 480.695 409.05 510.509 409.12 514.194Z" fill="#EBEBEB"/>
<path d="M404.421 522.291C402.089 520.834 354.765 463.2 354.361 459.862C354.185 458.596 362.181 451.211 372.098 442.566C372.203 442.476 372.307 442.387 372.412 442.297L403.357 479.139L402.715 479.643C402.715 479.643 410.962 509.806 411.021 513.525C411.074 517.22 406.744 523.754 404.421 522.291Z" fill="#E40D25"/>
<path d="M406.12 519.803C398.381 509.892 366.233 470.645 357.83 461.436C357.761 461.361 357.709 461.405 357.769 461.486C365.225 471.478 397.691 510.462 405.961 519.933C406.136 520.134 406.283 520.012 406.12 519.803Z" fill="white"/>
<path d="M405.169 482.859C402.743 478.45 398.317 474.256 393.194 473.571C392.996 473.544 392.961 473.826 393.102 473.918C397.388 476.714 401.043 479.609 404.673 483.239C404.93 483.496 405.342 483.175 405.169 482.859Z" fill="white"/>
<path d="M405.772 486.984C403.346 482.574 398.92 478.382 393.797 477.696C393.599 477.669 393.564 477.952 393.705 478.043C397.991 480.839 401.646 483.735 405.276 487.366C405.533 487.621 405.945 487.299 405.772 486.984Z" fill="white"/>
<path d="M406.374 491.11C403.949 486.7 399.523 482.506 394.399 481.821C394.201 481.794 394.166 482.077 394.307 482.169C398.594 484.965 402.249 487.86 405.879 491.49C406.135 491.746 406.548 491.424 406.374 491.11Z" fill="white"/>
<path d="M407.21 521.473C407.66 522.832 404.013 525.453 403.123 524.936C402.234 524.42 350.913 461.351 350.276 460.086C349.638 458.821 353.792 456.068 355.007 457.146C356.222 458.225 407.21 521.473 407.21 521.473Z" fill="#263238"/>
<path d="M373.771 457.113C372.43 451.218 363.267 453.294 364.611 459.197C365.953 465.091 375.115 463.016 373.771 457.113Z" fill="white"/>
<path d="M426.879 377.439C424.277 390.296 377.08 434.623 377.08 434.623L414.271 477.555C414.271 477.555 483.862 408.929 479.909 380.521C476.471 355.81 439.475 256.435 439.475 256.435H396.792C396.792 256.435 429.439 364.796 426.879 377.439Z" fill="#37474F"/>
<path d="M426.879 377.439C424.277 390.296 377.08 434.623 377.08 434.623L414.271 477.555C414.271 477.555 483.862 408.929 479.909 380.521C476.471 355.81 439.475 256.435 439.475 256.435H396.792C396.792 256.435 429.439 364.796 426.879 377.439Z" fill="#37474F"/>
<path d="M418.502 467.348C413.561 461.196 415.065 462.892 410.054 456.796C407.602 453.813 391.472 434.224 388.697 431.843C388.636 431.791 388.532 431.877 388.573 431.946C390.433 435.095 406.902 454.398 409.411 457.334C414.538 463.332 413.13 461.555 418.325 467.495C418.423 467.607 418.595 467.463 418.502 467.348Z" fill="#263238"/>
<path d="M432.18 371.17C431.569 367.96 430.875 364.763 430.195 361.567C428.806 355.04 427.339 348.529 425.79 342.038C422.717 329.163 419.388 316.359 415.762 303.629C412.123 290.855 408.279 278.105 403.849 265.581C403.302 264.034 402.737 262.491 402.172 260.95C402.129 260.833 401.949 260.884 401.986 261.006C405.822 273.552 409.776 286.062 413.373 298.68C416.956 311.247 420.27 323.881 423.395 336.569C424.964 342.939 426.424 349.336 427.851 355.74C428.553 358.885 429.238 362.035 429.906 365.189C430.583 368.386 431.494 371.655 431.693 374.927C431.889 378.142 430.84 380.99 429.185 383.699C427.585 386.317 425.702 388.781 423.882 391.249C420.236 396.195 391.645 427.928 390.526 428.98C390.439 429.062 390.573 429.187 390.661 429.108C395.323 424.923 418.649 399.995 422.392 395.058C424.244 392.616 426.049 390.138 427.821 387.637C429.479 385.297 431.144 382.909 432.061 380.164C433.047 377.214 432.751 374.171 432.18 371.17Z" fill="#263238"/>
<path d="M432.092 256.43L424.345 358.125C416.949 323.318 396.799 256.43 396.799 256.43H432.092Z" fill="#263238"/>
<path d="M503.681 536.24C501.107 537.116 427.318 537.314 424.505 535.534C424.113 535.297 423.675 525.685 423.184 513.538C423.158 512.918 414.144 463.153 414.144 463.153L459.856 462.931L469.929 510.855C469.929 510.855 498.207 523.413 501.095 525.693C503.959 527.967 506.257 535.375 503.681 536.24Z" fill="#D3766A"/>
<path d="M503.683 536.243C501.106 537.118 427.321 537.316 424.511 535.532C424.115 535.299 423.672 525.691 423.182 513.541C423.17 513.366 422.494 509.495 421.503 503.969H468.481L469.927 510.86C469.927 510.86 498.202 523.417 501.094 525.691C503.962 527.965 506.259 535.381 503.683 536.243Z" fill="#EBEBEB"/>
<path d="M481.187 515.728C480.994 515.674 480.892 515.619 480.88 515.563C480.88 515.563 480.993 515.617 481.187 515.728Z" fill="#E40D25"/>
<path d="M504.045 535.913C501.436 536.78 426.862 536.438 424.034 534.62C422.947 533.949 422.363 523.079 422.035 509.927C422.033 509.789 422.03 509.652 422.029 509.514L470.143 509.197L470.121 510.013C470.121 510.013 498.608 522.911 501.509 525.238C504.386 527.554 506.654 535.059 504.045 535.913Z" fill="#E40D25"/>
<path d="M503.215 533.018C490.645 532.652 439.914 532.361 427.462 532.954C427.36 532.959 427.36 533.028 427.462 533.033C439.912 533.669 490.644 533.548 503.215 533.225C503.479 533.216 503.479 533.025 503.215 533.018Z" fill="white"/>
<path d="M474.162 510.176C469.22 509.231 463.166 509.962 459.37 513.469C459.223 513.604 459.418 513.812 459.579 513.762C464.467 512.246 469.028 511.279 474.14 510.8C474.499 510.767 474.516 510.244 474.162 510.176Z" fill="white"/>
<path d="M477.723 512.344C472.781 511.397 466.727 512.129 462.931 515.637C462.784 515.772 462.979 515.98 463.14 515.929C468.028 514.414 472.589 513.447 477.701 512.968C478.06 512.935 478.077 512.412 477.723 512.344Z" fill="white"/>
<path d="M481.284 514.513C476.342 513.566 470.288 514.298 466.492 517.805C466.346 517.941 466.54 518.148 466.701 518.098C471.589 516.582 476.15 515.616 481.262 515.138C481.621 515.104 481.638 514.58 481.284 514.513Z" fill="white"/>
<path d="M505.195 533.244C506.528 533.764 506.219 538.245 505.254 538.601C504.288 538.957 422.981 538.224 421.599 537.908C420.217 537.592 420.749 532.637 422.355 532.39C423.961 532.143 505.195 533.244 505.195 533.244Z" fill="#263238"/>
<path d="M434.303 517.921C428.909 515.192 424.66 523.571 430.063 526.303C435.457 529.033 439.706 520.654 434.303 517.921Z" fill="white"/>
<path d="M435.358 256.435C435.309 257.33 432.925 265.504 431.691 277.732C430.802 286.665 429.686 294.565 428.495 295.55C427.146 296.658 420.402 300.992 418.13 302.378C418.13 302.378 439.163 366.131 444.589 387.381C452.456 418.191 471.264 499.911 471.264 499.911L419.74 499.903C419.74 499.903 405.824 422.619 399.151 393.288C393.429 368.144 371.509 292.707 371.509 292.707C363.535 273.098 376.975 256.434 376.975 256.434C376.975 256.434 435.364 256.4 435.358 256.435Z" fill="#37474F"/>
<path d="M466.467 490.168C458.86 490.121 461.043 490.023 453.436 490.065C449.713 490.086 425.25 490.244 421.783 490.895C421.706 490.909 421.708 491.043 421.785 491.056C425.272 491.6 449.728 490.999 453.45 490.905C461.055 490.711 458.87 490.681 466.472 490.399C466.614 490.392 466.611 490.168 466.467 490.168Z" fill="#263238"/>
<path d="M432.051 293.032C427.158 295.614 422.56 298.915 418.2 302.303C418.029 302.436 418.198 302.708 418.387 302.589C423.081 299.648 427.889 296.784 432.415 293.589C432.772 293.34 432.428 292.834 432.051 293.032Z" fill="#263238"/>
<path d="M428.218 258.347C428.177 258.176 427.866 258.184 427.896 258.372C428.864 264.337 429.299 269.649 429.661 275.308C429.83 277.935 429.968 292.576 425.314 292.229C424.536 292.17 424.036 291.491 423.743 290.375C423.389 289.034 423.642 287.281 423.658 285.892C423.691 282.817 423.625 279.748 423.412 276.68C423.014 270.954 422.16 265.299 420.599 259.772C420.548 259.59 420.283 259.646 420.312 259.833C421.533 267.655 422.541 275.497 422.574 283.427C422.591 287.238 421.584 293.136 425.569 293.104C429.627 293.072 430.735 283.282 430.82 280.639C431.058 273.26 429.911 265.512 428.218 258.347Z" fill="#263238"/>
<path d="M425.494 292.596C425.237 293.621 425.066 294.672 424.944 295.721C424.849 296.536 424.687 297.424 424.903 298.225C424.945 298.381 425.156 298.363 425.225 298.243C425.648 297.493 425.728 296.545 425.9 295.707C426.099 294.737 426.319 293.768 426.491 292.792C426.604 292.146 425.652 291.964 425.494 292.596Z" fill="#263238"/>
<path d="M415.254 473.187C415.12 472.025 414.964 470.865 414.8 469.707C414.485 467.481 414.111 465.265 413.769 463.044C413.082 458.581 412.316 454.132 411.527 449.687C409.953 440.82 408.132 431.983 406.214 423.186C405.13 418.213 403.87 413.297 402.539 408.384C402.447 408.043 401.963 408.207 402.024 408.541C402.832 413.038 403.61 417.536 404.53 422.013C405.447 426.475 406.36 430.938 407.247 435.407C409.001 444.24 410.635 453.097 412.383 461.932C412.876 464.425 413.324 466.927 413.811 469.421C414.053 470.666 414.305 471.909 414.573 473.149C414.84 474.385 415.225 475.601 415.429 476.847C415.448 476.965 415.626 476.91 415.608 476.794C415.413 475.603 415.392 474.385 415.254 473.187Z" fill="#263238"/>
<path d="M449.873 406.477C448.201 398.146 445.947 389.922 443.68 381.738C439.118 365.262 433.746 349.026 428.388 332.796C426.844 328.119 425.303 323.443 423.755 318.766C422.982 316.429 419.198 303.822 418.728 302.624C418.68 302.502 418.499 302.554 418.532 302.683C419.616 306.977 421.105 313.24 422.359 317.491C423.597 321.694 424.949 325.864 426.254 330.047C428.818 338.267 431.428 346.473 433.917 354.716C438.839 371.007 443.727 387.294 447.723 403.844C448.841 408.479 449.957 413.109 450.978 417.766C451.998 422.415 452.87 427.095 453.845 431.753C453.872 431.881 454.085 431.848 454.073 431.717C453.233 423.228 451.551 414.834 449.873 406.477Z" fill="#263238"/>
<path d="M418.661 450.056C415.896 434.164 412.586 418.356 408.919 402.648C405.233 386.862 401.129 371.175 396.607 355.609C392.086 340.044 387.075 324.617 381.693 309.328C379.142 302.081 376.034 294.919 374.874 287.312C373.616 279.062 374.023 269.313 379.514 258.79C379.576 258.67 379.404 258.571 379.327 258.686C374.788 265.462 369.743 279.505 378.115 302.018C380.905 309.523 383.321 317.16 385.804 324.772C388.354 332.585 390.797 340.432 393.135 348.312C397.769 363.926 402.071 379.633 405.924 395.459C409.776 411.281 413.209 427.206 416.229 443.208C419.259 459.268 420.455 464.684 423.041 480.819C423.376 482.918 423.642 485.027 423.917 487.135C423.933 487.252 424.118 487.249 424.103 487.13C422.17 471.142 421.421 465.925 418.661 450.056Z" fill="#263238"/>
<path d="M441.482 257.96L438.16 235.917C438.16 235.917 444.698 228.256 440.555 219.178C438.463 214.579 425.199 189.59 417.412 183.874C410.107 178.51 400.926 183.572 397.484 188.183C387.587 201.443 380.394 214.164 374.67 257.594L441.482 257.96Z" fill="#E40D25"/>
<path d="M426.881 232.404C423.535 232.758 420.176 233.229 416.913 234.076C415.29 234.498 413.697 234.991 412.107 235.52C411.314 235.785 410.518 236.022 409.716 236.254C408.892 236.493 408.009 236.717 407.147 236.747C407.07 236.749 407.072 236.866 407.149 236.867C407.986 236.887 408.789 236.904 409.623 236.813C410.418 236.726 411.207 236.555 411.981 236.361C413.631 235.949 415.261 235.461 416.907 235.032C420.228 234.167 423.547 233.303 426.923 232.679C427.08 232.651 427.04 232.386 426.881 232.404Z" fill="#263238"/>
<path d="M435.194 235.352C432.44 235.081 429.63 234.936 426.861 234.979C425.468 235 424.087 235.103 422.702 235.241C422.041 235.307 421.38 235.385 420.721 235.471C419.996 235.566 419.282 235.758 418.556 235.843C418.48 235.851 418.48 235.97 418.558 235.963C419.245 235.904 419.945 235.96 420.635 235.941C421.327 235.923 422.021 235.898 422.714 235.879C424.101 235.841 425.487 235.818 426.876 235.768C429.654 235.665 432.419 235.589 435.198 235.583C435.348 235.58 435.337 235.365 435.194 235.352Z" fill="#263238"/>
<path d="M397.042 187.731C376.181 207.401 356.864 239.879 358.241 256.939C359.601 273.786 365.315 271.623 366.97 271.363C377.079 269.78 396.79 220.775 402.356 201.024C407.88 181.416 402.201 182.866 397.042 187.731Z" fill="#D3766A"/>
<path d="M403.025 168.627C399.405 168.517 390.943 172.687 388.829 177.886C386.716 183.085 388.386 190.541 390.064 190.98C391.741 191.421 398.249 189.607 402.315 186.243C406.38 182.88 404.808 168.681 403.025 168.627Z" fill="#263238"/>
<path d="M403.037 168.646C403.148 168.599 403.126 168.403 402.99 168.425C399.937 168.924 396.874 170.565 394.135 171.948C391.925 173.064 389.676 174.317 388.088 176.267C386.499 178.217 385.908 180.507 386.285 182.983C386.696 185.682 387.69 188.85 389.457 190.977C389.508 191.039 389.639 190.993 389.595 190.907C387.238 186.106 384.842 180.152 389.221 175.749C392.941 172.009 398.344 170.635 403.037 168.646Z" fill="#263238"/>
<path d="M390.317 189.567C387.352 190.534 380.552 197.807 380.323 203.835C380.093 209.864 386.393 217.513 387.998 217.851C389.604 218.189 395.269 211.379 396.689 206.901C397.636 203.907 395.882 200.955 394.622 197.931C392.764 193.464 390.778 189.417 390.317 189.567Z" fill="#263238"/>
<path d="M398.373 205.828C398.162 199.771 393.725 194.574 390.713 189.636C390.682 189.583 390.592 189.627 390.617 189.684C392.692 194.574 396.63 198.574 397.723 203.894C398.372 207.05 397.857 210.366 395.616 212.801C393.674 214.911 390.978 216.217 388.533 217.642C388.371 217.736 388.533 217.97 388.694 217.881C393.599 215.186 398.591 212.08 398.373 205.828Z" fill="#263238"/>
<path d="M389.765 190.235C389.902 190.131 389.755 189.91 389.614 190.013C385.68 192.874 381.044 196.843 379.561 201.655C377.953 206.868 381.403 211.356 384.44 215.213C384.478 215.261 384.557 215.209 384.519 215.16C381.5 211.233 378.158 206.282 380.132 201.126C381.83 196.69 386.069 193.004 389.765 190.235Z" fill="#263238"/>
<path d="M388.953 216.501C386.095 220.66 382.801 226.627 385.113 230.639C387.425 234.652 394.594 239.348 395.078 239.186C395.562 239.024 401.67 231.71 401.544 226.049C401.417 220.389 389.325 215.96 388.953 216.501Z" fill="#263238"/>
<path d="M395.552 239.407C391.382 237.697 386.317 235.145 384.599 230.648C382.946 226.319 386.172 220.664 388.538 217.178C388.568 217.134 388.507 217.084 388.473 217.126C385.749 220.493 382.649 226.038 384.147 230.505C385.634 234.934 391.18 238.475 395.507 239.564C395.599 239.589 395.637 239.442 395.552 239.407Z" fill="#263238"/>
<path d="M394.873 238.773C393.642 240.743 392.856 245.318 394.379 249.235C396.986 255.938 393.973 256.1 388.272 261.675C383.454 266.387 385.997 273.399 390.847 274.731C390.847 274.731 386.8 271.88 389.465 267.723C392.651 262.757 405.848 261.369 407.219 251.892C408.992 239.632 394.873 238.773 394.873 238.773Z" fill="#263238"/>
<path d="M394.152 243.014C394.177 242.887 393.959 242.842 393.928 242.968C393.628 244.202 393.518 245.443 393.67 246.708C393.865 248.338 394.668 249.75 394.972 251.349C395.744 255.415 391.636 257.695 388.831 259.64C385.07 262.249 383.333 266.522 385.545 270.8C385.577 270.862 385.673 270.814 385.642 270.751C384.319 268.063 384.483 264.797 386.29 262.35C388.011 260.019 390.904 258.994 392.944 257.006C394.341 255.646 395.553 253.991 395.366 251.953C395.263 250.838 394.769 249.781 394.439 248.724C393.835 246.798 393.778 244.995 394.152 243.014Z" fill="#263238"/>
<path d="M396.344 238.901C396.29 238.894 396.272 238.981 396.324 238.994C399.851 239.871 403.515 240.676 406.06 243.509C408.799 246.555 409.071 251.074 407.594 254.771C405.939 258.913 402.017 259.73 398.227 261.083C395.486 262.061 392.808 263.257 390.894 265.527C390.836 265.597 390.949 265.694 391.014 265.632C394.363 262.427 398.605 261.474 402.786 259.827C406.203 258.481 408.01 255.944 408.58 252.333C409.836 244.37 403.507 239.881 396.344 238.901Z" fill="#263238"/>
<path d="M398.217 163.592C396.862 162.767 395.607 164.888 396.964 165.715C398.319 166.541 399.575 164.419 398.217 163.592Z" fill="#E40D25"/>
<path d="M399.84 165.213C398.485 164.387 397.23 166.508 398.587 167.336C399.943 168.162 401.199 166.04 399.84 165.213Z" fill="#E40D25"/>
<path d="M401.737 166.541C400.381 165.715 399.126 167.836 400.484 168.664C401.838 169.49 403.094 167.368 401.737 166.541Z" fill="#E40D25"/>
<path d="M403.736 167.579C402.38 166.753 401.125 168.874 402.483 169.702C403.839 170.528 405.093 168.405 403.736 167.579Z" fill="#E40D25"/>
<path d="M405.932 168.272C404.577 167.447 403.321 169.569 404.678 170.396C406.034 171.221 407.289 169.099 405.932 168.272Z" fill="#E40D25"/>
<path d="M408.131 168.551C406.776 167.726 405.521 169.848 406.878 170.674C408.234 171.5 409.489 169.378 408.131 168.551Z" fill="#E40D25"/>
<path d="M404.415 185.365C404.752 186.609 411.567 194.654 416.94 192.347C418.931 191.491 418.183 184.966 418.183 184.966L420.322 173.559L405.805 165.037C405.805 165.037 404.28 184.836 404.415 185.365Z" fill="#D3766A"/>
<path d="M405.267 172.433C408.707 180.173 415.195 183.263 418.302 184.331L420.324 173.56L405.806 165.036C405.806 165.036 405.562 168.377 405.267 172.433Z" fill="#263238"/>
<path d="M430.834 155.347C434.263 174.046 423.451 178.211 419.418 178.947C415.757 179.614 403.206 181.421 397.863 163.177C392.521 144.933 400.13 137.427 408.423 135.458C416.715 133.488 427.405 136.648 430.834 155.347Z" fill="#D3766A"/>
<path d="M425.432 153.83C424.983 153.823 424.569 153.742 424.126 153.689C423.626 153.63 423.222 153.633 422.823 153.291C422.608 153.107 422.583 152.694 422.741 152.468C423.111 151.945 423.742 151.866 424.348 151.913C425.004 151.965 425.498 152.172 425.974 152.626C426.435 153.067 426.025 153.84 425.432 153.83Z" fill="#263238"/>
<path d="M412.62 155.287C413.059 155.19 413.448 155.028 413.871 154.889C414.351 154.732 414.747 154.655 415.071 154.24C415.245 154.017 415.188 153.607 414.987 153.419C414.521 152.979 413.887 153.027 413.302 153.194C412.668 153.374 412.226 153.676 411.851 154.215C411.486 154.738 412.041 155.414 412.62 155.287Z" fill="#263238"/>
<path d="M415.805 159.797C415.788 159.749 415.711 159.87 415.72 159.923C415.92 161.202 415.933 162.701 414.823 163.273C414.789 163.29 414.801 163.354 414.843 163.344C416.237 162.967 416.199 160.977 415.805 159.797Z" fill="#263238"/>
<path d="M414.49 158.597C412.404 158.696 412.755 162.861 414.689 162.769C416.59 162.678 416.239 158.513 414.49 158.597Z" fill="#263238"/>
<path d="M413.692 158.886C413.348 159.152 413.027 159.599 412.592 159.679C412.09 159.772 411.669 159.368 411.303 158.977C411.264 158.936 411.232 158.976 411.236 159.031C411.291 159.831 411.668 160.622 412.533 160.67C413.322 160.713 413.824 159.959 413.954 159.139C413.978 158.986 413.831 158.779 413.692 158.886Z" fill="#263238"/>
<path d="M423.411 158.796C423.416 158.746 423.517 158.85 423.519 158.902C423.577 160.197 423.862 161.668 425.062 162.009C425.099 162.019 425.1 162.084 425.057 162.081C423.615 161.99 423.258 160.032 423.411 158.796Z" fill="#263238"/>
<path d="M424.46 157.36C426.525 157.043 427.007 161.195 425.093 161.489C423.211 161.778 422.73 157.626 424.46 157.36Z" fill="#263238"/>
<path d="M425.357 157.532C425.71 157.714 426.081 158.077 426.476 158.057C426.934 158.035 427.218 157.546 427.458 157.082C427.483 157.035 427.52 157.065 427.528 157.12C427.642 157.911 427.475 158.768 426.73 159.009C426.052 159.229 425.462 158.606 425.181 157.838C425.128 157.696 425.214 157.459 425.357 157.532Z" fill="#263238"/>
<path d="M417.007 170.541C417.314 170.847 417.621 171.267 418.09 171.31C418.54 171.351 419.069 171.151 419.484 170.995C419.525 170.98 419.566 171.023 419.539 171.062C419.2 171.556 418.49 171.861 417.89 171.752C417.305 171.645 417.018 171.136 416.881 170.599C416.862 170.524 416.961 170.497 417.007 170.541Z" fill="#263238"/>
<path d="M422.191 165.341C422.191 165.341 422.553 167.259 422.599 168.171C422.602 168.256 422.384 168.307 422.075 168.341C422.061 168.347 422.053 168.353 422.039 168.345C420.443 168.676 418.795 168.2 417.753 166.936C417.686 166.85 417.796 166.751 417.882 166.803C419.128 167.625 420.465 167.786 421.893 167.74C421.945 167.484 421.162 164.475 421.306 164.457C421.802 164.391 422.799 164.68 423.397 164.823C422.757 160.805 421.479 156.924 420.902 152.914C420.884 152.77 421.089 152.717 421.138 152.843C422.766 156.816 423.604 161.423 424.371 165.556C424.473 166.07 422.563 165.479 422.191 165.341Z" fill="#263238"/>
<path d="M421.811 167.897C421.811 167.897 421.12 169.164 420.01 169.742C419.602 169.956 419.146 170.081 418.643 170.019C417.607 169.897 417.452 168.986 417.525 168.179C417.582 167.516 417.802 166.92 417.802 166.92C417.802 166.92 419.453 168.079 421.811 167.897Z" fill="#263238"/>
<path d="M420.012 169.743C419.604 169.957 419.148 170.082 418.644 170.02C417.609 169.898 417.454 168.987 417.526 168.18C418.612 168.141 419.773 168.718 420.012 169.743Z" fill="#FF9ABB"/>
<path d="M417.007 140.281C417.007 140.281 417.787 143.16 416.813 145.251C414.812 149.548 409.667 148.46 407.926 150.167C406.293 151.767 406.896 155.051 405.419 156.651C403.374 158.865 400.56 158.034 400.233 159.517C399.905 161 400.163 164.141 398.289 164.755C396.416 165.368 386.763 135.389 411.916 134.893C411.916 134.893 415.163 134.464 419.66 135.739C426.823 137.768 429.492 149.857 429.492 149.857C429.492 149.857 427.752 149.923 426.907 149.185C425.713 148.144 425.248 147.176 424.375 146.503C423.002 145.446 422.257 145.856 420.83 144.825C418.655 143.257 417.007 140.281 417.007 140.281Z" fill="#263238"/>
<path d="M416.622 138.92C417.012 140.146 417.272 141.415 417.37 142.686C417.477 143.943 417.424 145.263 416.877 146.356C416.324 147.42 415.22 148.151 414.079 148.579C412.914 149.019 411.629 149.152 410.377 149.667C409.764 149.944 409.159 150.318 408.742 150.921C408.334 151.515 408.172 152.19 408.036 152.822C407.787 154.088 407.532 155.337 406.704 156.246C405.891 157.155 404.679 157.707 403.425 157.66C402.188 157.671 400.819 157.333 399.617 157.888C400.861 157.432 402.126 157.867 403.418 157.957C404.739 158.07 406.102 157.537 407.043 156.567C408.04 155.586 408.306 154.162 408.574 152.944C408.714 152.326 408.881 151.722 409.215 151.257C409.537 150.798 410.066 150.465 410.617 150.227C411.736 149.741 413.04 149.58 414.273 149.099C414.89 148.862 415.489 148.541 416.014 148.123C416.532 147.717 417.037 147.202 417.298 146.562C417.852 145.305 417.832 143.935 417.665 142.653C417.466 141.365 417.104 140.115 416.622 138.92Z" fill="#263238"/>
<path d="M417.1 140.04C417.346 141.215 417.764 142.349 418.317 143.431C418.862 144.512 419.7 145.514 420.802 146.13C421.354 146.446 421.98 146.605 422.505 146.78C423.008 146.954 423.542 147.267 423.837 147.662C424.159 148.115 424.466 148.686 424.917 149.109C425.369 149.532 425.913 149.838 426.483 150.011C425.968 149.711 425.485 149.366 425.136 148.906C424.756 148.467 424.539 147.948 424.226 147.4C423.854 146.797 423.286 146.502 422.703 146.246C422.113 146.024 421.575 145.891 421.096 145.603C420.115 145.047 419.348 144.182 418.74 143.185C418.115 142.197 417.599 141.126 417.1 140.04Z" fill="#263238"/>
<path d="M401.658 163.27C401.658 163.27 396.685 158.008 394.237 159.866C391.79 161.723 396.137 169.775 399.435 170.476C402.734 171.177 403.443 168.136 403.443 168.136L401.658 163.27Z" fill="#D3766A"/>
<path d="M395.54 162.143C395.488 162.145 395.489 162.217 395.535 162.229C397.859 162.792 399.314 164.654 400.434 166.644C399.663 165.929 398.709 165.616 397.736 166.553C397.685 166.602 397.754 166.683 397.813 166.661C398.683 166.336 399.354 166.395 400.067 167.025C400.572 167.47 400.962 168.071 401.356 168.614C401.487 168.795 401.826 168.637 401.717 168.423C401.709 168.407 401.7 168.391 401.693 168.375C401.336 165.57 398.584 161.98 395.54 162.143Z" fill="#263238"/>
<path d="M425.726 191.578L413.564 224.026C413.097 224.966 413.5 225.817 414.463 225.925L431.693 227.86C432.655 227.968 433.816 227.292 434.282 226.352L446.445 193.905C446.913 192.964 446.509 192.114 445.547 192.005L428.317 190.071C427.354 189.962 426.194 190.636 425.726 191.578Z" fill="#37474F"/>
<path d="M427.773 191.79L415.611 224.237C415.145 225.177 415.547 226.028 416.51 226.136L433.74 228.071C434.702 228.179 435.863 227.503 436.33 226.563L448.492 194.116C448.96 193.174 448.557 192.325 447.595 192.216L430.365 190.282C429.4 190.175 428.24 190.849 427.773 191.79Z" fill="#455A64"/>
<path d="M432.326 193.846C432.218 194.653 431.476 195.219 430.669 195.11C429.862 195.002 429.297 194.26 429.405 193.453C429.514 192.647 430.255 192.081 431.062 192.189C431.869 192.298 432.435 193.039 432.326 193.846Z" fill="#263238"/>
<path d="M364.631 271.539C372.249 271.894 381.099 265.201 403.816 245.249C406.96 242.488 393.444 215.063 389.936 217.839C385.517 221.335 369.125 235.86 368.061 237.073C359.082 247.31 359.465 271.298 364.631 271.539Z" fill="#D3766A"/>
<path d="M382.025 227.218C382.025 227.218 388.073 216.874 392.933 212.422C399.441 206.461 407.514 203.995 410.96 203.165C418.152 201.433 436.738 202.219 437.445 207.612C438.086 212.494 419.128 210.731 419.128 210.731C419.128 210.731 438.754 209.339 438.443 215.359C438.133 221.379 416.244 218.079 416.244 218.079C416.244 218.079 436.44 217.101 435.139 223.259C434.156 227.911 414.162 226.041 414.162 226.041C414.162 226.041 431.527 225.32 430.722 230.149C429.833 235.484 411.268 234.915 411.268 234.915C407.155 246.845 400.318 250.843 395.115 253.107C393.856 253.656 382.025 227.218 382.025 227.218Z" fill="#D3766A"/>
<path d="M412.311 210.778C414.61 210.531 416.936 210.266 419.249 210.224C421.563 210.182 423.88 210.222 426.187 210.395C431.846 210.822 435.322 211.974 435.099 211.926C429.837 210.796 421.554 210.817 419.239 210.859C416.93 210.901 414.619 210.827 412.309 210.866C412.251 210.866 412.256 210.784 412.311 210.778Z" fill="#263238"/>
<path d="M412.309 219.133C415.259 218.946 418.18 218.651 421.139 218.592C424.083 218.535 426.883 218.738 429.824 218.883C430.05 218.894 429.969 219.012 429.742 219.01C426.798 218.982 424.074 219.184 421.13 219.19C418.196 219.197 415.239 219.09 412.309 219.204C412.262 219.207 412.265 219.137 412.309 219.133Z" fill="#263238"/>
<path d="M411.018 226.305C415.512 225.787 420.096 226.098 424.583 226.511C424.807 226.532 424.686 226.672 424.456 226.665C419.947 226.511 416.413 226.359 411.036 226.462C410.952 226.464 410.924 226.317 411.018 226.305Z" fill="#263238"/>
<path d="M361.282 255.138C361.689 249.754 362.987 244.256 365.842 239.612C371.009 232.871 379.214 226.717 385.522 221.019C386.931 218.206 390.032 214.469 392.804 212.034C395.715 209.425 399.133 207.366 402.816 206.129C399.21 207.585 395.965 209.786 393.157 212.421C390.326 215.077 387.929 218.254 386.031 221.608C379.824 227.348 371.677 233.469 366.38 239.998C363.478 244.458 362.03 249.881 361.282 255.138Z" fill="#263238"/>
<path d="M333.103 125.913C334.619 140.397 347.595 150.915 362.079 149.401C367.933 148.789 373.137 146.304 377.166 142.594L390.36 144.53L383.759 133.125C385.361 129.228 386.035 124.89 385.568 120.426C384.054 105.942 371.076 95.4231 356.593 96.9377C342.108 98.4524 331.588 111.429 333.103 125.913Z" fill="white"/>
<path d="M340.997 104.133C343.86 101.338 347.355 99.18 351.167 97.8974C354.983 96.6288 359.095 96.265 363.092 96.7955C367.085 97.3365 370.985 98.7544 374.348 101.019C377.713 103.276 380.564 106.302 382.608 109.814C386.709 116.827 387.429 125.792 384.232 133.319L384.202 132.868L390.764 144.296L391.248 145.139L390.292 144.992L377.111 142.969L377.424 142.873C373.773 146.183 369.202 148.441 364.376 149.316C363.171 149.537 361.951 149.668 360.727 149.696C359.505 149.803 358.283 149.692 357.063 149.626C354.644 149.334 352.217 148.882 349.963 147.933C347.698 147.041 345.53 145.877 343.602 144.39C342.589 143.708 341.735 142.833 340.818 142.034C340.01 141.126 339.119 140.287 338.428 139.282C335.416 135.447 333.657 130.728 333.105 125.914C332.247 117.972 335.174 109.668 340.997 104.133ZM338.505 139.22C339.2 140.216 340.094 141.046 340.903 141.944C341.822 142.732 342.677 143.598 343.689 144.269C345.612 145.744 347.793 146.852 350.051 147.697C352.299 148.599 354.705 149.002 357.095 149.248C358.299 149.291 359.502 149.381 360.703 149.254C361.907 149.206 363.102 149.057 364.281 148.819C369.001 147.879 373.419 145.591 376.908 142.314L377.038 142.191L377.22 142.217L390.426 144.066L389.954 144.762L383.313 133.379L383.187 133.163L383.283 132.927C384.749 129.3 385.386 125.346 385.139 121.439C384.826 117.544 383.79 113.665 381.792 110.28C379.832 106.887 377.118 103.933 373.901 101.674C370.676 99.419 366.904 97.9697 363.01 97.3715C359.112 96.7838 355.065 97.0672 351.28 98.2507C347.502 99.4505 344.002 101.52 341.11 104.251C335.286 109.711 332.301 117.964 333.102 125.912C333.687 130.725 335.478 135.42 338.505 139.22Z" fill="#263238"/>
<path d="M356.429 138.209L345.164 126.807L348.949 123.069L355.529 129.728L369.199 108.298L373.684 111.158L356.429 138.209Z" fill="#262250"/>
<path d="M269.535 537.011H143.857L162.19 408.999H251.212L269.535 537.011Z" fill="#262250"/>
<path d="M251.209 408.995L237.245 537.014H269.536L251.209 408.995Z" fill="#262250"/>
<path d="M187.261 417.823L183.333 416.992C183.356 416.885 185.632 406.129 188.066 395.273C190.698 383.538 202.238 378.14 211.881 379.695C219.1 380.862 227.102 386.494 225.896 398.527C224.607 411.409 223.631 417.476 223.59 417.729L219.628 417.086C219.637 417.026 220.626 410.866 221.903 398.127C222.83 388.88 217.003 384.59 211.242 383.658C203.445 382.398 194.101 386.725 191.985 396.151C189.554 406.983 187.283 417.716 187.261 417.823Z" fill="#263238"/>
<path d="M238.945 536.034C241.53 534.196 244.203 532.511 246.877 530.827C249.564 529.166 252.279 527.553 255.024 525.992L255.403 525.777L255.745 526.033C257.871 527.624 259.995 529.221 262.055 530.902C264.135 532.555 266.193 534.241 268.183 536.017C265.897 534.642 263.678 533.177 261.482 531.679C259.267 530.208 257.113 528.654 254.964 527.094L255.684 527.133C252.959 528.73 250.205 530.275 247.422 531.769C244.626 533.241 241.83 534.715 238.945 536.034Z" fill="white"/>
<path d="M255.354 526.562C254.8 518.4 254.393 510.231 254.009 502.063C253.62 493.894 253.352 485.722 253.019 477.552C252.794 469.378 252.51 461.205 252.339 453.029L252.109 440.764C252.081 436.674 252.008 432.586 252.021 428.495C252.311 432.576 252.515 436.66 252.766 440.742L253.368 452.994C253.753 461.163 254.026 469.336 254.356 477.506C254.578 485.68 254.866 493.852 255.033 502.028C255.204 510.203 255.352 518.38 255.354 526.562Z" fill="white"/>
<path d="M190.63 417.408C190.63 420.353 188.242 422.743 185.297 422.743C182.351 422.743 179.963 420.355 179.964 417.408C179.964 414.463 182.352 412.074 185.297 412.074C188.242 412.074 190.63 414.462 190.63 417.408Z" fill="#263238"/>
<path d="M226.532 417.408C226.532 420.353 224.144 422.743 221.197 422.741C218.251 422.741 215.863 420.353 215.863 417.407C215.863 414.462 218.251 412.074 221.197 412.074C224.144 412.074 226.531 414.462 226.532 417.408Z" fill="#263238"/>
<path d="M205.168 537.011L95.8535 537.012L111.801 425.666H189.233L205.168 537.011Z" fill="#E40D25"/>
<path d="M189.229 425.663L177.083 537.014H205.171L189.229 425.663Z" fill="#E40D25"/>
<path opacity="0.1" d="M189.229 425.663L177.083 537.014H205.171L189.229 425.663Z" fill="black"/>
<path d="M133.606 433.342L130.19 432.619C130.211 432.525 132.19 423.171 134.307 413.727C136.596 403.52 146.634 398.824 155.021 400.177C161.3 401.191 168.261 406.091 167.212 416.557C166.09 427.762 165.241 433.04 165.205 433.259L161.758 432.699C161.766 432.647 162.626 427.288 163.737 416.208C164.543 408.165 159.475 404.434 154.464 403.624C147.682 402.528 139.554 406.292 137.714 414.49C135.601 423.912 133.626 433.248 133.606 433.342Z" fill="#263238"/>
<path d="M178.562 536.161C180.81 534.562 183.136 533.098 185.462 531.632C187.799 530.186 190.161 528.785 192.549 527.426L192.878 527.24L193.175 527.461C195.025 528.845 196.871 530.234 198.663 531.696C200.473 533.135 202.263 534.601 203.993 536.145C202.004 534.95 200.074 533.675 198.164 532.372C196.237 531.093 194.364 529.741 192.494 528.383L193.12 528.418C190.75 529.807 188.355 531.15 185.934 532.45C183.503 533.733 181.071 535.013 178.562 536.161Z" fill="white"/>
<path d="M192.835 527.923C192.353 520.823 191.999 513.719 191.664 506.613C191.326 499.507 191.094 492.399 190.803 485.293C190.608 478.184 190.362 471.074 190.212 463.963L190.013 453.295C189.988 449.738 189.924 446.182 189.936 442.623C190.189 446.173 190.366 449.725 190.583 453.275L191.108 463.933C191.442 471.038 191.679 478.146 191.967 485.253C192.16 492.363 192.41 499.471 192.556 506.583C192.704 513.694 192.832 520.807 192.835 527.923Z" fill="white"/>
<path d="M136.537 432.98C136.537 435.542 134.461 437.62 131.898 437.62C129.335 437.62 127.258 435.542 127.258 432.98C127.258 430.417 129.335 428.341 131.898 428.341C134.461 428.341 136.537 430.417 136.537 432.98Z" fill="#263238"/>
<path d="M167.764 432.98C167.764 435.543 165.686 437.62 163.124 437.62C160.562 437.62 158.485 435.543 158.485 432.98C158.485 430.417 160.563 428.341 163.124 428.341C165.686 428.339 167.763 430.417 167.764 432.98Z" fill="#263238"/>
</svg>
